<svg width="16" height="16" viewBox="0 0 16 16" fill="none" xmlns="http://www.w3.org/2000/svg">
<rect width="16" height="16" rx="8" fill="#FFE5E5"/>
<path d="M1.65857 6.65448C1.74268 6.78642 1.8202 6.91506 1.90596 7.03876C3.45297 9.27681 5.52116 10.7892 8.15009 11.5182C8.67786 11.6649 9.21387 11.7622 9.75813 11.8266C10.469 11.9123 11.1815 11.9305 11.8939 11.8942C12.7977 11.848 13.69 11.7144 14.5707 11.5083C14.5756 11.5066 14.5806 11.5083 14.5888 11.5132C14.5311 11.5379 14.475 11.5643 14.4173 11.5891C14.3596 11.6138 14.3002 11.6386 14.2425 11.6616C13.3931 12.0014 12.5157 12.2438 11.6119 12.3923C10.9176 12.5061 10.2199 12.5588 9.51734 12.5325C7.16383 12.45 5.18306 11.5594 3.60636 9.79798C2.86089 8.9651 2.28529 8.02337 1.8136 7.01402C1.76082 6.90022 1.71135 6.78642 1.66022 6.67262C1.65857 6.67097 1.65857 6.66602 1.65857 6.65448Z" fill="#1D1819"/>
<path d="M9.78291 1.90625C9.63777 2.02665 9.49593 2.15199 9.37224 2.29383C9.17433 2.52307 9.03579 2.78036 8.99126 3.08218C8.95167 3.34936 8.98301 3.61159 9.05393 3.87052C9.14134 4.18883 9.27988 4.4857 9.43656 4.77597C9.53881 4.96728 9.62293 5.1652 9.65756 5.3796C9.72188 5.77707 9.58335 6.08549 9.25019 6.30814C9.01765 6.46317 8.75706 6.54068 8.48493 6.58686C8.44535 6.59346 8.40577 6.59841 8.35959 6.60335C8.36948 6.59346 8.37443 6.58851 8.37938 6.58521C8.72573 6.34112 8.84777 6.00137 8.73397 5.59236C8.6812 5.40269 8.59708 5.22787 8.48163 5.06789C8.27548 4.77927 8.10065 4.47415 8.00994 4.12781C7.85821 3.54067 8.01654 3.04259 8.4503 2.62698C8.75046 2.33836 9.11 2.14704 9.49428 1.99696C9.58829 1.96068 9.68395 1.92934 9.78291 1.90625Z" fill="#1D1819"/>
<path d="M7.87962 6.61656C7.92745 6.54234 7.96539 6.46483 7.97858 6.37577C8.00167 6.23558 7.96539 6.11023 7.88952 5.99478C7.8219 5.88923 7.73614 5.80182 7.63388 5.7309C7.48875 5.62865 7.35186 5.51815 7.23971 5.37961C7.08963 5.19654 6.99397 4.99203 7.00056 4.75124C7.00386 4.63249 7.0319 4.51704 7.07973 4.40819C7.21662 4.09153 7.45246 3.85899 7.72789 3.65778C7.70645 3.69571 7.68501 3.73199 7.66357 3.76993C7.41948 4.19379 7.45411 4.59621 7.75263 4.98049C7.86478 5.12562 7.99507 5.25591 8.13031 5.37961C8.22762 5.46867 8.31503 5.56927 8.3744 5.68802C8.47171 5.88099 8.46182 6.069 8.33977 6.24712C8.22267 6.41535 8.06104 6.5275 7.87962 6.61656Z" fill="#1D1819"/>
<path d="M1.45082 7.5665C1.65863 8.12065 1.93406 8.63852 2.26226 9.13001C3.42499 10.87 5.01158 12.041 7.00389 12.6693C7.01873 12.6743 7.03192 12.6792 7.04677 12.6875C6.9643 12.6842 6.88349 12.666 6.80268 12.6479C5.54759 12.3626 4.43104 11.8035 3.47447 10.936C2.60036 10.1443 1.99013 9.17783 1.59596 8.06953C1.53823 7.90625 1.48381 7.74297 1.43928 7.5764C1.43763 7.56485 1.44257 7.5632 1.45082 7.5665Z" fill="#1D1819"/>
<path d="M1.45078 7.5665C1.44748 7.56979 1.44418 7.57309 1.44088 7.57639C1.41944 7.53846 1.41615 7.49393 1.40625 7.4527C1.42604 7.48733 1.44088 7.52526 1.45078 7.5665Z" fill="#1D1819"/>
<path fill-rule="evenodd" clip-rule="evenodd" d="M10.2726 7.17566H7.53938C6.62913 7.17566 5.71722 7.17566 4.80697 7.17896C4.77398 7.17896 4.741 7.17896 4.70966 7.18391C4.60081 7.2004 4.54968 7.25977 4.54968 7.36862C4.54968 7.85186 4.54968 8.33344 4.55133 8.81503C4.55133 9.05087 4.58926 9.28177 4.65029 9.50937C4.65688 9.53741 4.67173 9.5572 4.69482 9.57369C5.74375 10.3604 6.89824 10.9376 8.15827 11.3038C8.18466 11.3104 8.20775 11.3137 8.23414 11.3087C8.437 11.2708 8.63656 11.2213 8.83117 11.1553C8.85187 11.1481 8.87261 11.141 8.89334 11.1339C9.05771 11.0774 9.2222 11.0209 9.36718 10.9228C9.72837 10.6754 10.0054 10.3488 10.2199 9.96951C10.238 9.93653 10.2578 9.92498 10.2957 9.92498C10.4119 9.92746 10.5272 9.92715 10.643 9.92684C10.6816 9.92673 10.7203 9.92663 10.7592 9.92663C10.7883 9.92615 10.8173 9.92638 10.8462 9.9266C10.9154 9.92715 10.9841 9.92769 11.0527 9.91838C11.663 9.83262 12.0604 9.25703 11.9219 8.6567C11.8246 8.23779 11.4618 7.91618 11.0329 7.87165C10.932 7.86043 10.8302 7.86218 10.7288 7.86393C10.6811 7.86476 10.6335 7.86558 10.586 7.86505C10.5497 7.86505 10.5415 7.85516 10.5415 7.81887C10.5426 7.71778 10.5422 7.61742 10.5418 7.51681C10.5416 7.46642 10.5415 7.41596 10.5415 7.36532C10.5415 7.28286 10.5068 7.23008 10.4293 7.19875C10.3782 7.17896 10.3254 7.17566 10.2726 7.17566ZM10.5398 8.29386V8.61712C10.553 8.87275 10.5184 9.16302 10.4194 9.4467C10.4079 9.48133 10.4194 9.48628 10.4508 9.48628C10.5186 9.48557 10.5862 9.48577 10.6537 9.48597C10.7437 9.48624 10.8336 9.48651 10.9241 9.48463C11.2375 9.47803 11.4997 9.24219 11.5277 8.94697C11.5591 8.61877 11.3611 8.33839 11.0428 8.27242C10.9373 8.25042 10.8295 8.25336 10.7219 8.2563C10.6682 8.25776 10.6146 8.25922 10.5613 8.25758C10.5377 8.25619 10.5386 8.27112 10.5395 8.28571C10.5396 8.28848 10.5398 8.29123 10.5398 8.29386Z" fill="#E52129"/>
</svg>
