<svg width="512" height="512" viewBox="0 0 512 512" fill="none" xmlns="http://www.w3.org/2000/svg">
<g clip-path="url(#clip0_1_107)">
<rect width="512" height="512" rx="256" fill="#FFE6E6"/>
<path d="M53.0725 212.943C55.7641 217.165 58.2446 221.282 60.989 225.24C110.493 296.858 176.675 345.254 260.801 368.581C277.69 373.278 294.842 376.392 312.259 378.45C335.005 381.195 357.805 381.775 380.604 380.614C409.526 379.136 438.078 374.861 466.261 368.264C466.419 368.212 466.577 368.264 466.841 368.423C464.994 369.214 463.2 370.059 461.353 370.85C459.505 371.642 457.605 372.434 455.758 373.173C428.578 384.045 400.501 391.803 371.579 396.553C349.361 400.194 327.036 401.883 304.553 401.039C229.241 398.4 165.856 369.9 115.402 313.535C91.5467 286.883 73.1276 256.748 58.0335 224.449C56.3447 220.807 54.7614 217.165 53.1253 213.524C53.0725 213.471 53.0725 213.313 53.0725 212.943Z" fill="#1D1819"/>
<path d="M313.052 61C308.408 64.8527 303.869 68.8637 299.911 73.4025C293.578 80.7384 289.144 88.9715 287.719 98.6296C286.453 107.179 287.456 115.571 289.725 123.857C292.522 134.043 296.955 143.542 301.969 152.831C305.241 158.953 307.933 165.286 309.041 172.147C311.099 184.866 306.666 194.736 296.005 201.86C288.564 206.821 280.225 209.302 271.517 210.78C270.25 210.991 268.984 211.149 267.506 211.307C267.823 210.991 267.981 210.832 268.139 210.727C279.222 202.916 283.128 192.044 279.486 178.955C277.797 172.886 275.106 167.292 271.411 162.172C264.814 152.937 259.22 143.173 256.317 132.09C251.462 113.301 256.528 97.363 270.409 84.0633C280.014 74.8274 291.519 68.7054 303.816 63.9027C306.825 62.7416 309.886 61.7389 313.052 61Z" fill="#1D1819"/>
<path d="M252.148 211.73C253.678 209.355 254.892 206.874 255.314 204.024C256.053 199.538 254.892 195.527 252.464 191.833C250.3 188.455 247.556 185.658 244.284 183.389C239.64 180.117 235.259 176.581 231.67 172.147C226.868 166.289 223.807 159.745 224.018 152.04C224.123 148.24 225.02 144.545 226.551 141.062C230.931 130.929 238.478 123.487 247.292 117.049C246.606 118.263 245.92 119.424 245.234 120.638C237.423 134.201 238.531 147.079 248.084 159.376C251.673 164.02 255.842 168.189 260.17 172.147C263.283 174.997 266.081 178.217 267.981 182.017C271.094 188.191 270.778 194.208 266.872 199.908C263.125 205.291 257.953 208.88 252.148 211.73Z" fill="#1D1819"/>
<path d="M46.4263 242.129C53.0761 259.862 61.8898 276.434 72.3923 292.161C109.6 347.84 160.37 385.312 224.124 405.419C224.599 405.578 225.022 405.736 225.497 406C222.858 405.894 220.272 405.314 217.686 404.733C177.523 395.603 141.793 377.712 111.183 349.951C83.2114 324.619 63.6842 293.691 51.0706 258.226C49.2234 253.001 47.4818 247.776 46.0568 242.445C46.0041 242.076 46.1624 242.023 46.4263 242.129Z" fill="#1D1819"/>
<path d="M46.425 242.129C46.3194 242.234 46.2139 242.34 46.1083 242.445C45.4222 241.231 45.3167 239.807 45 238.487C45.6333 239.595 46.1083 240.809 46.425 242.129Z" fill="#1D1819"/>
<path fill-rule="evenodd" clip-rule="evenodd" d="M328.725 229.621H241.261C212.133 229.621 182.952 229.621 153.824 229.727C152.768 229.727 151.713 229.727 150.71 229.885C147.227 230.413 145.59 232.313 145.59 235.796C145.59 251.259 145.59 266.67 145.643 282.081C145.643 289.628 146.857 297.017 148.81 304.3C149.021 305.197 149.496 305.83 150.235 306.358C183.801 331.532 220.744 350.004 261.065 361.72C261.91 361.932 262.649 362.037 263.493 361.879C269.985 360.665 276.371 359.082 282.598 356.971C283.26 356.74 283.924 356.512 284.588 356.284C289.847 354.477 295.111 352.669 299.751 349.529C311.309 341.613 320.175 331.163 327.036 319.024C327.616 317.969 328.25 317.599 329.464 317.599C333.183 317.679 336.872 317.669 340.576 317.659C341.813 317.655 343.052 317.652 344.294 317.652C345.226 317.637 346.154 317.644 347.078 317.651C349.294 317.669 351.491 317.686 353.688 317.388C373.215 314.644 385.934 296.225 381.501 277.014C378.387 263.609 366.777 253.318 353.055 251.893C349.824 251.534 346.568 251.59 343.321 251.646C341.795 251.672 340.271 251.698 338.752 251.682C337.591 251.682 337.327 251.365 337.327 250.204C337.363 246.969 337.351 243.757 337.339 240.538C337.333 238.925 337.327 237.311 337.327 235.69C337.327 233.051 336.219 231.363 333.739 230.36C332.103 229.727 330.414 229.621 328.725 229.621ZM337.275 265.403V275.748C337.697 283.928 336.589 293.217 333.422 302.294C333.052 303.402 333.422 303.561 334.425 303.561C336.596 303.538 338.758 303.545 340.919 303.551C343.799 303.56 346.677 303.568 349.572 303.508C359.599 303.297 367.99 295.75 368.888 286.303C369.89 275.8 363.557 266.828 353.371 264.717C349.993 264.013 346.544 264.108 343.103 264.201C341.383 264.248 339.666 264.295 337.961 264.242C337.206 264.198 337.235 264.676 337.264 265.143C337.269 265.231 337.275 265.319 337.275 265.403Z" fill="#E52129"/>
</g>
<defs>
<clipPath id="clip0_1_107">
<rect width="512" height="512" fill="white"/>
</clipPath>
</defs>
</svg>
