<svg width="300" height="200" viewBox="0 0 300 200" fill="none" xmlns="http://www.w3.org/2000/svg">
<g clip-path="url(#clip0_722_2)">
<path d="M0 0H300V200H0V0Z" fill="#FFE5E5"/>
<g filter="url(#filter0_d_722_2)">
<rect x="82" y="32" width="136" height="136" rx="68" fill="#201A26"/>
</g>
<path d="M99.4189 90.6057C100.086 91.6528 100.702 92.6737 101.382 93.6553C113.659 111.416 130.072 123.418 150.935 129.203C155.123 130.368 159.377 131.14 163.696 131.651C169.337 132.332 174.992 132.475 180.646 132.188C187.818 131.821 194.899 130.761 201.888 129.125C201.928 129.112 201.967 129.125 202.032 129.164C201.574 129.36 201.129 129.57 200.671 129.766C200.213 129.963 199.742 130.159 199.284 130.342C192.543 133.038 185.58 134.962 178.408 136.14C172.897 137.043 167.361 137.462 161.785 137.253C143.108 136.598 127.389 129.531 114.876 115.552C108.96 108.943 104.393 101.469 100.649 93.459C100.23 92.5559 99.8377 91.6528 99.432 90.7497C99.4189 90.7366 99.4189 90.6973 99.4189 90.6057Z" fill="#FFE5E5"/>
<path d="M163.893 52.9248C162.741 53.8803 161.616 54.875 160.634 56.0006C159.064 57.8199 157.964 59.8617 157.611 62.2568C157.297 64.3772 157.545 66.4582 158.108 68.5131C158.802 71.0392 159.901 73.3951 161.145 75.6986C161.956 77.2169 162.624 78.7875 162.898 80.489C163.409 83.6433 162.309 86.0908 159.666 87.8578C157.82 89.0881 155.752 89.7032 153.593 90.0697C153.278 90.122 152.964 90.1613 152.598 90.2006C152.676 90.122 152.716 90.0828 152.755 90.0566C155.503 88.1195 156.472 85.4233 155.569 82.1774C155.15 80.6722 154.483 79.2848 153.566 78.0153C151.93 75.7248 150.543 73.3034 149.823 70.5549C148.619 65.8954 149.875 61.9427 153.318 58.6444C155.7 56.354 158.553 54.8357 161.603 53.6447C162.349 53.3567 163.108 53.108 163.893 52.9248Z" fill="#FFE5E5"/>
<path d="M148.789 90.3029C149.169 89.7139 149.47 89.0988 149.574 88.392C149.758 87.2795 149.47 86.2847 148.867 85.3686C148.331 84.5309 147.65 83.8372 146.839 83.2744C145.687 82.4629 144.601 81.586 143.711 80.4866C142.52 79.0338 141.76 77.4108 141.813 75.4999C141.839 74.5575 142.062 73.6413 142.441 72.7775C143.527 70.2645 145.399 68.4191 147.585 66.8223C147.415 67.1233 147.245 67.4112 147.074 67.7123C145.137 71.076 145.412 74.2696 147.781 77.3192C148.671 78.471 149.705 79.5049 150.778 80.4866C151.551 81.1933 152.244 81.9917 152.715 82.9341C153.488 84.4655 153.409 85.9575 152.441 87.3711C151.511 88.7061 150.229 89.5961 148.789 90.3029Z" fill="#FFE5E5"/>
<path d="M97.7708 97.8401C99.4199 102.238 101.606 106.348 104.21 110.248C113.438 124.056 126.029 133.349 141.839 138.336C141.957 138.375 142.062 138.414 142.18 138.48C141.525 138.453 140.884 138.31 140.243 138.166C130.282 135.901 121.421 131.464 113.83 124.58C106.893 118.297 102.051 110.628 98.9226 101.832C98.4645 100.536 98.0325 99.2406 97.6792 97.9187C97.6661 97.8271 97.7053 97.814 97.7708 97.8401Z" fill="#FFE5E5"/>
<path d="M97.7704 97.8401C97.7443 97.8663 97.7181 97.8925 97.6919 97.9186C97.5218 97.6176 97.4956 97.2642 97.4171 96.937C97.5741 97.2119 97.6919 97.5129 97.7704 97.8401Z" fill="#FFE5E5"/>
<path fill-rule="evenodd" clip-rule="evenodd" d="M167.78 94.7385H146.089C138.865 94.7385 131.629 94.7385 124.405 94.7647C124.143 94.7647 123.881 94.7647 123.633 94.804C122.769 94.9349 122.363 95.406 122.363 96.2699C122.363 100.105 122.363 103.927 122.376 107.748C122.376 109.62 122.677 111.452 123.162 113.259C123.214 113.481 123.332 113.638 123.515 113.769C131.839 120.012 141.001 124.593 151.001 127.499C151.21 127.551 151.393 127.577 151.603 127.538C153.213 127.237 154.796 126.844 156.341 126.321C156.505 126.264 156.669 126.207 156.834 126.151C158.138 125.702 159.444 125.254 160.594 124.475C163.461 122.512 165.66 119.921 167.361 116.91C167.505 116.649 167.662 116.557 167.963 116.557C168.885 116.577 169.8 116.574 170.719 116.572C171.026 116.571 171.333 116.57 171.641 116.57C171.872 116.566 172.102 116.568 172.332 116.57C172.881 116.574 173.426 116.578 173.971 116.505C178.813 115.824 181.968 111.256 180.868 106.492C180.096 103.167 177.217 100.615 173.814 100.262C173.012 100.173 172.205 100.187 171.4 100.201C171.021 100.207 170.643 100.214 170.267 100.209C169.979 100.209 169.913 100.131 169.913 99.843C169.922 99.0407 169.919 98.2443 169.916 97.4459C169.915 97.046 169.913 96.6456 169.913 96.2437C169.913 95.5893 169.638 95.1704 169.023 94.9218C168.618 94.7647 168.199 94.7385 167.78 94.7385ZM169.9 103.612V106.178C170.005 108.206 169.73 110.51 168.945 112.761C168.853 113.036 168.945 113.075 169.193 113.075C169.732 113.07 170.268 113.071 170.804 113.073C171.518 113.075 172.232 113.077 172.95 113.062C175.437 113.01 177.518 111.138 177.74 108.795C177.989 106.191 176.418 103.966 173.892 103.442C173.054 103.268 172.199 103.291 171.346 103.314C170.919 103.326 170.493 103.338 170.07 103.325C169.883 103.314 169.891 103.432 169.898 103.548C169.899 103.57 169.9 103.592 169.9 103.612Z" fill="#E52129"/>
</g>
<defs>
<filter id="filter0_d_722_2" x="82" y="32" width="147" height="150" filterUnits="userSpaceOnUse" color-interpolation-filters="sRGB">
<feFlood flood-opacity="0" result="BackgroundImageFix"/>
<feColorMatrix in="SourceAlpha" type="matrix" values="0 0 0 0 0 0 0 0 0 0 0 0 0 0 0 0 0 0 127 0" result="hardAlpha"/>
<feOffset dx="7" dy="10"/>
<feGaussianBlur stdDeviation="2"/>
<feComposite in2="hardAlpha" operator="out"/>
<feColorMatrix type="matrix" values="0 0 0 0 0 0 0 0 0 0 0 0 0 0 0 0 0 0 0.25 0"/>
<feBlend mode="normal" in2="BackgroundImageFix" result="effect1_dropShadow_722_2"/>
<feBlend mode="normal" in="SourceGraphic" in2="effect1_dropShadow_722_2" result="shape"/>
</filter>
<clipPath id="clip0_722_2">
<rect width="300" height="200" fill="white"/>
</clipPath>
</defs>
</svg>
