<svg width="300" height="200" viewBox="0 0 300 200" fill="none" xmlns="http://www.w3.org/2000/svg">
<g clip-path="url(#clip0_632_130)">
<path d="M0 0H300V200H0V0Z" fill="#FFE5E5"/>
<path d="M90.3765 93.7295C91.1689 94.9724 91.8991 96.1842 92.707 97.3495C107.28 118.432 126.763 132.679 151.528 139.546C156.499 140.929 161.549 141.846 166.676 142.451C173.372 143.259 180.084 143.43 186.795 143.088C195.309 142.653 203.715 141.395 212.011 139.453C212.058 139.437 212.104 139.453 212.182 139.5C211.638 139.733 211.11 139.981 210.566 140.214C210.022 140.447 209.463 140.68 208.919 140.898C200.918 144.098 192.653 146.382 184.139 147.78C177.598 148.852 171.026 149.35 164.407 149.101C142.237 148.324 123.578 139.935 108.725 123.342C101.703 115.496 96.2803 106.625 91.8369 97.1164C91.3398 96.0444 90.8737 94.9724 90.392 93.9004C90.3765 93.8849 90.3765 93.8382 90.3765 93.7295Z" fill="#1D1819"/>
<path d="M166.909 49C165.542 50.1342 164.206 51.3149 163.041 52.651C161.176 54.8106 159.871 57.2343 159.452 60.0774C159.079 62.5943 159.374 65.0646 160.042 67.5038C160.866 70.5023 162.171 73.2988 163.647 76.0332C164.61 77.8355 165.402 79.6998 165.728 81.7195C166.334 85.4638 165.029 88.3691 161.891 90.4665C159.7 91.9269 157.246 92.6571 154.682 93.0922C154.309 93.1543 153.936 93.2009 153.501 93.2475C153.595 93.1543 153.641 93.1077 153.688 93.0766C156.95 90.7772 158.1 87.5768 157.028 83.7237C156.531 81.9371 155.739 80.2902 154.651 78.7832C152.709 76.0643 151.062 73.1901 150.208 69.9275C148.778 64.3965 150.27 59.7045 154.356 55.7894C157.183 53.0705 160.57 51.2683 164.19 49.8545C165.076 49.5127 165.977 49.2175 166.909 49Z" fill="#1D1819"/>
<path d="M148.98 93.371C149.431 92.6719 149.788 91.9417 149.912 91.1027C150.13 89.7821 149.788 88.6013 149.073 87.5138C148.436 86.5195 147.628 85.696 146.665 85.028C145.298 84.0647 144.008 83.0238 142.952 81.7187C141.538 79.9942 140.637 78.0677 140.699 75.7994C140.73 74.6808 140.994 73.5932 141.445 72.5678C142.734 69.5848 144.956 67.3942 147.551 65.4988C147.349 65.8561 147.147 66.1979 146.945 66.5553C144.645 70.5481 144.972 74.339 147.784 77.9589C148.84 79.3261 150.068 80.5535 151.342 81.7187C152.258 82.5577 153.082 83.5054 153.641 84.624C154.558 86.4418 154.464 88.2129 153.315 89.8909C152.212 91.4756 150.689 92.532 148.98 93.371Z" fill="#1D1819"/>
<path d="M88.4199 102.32C90.3774 107.54 92.972 112.418 96.0637 117.048C107.017 133.439 121.963 144.47 140.731 150.389C140.87 150.436 140.995 150.483 141.135 150.56C140.358 150.529 139.597 150.358 138.835 150.187C127.012 147.5 116.494 142.233 107.483 134.061C99.2487 126.603 93.5002 117.499 89.7871 107.058C89.2433 105.52 88.7306 103.982 88.3111 102.413C88.2956 102.304 88.3422 102.289 88.4199 102.32Z" fill="#1D1819"/>
<path d="M88.4195 102.32C88.3884 102.351 88.3573 102.382 88.3263 102.413C88.1243 102.056 88.0932 101.636 88 101.248C88.1864 101.574 88.3263 101.931 88.4195 102.32Z" fill="#1D1819"/>
<path fill-rule="evenodd" clip-rule="evenodd" d="M171.523 98.6394H145.775C137.2 98.6394 128.61 98.6394 120.035 98.6705C119.725 98.6705 119.414 98.6705 119.119 98.7171C118.093 98.8724 117.612 99.4318 117.612 100.457C117.612 105.009 117.612 109.546 117.627 114.083C117.627 116.304 117.985 118.479 118.559 120.623C118.622 120.887 118.761 121.074 118.979 121.229C128.86 128.64 139.735 134.078 151.605 137.527C151.854 137.589 152.071 137.62 152.32 137.573C154.231 137.216 156.111 136.75 157.944 136.129C158.139 136.061 158.334 135.994 158.53 135.926C160.078 135.395 161.628 134.862 162.993 133.938C166.396 131.608 169.006 128.531 171.026 124.958C171.197 124.647 171.383 124.538 171.74 124.538C172.835 124.562 173.921 124.559 175.012 124.556C175.376 124.555 175.74 124.554 176.106 124.554C176.381 124.549 176.654 124.552 176.926 124.554C177.578 124.559 178.225 124.564 178.872 124.476C184.62 123.668 188.364 118.246 187.059 112.591C186.143 108.645 182.725 105.615 178.685 105.196C177.734 105.09 176.776 105.107 175.82 105.123C175.371 105.131 174.922 105.139 174.475 105.134C174.133 105.134 174.055 105.04 174.055 104.699C174.066 103.746 174.062 102.801 174.059 101.853C174.057 101.378 174.055 100.903 174.055 100.426C174.055 99.6493 173.729 99.1521 172.999 98.8569C172.517 98.6705 172.02 98.6394 171.523 98.6394ZM174.04 109.173V112.218C174.164 114.626 173.838 117.361 172.906 120.033C172.797 120.359 172.906 120.406 173.201 120.406C173.84 120.399 174.477 120.401 175.113 120.403C175.96 120.406 176.808 120.408 177.66 120.39C180.612 120.328 183.082 118.106 183.346 115.325C183.641 112.234 181.777 109.593 178.778 108.971C177.784 108.764 176.768 108.792 175.755 108.819C175.249 108.833 174.744 108.847 174.242 108.831C174.02 108.818 174.028 108.959 174.037 109.096C174.038 109.122 174.04 109.148 174.04 109.173Z" fill="#E52129"/>
</g>
<defs>
<clipPath id="clip0_632_130">
<rect width="300" height="200" fill="#FFE5E5"/>
</clipPath>
</defs>
</svg>
