<svg width="300" height="200" viewBox="0 0 300 200" fill="none" xmlns="http://www.w3.org/2000/svg">
<g clip-path="url(#clip0_722_10)">
<path d="M0 0H300V200H0V0Z" fill="#FFE5E5"/>
<g filter="url(#filter0_d_722_10)">
<rect x="82" y="32" width="136" height="136" rx="26" fill="#201A26"/>
</g>
<path d="M96.0974 94.408C96.8123 95.5295 97.4712 96.6229 98.2002 97.6743C111.35 116.698 128.929 129.553 151.275 135.749C155.761 136.997 160.317 137.824 164.944 138.371C170.986 139.1 177.042 139.254 183.098 138.946C190.78 138.553 198.365 137.417 205.851 135.665C205.893 135.651 205.935 135.665 206.005 135.707C205.514 135.917 205.037 136.142 204.547 136.352C204.056 136.562 203.551 136.773 203.061 136.969C195.841 139.857 188.383 141.917 180.701 143.179C174.799 144.146 168.869 144.595 162.897 144.371C142.892 143.67 126.056 136.1 112.654 121.128C106.317 114.048 101.425 106.044 97.4151 97.464C96.9665 96.4968 96.546 95.5295 96.1114 94.5622C96.0974 94.5481 96.0974 94.5061 96.0974 94.408Z" fill="#FFE5E5"/>
<path d="M165.154 54.0469C163.921 55.0702 162.715 56.1357 161.664 57.3413C159.982 59.2899 158.804 61.4768 158.425 64.0422C158.089 66.3133 158.355 68.5423 158.958 70.7432C159.701 73.4488 160.879 75.9722 162.211 78.4395C163.08 80.0657 163.795 81.7479 164.089 83.5704C164.636 86.9489 163.458 89.5704 160.626 91.4629C158.65 92.7807 156.435 93.4395 154.122 93.8321C153.785 93.8881 153.449 93.9302 153.056 93.9723C153.14 93.8881 153.182 93.8461 153.225 93.8181C156.168 91.7433 157.206 88.8554 156.239 85.3788C155.79 83.7666 155.075 82.2806 154.094 80.9208C152.341 78.4675 150.855 75.8741 150.084 72.9301C148.795 67.9395 150.14 63.7058 153.827 60.1731C156.379 57.7198 159.435 56.0936 162.701 54.8179C163.5 54.5095 164.313 54.2431 165.154 54.0469Z" fill="#FFE5E5"/>
<path d="M148.977 94.0837C149.383 93.4529 149.706 92.794 149.818 92.037C150.014 90.8454 149.706 89.78 149.061 88.7987C148.486 87.9015 147.757 87.1585 146.888 86.5557C145.654 85.6865 144.491 84.7472 143.537 83.5697C142.262 82.0136 141.449 80.2753 141.505 78.2285C141.533 77.2192 141.771 76.2379 142.178 75.3126C143.341 72.621 145.346 70.6444 147.687 68.9341C147.505 69.2565 147.322 69.5649 147.14 69.8874C145.065 73.4902 145.36 76.9108 147.897 80.1771C148.851 81.4108 149.958 82.5183 151.108 83.5697C151.935 84.3267 152.678 85.1818 153.182 86.1912C154.009 87.8314 153.925 89.4295 152.888 90.9435C151.893 92.3734 150.519 93.3267 148.977 94.0837Z" fill="#FFE5E5"/>
<path d="M94.332 102.159C96.0983 106.869 98.4395 111.271 101.229 115.449C111.112 130.239 124.598 140.192 141.533 145.533C141.659 145.575 141.771 145.617 141.898 145.687C141.197 145.659 140.51 145.505 139.823 145.351C129.154 142.926 119.664 138.173 111.533 130.799C104.103 124.07 98.9161 115.855 95.5656 106.435C95.075 105.047 94.6124 103.659 94.2339 102.243C94.2198 102.145 94.2619 102.131 94.332 102.159Z" fill="#FFE5E5"/>
<path d="M94.3316 102.159C94.3036 102.187 94.2756 102.215 94.2475 102.243C94.0653 101.921 94.0372 101.542 93.9531 101.192C94.1214 101.486 94.2475 101.808 94.3316 102.159Z" fill="#FFE5E5"/>
<path fill-rule="evenodd" clip-rule="evenodd" d="M169.318 98.8359H146.085C138.348 98.8359 130.597 98.8359 122.859 98.864C122.579 98.864 122.299 98.864 122.032 98.906C121.107 99.0462 120.672 99.5509 120.672 100.476C120.672 104.584 120.672 108.677 120.687 112.771C120.687 114.775 121.009 116.738 121.528 118.672C121.584 118.911 121.71 119.079 121.906 119.219C130.822 125.906 140.635 130.813 151.346 133.925C151.57 133.981 151.766 134.009 151.99 133.967C153.715 133.644 155.411 133.224 157.065 132.663C157.241 132.602 157.417 132.541 157.594 132.481C158.991 132.001 160.389 131.521 161.621 130.687C164.691 128.584 167.047 125.808 168.869 122.584C169.023 122.303 169.191 122.205 169.514 122.205C170.502 122.226 171.482 122.224 172.465 122.221C172.794 122.22 173.123 122.219 173.453 122.219C173.701 122.215 173.947 122.217 174.193 122.219C174.781 122.224 175.365 122.228 175.948 122.149C181.135 121.42 184.514 116.528 183.336 111.425C182.509 107.864 179.425 105.13 175.78 104.752C174.922 104.656 174.057 104.671 173.195 104.686C172.789 104.693 172.385 104.7 171.981 104.696C171.673 104.696 171.603 104.612 171.603 104.303C171.612 103.444 171.609 102.591 171.606 101.736C171.604 101.307 171.603 100.879 171.603 100.448C171.603 99.7472 171.308 99.2986 170.649 99.0322C170.215 98.864 169.766 98.8359 169.318 98.8359ZM171.589 108.341V111.088C171.701 113.261 171.406 115.729 170.565 118.14C170.467 118.434 170.565 118.476 170.832 118.476C171.408 118.47 171.983 118.472 172.557 118.474C173.322 118.476 174.086 118.478 174.855 118.462C177.519 118.406 179.748 116.401 179.986 113.892C180.252 111.102 178.57 108.719 175.864 108.158C174.967 107.971 174.051 107.996 173.137 108.021C172.68 108.034 172.224 108.046 171.771 108.032C171.57 108.02 171.578 108.147 171.586 108.271C171.587 108.295 171.589 108.318 171.589 108.341Z" fill="#E52129"/>
</g>
<defs>
<filter id="filter0_d_722_10" x="82" y="32" width="147" height="150" filterUnits="userSpaceOnUse" color-interpolation-filters="sRGB">
<feFlood flood-opacity="0" result="BackgroundImageFix"/>
<feColorMatrix in="SourceAlpha" type="matrix" values="0 0 0 0 0 0 0 0 0 0 0 0 0 0 0 0 0 0 127 0" result="hardAlpha"/>
<feOffset dx="7" dy="10"/>
<feGaussianBlur stdDeviation="2"/>
<feComposite in2="hardAlpha" operator="out"/>
<feColorMatrix type="matrix" values="0 0 0 0 0 0 0 0 0 0 0 0 0 0 0 0 0 0 0.25 0"/>
<feBlend mode="normal" in2="BackgroundImageFix" result="effect1_dropShadow_722_10"/>
<feBlend mode="normal" in="SourceGraphic" in2="effect1_dropShadow_722_10" result="shape"/>
</filter>
<clipPath id="clip0_722_10">
<rect width="300" height="200" fill="white"/>
</clipPath>
</defs>
</svg>
