<svg width="300" height="200" viewBox="0 0 300 200" fill="none" xmlns="http://www.w3.org/2000/svg">
<g clip-path="url(#clip0_632_71)">
<path d="M0 0H300V200H0V0Z" fill="#FFE5E5"/>
<path d="M106.566 81.2617C107.142 82.1657 107.673 83.0471 108.261 83.8946C118.86 99.2287 133.03 109.591 151.042 114.585C154.658 115.591 158.331 116.258 162.06 116.698C166.93 117.286 171.812 117.41 176.693 117.162C182.886 116.845 188.999 115.93 195.033 114.518C195.067 114.506 195.101 114.518 195.158 114.551C194.762 114.721 194.378 114.902 193.982 115.071C193.587 115.241 193.18 115.41 192.785 115.568C186.965 117.896 180.953 119.557 174.761 120.574C170.004 121.354 165.224 121.716 160.41 121.535C144.285 120.97 130.714 114.868 119.911 102.8C114.803 97.093 110.86 90.6407 107.628 83.7251C107.266 82.9454 106.927 82.1657 106.577 81.386C106.566 81.3747 106.566 81.3408 106.566 81.2617Z" fill="#1D1819"/>
<path d="M162.229 48.729C161.235 49.5539 160.263 50.4127 159.416 51.3845C158.06 52.9552 157.111 54.718 156.805 56.7859C156.534 58.6165 156.749 60.4132 157.235 62.1873C157.834 64.3682 158.783 66.4022 159.856 68.391C160.557 69.7018 161.133 71.0578 161.371 72.5268C161.811 75.2501 160.862 77.3632 158.58 78.8887C156.986 79.9509 155.201 80.482 153.336 80.7984C153.065 80.8436 152.794 80.8775 152.478 80.9114C152.545 80.8436 152.579 80.8097 152.613 80.7871C154.986 79.1147 155.822 76.7869 155.043 73.9845C154.681 72.685 154.105 71.4872 153.314 70.3911C151.901 68.4136 150.703 66.3231 150.082 63.9501C149.042 59.9273 150.127 56.5147 153.099 53.6671C155.156 51.6896 157.619 50.3788 160.252 49.3505C160.896 49.1019 161.551 48.8872 162.229 48.729Z" fill="#1D1819"/>
<path d="M149.189 81.0019C149.517 80.4934 149.777 79.9623 149.867 79.3521C150.025 78.3916 149.777 77.5328 149.257 76.7418C148.794 76.0186 148.206 75.4197 147.506 74.9338C146.511 74.2332 145.573 73.4761 144.805 72.5269C143.777 71.2726 143.121 69.8714 143.166 68.2216C143.189 67.408 143.381 66.617 143.709 65.8712C144.647 63.7016 146.263 62.1083 148.15 60.7297C148.003 60.9896 147.856 61.2382 147.709 61.4981C146.037 64.4022 146.274 67.1594 148.319 69.7923C149.088 70.7867 149.98 71.6794 150.907 72.5269C151.574 73.1371 152.172 73.8264 152.579 74.64C153.246 75.9621 153.178 77.2503 152.342 78.4707C151.54 79.6233 150.432 80.3917 149.189 81.0019Z" fill="#1D1819"/>
<path d="M105.142 87.5107C106.566 91.3075 108.453 94.8557 110.701 98.223C118.668 110.145 129.538 118.168 143.189 122.473C143.291 122.507 143.381 122.541 143.483 122.597C142.918 122.575 142.364 122.45 141.81 122.326C133.211 120.371 125.561 116.54 119.007 110.597C113.018 105.173 108.837 98.5507 106.136 90.9572C105.741 89.8385 105.368 88.7198 105.063 87.5785C105.051 87.4994 105.085 87.4881 105.142 87.5107Z" fill="#1D1819"/>
<path d="M105.142 87.5107C105.119 87.5333 105.097 87.5559 105.074 87.5785C104.927 87.3186 104.904 87.0135 104.837 86.731C104.972 86.9683 105.074 87.2282 105.142 87.5107Z" fill="#1D1819"/>
<path fill-rule="evenodd" clip-rule="evenodd" d="M165.585 84.8325H146.859C140.622 84.8325 134.374 84.8325 128.137 84.8551C127.911 84.8551 127.685 84.8551 127.471 84.889C126.725 85.002 126.375 85.4088 126.375 86.1546C126.375 89.4655 126.375 92.7651 126.386 96.0647C126.386 97.6806 126.646 99.2626 127.064 100.822C127.109 101.014 127.211 101.15 127.369 101.263C134.556 106.653 142.466 110.608 151.099 113.116C151.28 113.162 151.438 113.184 151.619 113.15C153.009 112.89 154.376 112.551 155.709 112.099C155.851 112.05 155.993 112.001 156.135 111.952C157.261 111.566 158.388 111.178 159.382 110.506C161.857 108.811 163.755 106.574 165.224 103.975C165.348 103.749 165.484 103.67 165.744 103.67C166.54 103.687 167.33 103.684 168.123 103.682C168.388 103.682 168.653 103.681 168.919 103.681C169.119 103.678 169.317 103.679 169.515 103.681C169.99 103.684 170.46 103.688 170.93 103.624C175.111 103.037 177.835 99.0931 176.885 94.9799C176.219 92.1097 173.733 89.9062 170.795 89.6011C170.103 89.5243 169.406 89.5363 168.711 89.5483C168.384 89.5539 168.058 89.5595 167.732 89.5559C167.484 89.5559 167.427 89.4881 167.427 89.2395C167.435 88.5469 167.432 87.8592 167.43 87.1699C167.429 86.8247 167.427 86.479 167.427 86.132C167.427 85.567 167.19 85.2054 166.659 84.9907C166.309 84.8551 165.947 84.8325 165.585 84.8325ZM167.416 92.4939V94.7087C167.506 96.4602 167.269 98.449 166.591 100.393C166.512 100.63 166.591 100.664 166.806 100.664C167.271 100.659 167.734 100.66 168.196 100.662C168.813 100.664 169.429 100.665 170.049 100.653C172.196 100.607 173.993 98.9914 174.185 96.9687C174.399 94.72 173.043 92.799 170.863 92.347C170.139 92.1963 169.401 92.2165 168.664 92.2365C168.296 92.2466 167.928 92.2566 167.563 92.2453C167.401 92.2358 167.408 92.3381 167.414 92.4381C167.415 92.4571 167.416 92.4759 167.416 92.4939Z" fill="#E52129"/>
<path d="M101.209 125.501C102 125.49 102.78 125.501 103.571 125.479C103.797 125.479 103.808 125.58 103.808 125.761C103.808 126.97 103.808 128.179 103.808 129.388C103.808 130.541 103.808 131.694 103.808 132.88C103.955 132.812 104 132.688 104.057 132.598C105.605 130.315 107.153 128.032 108.69 125.738C108.814 125.558 108.939 125.467 109.165 125.479C109.91 125.501 110.668 125.49 111.425 125.49C111.436 125.671 111.312 125.761 111.244 125.863C109.978 127.727 108.724 129.603 107.447 131.456C107.278 131.705 107.255 131.874 107.436 132.134C108.837 134.27 110.227 136.417 111.628 138.564C111.696 138.666 111.752 138.756 111.843 138.914C111.187 138.914 110.588 138.914 109.99 138.914C109.594 138.914 109.119 139.027 108.814 138.858C108.521 138.7 108.385 138.236 108.182 137.909C107.357 136.586 106.532 135.264 105.695 133.942C105.684 133.92 105.662 133.908 105.616 133.863C105.153 134.485 104.712 135.106 104.226 135.705C103.91 136.089 103.763 136.485 103.797 136.982C103.842 137.536 103.797 138.089 103.808 138.643C103.82 138.858 103.752 138.926 103.537 138.926C102.757 138.914 101.989 138.926 101.209 138.926C101.209 134.439 101.209 129.976 101.209 125.501Z" fill="#1D1819"/>
<path d="M171.462 132.372C171.202 133.185 170.976 133.908 170.75 134.632C170.332 135.965 169.902 137.287 169.495 138.62C169.428 138.835 169.348 138.914 169.111 138.914C168.614 138.892 168.128 138.903 167.631 138.914C167.45 138.914 167.371 138.88 167.314 138.688C166.365 135.253 165.405 131.829 164.433 128.394C164.365 128.157 164.444 128.145 164.636 128.145C165.28 128.157 165.925 128.168 166.58 128.134C166.919 128.111 167.009 128.247 167.077 128.541C167.54 130.631 168.015 132.722 168.49 134.824C168.501 134.891 168.524 134.948 168.569 135.106C168.908 133.908 169.224 132.812 169.541 131.716C169.778 130.891 170.015 130.066 170.241 129.253C170.309 129.015 170.399 128.789 170.558 128.586C171.066 127.942 172.049 128.01 172.445 128.733C172.806 129.411 172.931 130.179 173.145 130.903C173.529 132.191 173.891 133.49 174.264 134.79C174.287 134.88 174.287 134.982 174.388 135.05C174.885 132.846 175.394 130.643 175.88 128.439C175.936 128.202 176.027 128.145 176.253 128.145C176.908 128.157 177.564 128.157 178.23 128.145C178.456 128.145 178.535 128.157 178.456 128.428C177.496 131.829 176.558 135.242 175.609 138.654C175.563 138.835 175.496 138.926 175.281 138.914C174.772 138.892 174.275 138.892 173.767 138.914C173.552 138.926 173.484 138.835 173.428 138.654C172.784 136.598 172.14 134.541 171.462 132.372Z" fill="#1D1819"/>
<path d="M147.415 133.581C148.274 132.292 149.144 131.016 150.003 129.727C150.218 129.411 150.432 129.083 150.647 128.767C150.726 128.654 150.805 128.586 150.952 128.586C151.788 128.597 152.613 128.586 153.449 128.586C153.495 128.733 153.382 128.789 153.325 128.869C152.297 130.281 151.268 131.694 150.229 133.106C150.059 133.332 150.048 133.468 150.229 133.705C151.472 135.31 152.692 136.937 153.913 138.553C153.992 138.654 154.06 138.756 154.173 138.903C153.189 138.903 152.263 138.903 151.325 138.903C151.178 138.903 151.144 138.767 151.076 138.677C150.263 137.592 149.46 136.507 148.658 135.434C148.579 135.332 148.5 135.23 148.41 135.106C148.059 135.603 147.732 136.078 147.393 136.553C147.313 136.666 147.336 136.779 147.336 136.892C147.336 137.468 147.325 138.044 147.336 138.62C147.347 138.846 147.291 138.926 147.054 138.914C146.432 138.892 145.811 138.892 145.189 138.914C144.94 138.926 144.884 138.846 144.884 138.598C144.895 135.795 144.884 132.982 144.884 130.179C144.884 128.473 144.884 126.778 144.873 125.072C144.873 124.823 144.918 124.721 145.2 124.733C145.765 124.755 146.33 124.755 146.895 124.733C147.234 124.71 147.347 124.789 147.336 125.162C147.313 127.863 147.325 130.564 147.325 133.264C147.325 133.366 147.325 133.468 147.325 133.569C147.37 133.569 147.393 133.581 147.415 133.581Z" fill="#1D1819"/>
<path d="M123.516 133.547C123.516 131.863 123.527 130.191 123.504 128.507C123.504 128.202 123.595 128.123 123.877 128.145C124.25 128.168 124.634 128.168 125.007 128.145C125.245 128.134 125.403 128.191 125.482 128.439C125.561 128.688 125.708 128.902 125.787 129.151C125.866 129.388 125.968 129.422 126.194 129.309C126.928 128.948 127.697 128.643 128.42 128.258C128.985 127.953 129.539 127.998 130.07 128.236C131.267 128.756 131.878 129.716 132.025 130.993C132.092 131.626 132.07 132.259 132.07 132.891C132.07 134.778 132.07 136.677 132.081 138.564C132.081 138.846 132.002 138.914 131.731 138.903C131.154 138.88 130.578 138.88 130.002 138.903C129.708 138.914 129.606 138.858 129.618 138.53C129.64 136.428 129.629 134.326 129.629 132.213C129.629 131.953 129.618 131.694 129.572 131.445C129.426 130.62 128.68 130.213 127.9 130.53C127.358 130.756 126.827 130.993 126.273 131.196C126.036 131.287 125.968 131.411 125.968 131.66C125.979 133.954 125.968 136.247 125.979 138.53C125.979 138.824 125.9 138.903 125.617 138.892C125.041 138.869 124.465 138.869 123.889 138.892C123.606 138.903 123.516 138.835 123.516 138.53C123.527 136.88 123.516 135.219 123.516 133.547Z" fill="#1D1819"/>
<path d="M195.372 133.389C195.372 135.117 195.361 136.846 195.384 138.575C195.384 138.858 195.305 138.926 195.033 138.914C194.389 138.892 193.745 138.892 193.09 138.914C192.819 138.926 192.739 138.846 192.739 138.575C192.751 135.117 192.739 131.671 192.751 128.213C192.751 127.919 192.694 127.818 192.378 127.829C191.406 127.852 190.423 127.829 189.451 127.84C189.214 127.84 189.157 127.772 189.157 127.546C189.169 126.959 189.169 126.371 189.157 125.784C189.157 125.58 189.191 125.501 189.429 125.501C192.536 125.512 195.632 125.512 198.74 125.501C198.921 125.501 198.977 125.546 198.977 125.738C198.966 126.349 198.966 126.959 198.977 127.569C198.977 127.784 198.921 127.852 198.706 127.84C197.711 127.829 196.706 127.852 195.711 127.829C195.418 127.818 195.372 127.919 195.372 128.179C195.372 129.908 195.372 131.648 195.372 133.389Z" fill="#1D1819"/>
<path d="M184.49 132.168C184.49 130.055 184.502 127.942 184.479 125.818C184.479 125.535 184.558 125.467 184.829 125.479C185.496 125.501 186.174 125.49 186.841 125.479C187.056 125.479 187.112 125.535 187.112 125.75C187.101 130.044 187.101 134.326 187.112 138.62C187.112 138.858 187.044 138.914 186.818 138.903C186.152 138.892 185.474 138.88 184.807 138.903C184.547 138.914 184.479 138.846 184.479 138.575C184.502 136.451 184.49 134.304 184.49 132.168Z" fill="#1D1819"/>
<path fill-rule="evenodd" clip-rule="evenodd" d="M139.407 136.899C139.551 136.822 139.697 136.744 139.844 136.666C139.831 136.899 139.819 137.127 139.808 137.35C139.781 137.876 139.756 138.378 139.709 138.869C139.641 139.513 139.29 139.852 138.658 139.976C138.149 140.067 137.652 140.033 137.155 139.897C136.816 139.807 136.567 139.615 136.533 139.231C136.511 139.029 136.4 139.038 136.266 139.05L136.262 139.05C136.115 139.058 135.968 139.068 135.821 139.077C135.381 139.104 134.94 139.132 134.499 139.14C134.217 139.152 134.205 139.265 134.228 139.491C134.352 140.587 134.963 141.321 135.98 141.705C137.234 142.18 138.533 142.225 139.822 141.875C141.234 141.491 142.082 140.44 142.172 138.971C142.206 138.361 142.206 137.75 142.206 137.14C142.211 135.688 142.211 134.233 142.211 132.777C142.211 131.321 142.211 129.863 142.217 128.405C142.217 128.123 142.161 128.044 141.867 128.078C141.527 128.123 141.192 128.138 140.856 128.153C140.689 128.161 140.521 128.168 140.353 128.179C139.718 128.226 139.084 128.221 138.449 128.217C137.852 128.213 137.255 128.209 136.658 128.247C135.155 128.337 134.183 129.128 133.855 130.609C133.516 132.191 133.494 133.784 133.81 135.366C134.149 137.084 135.256 137.999 136.929 138.067C137.132 138.078 137.313 138.033 137.494 137.931C138.115 137.588 138.745 137.252 139.407 136.899ZM139.774 133.106C139.775 132.91 139.776 132.714 139.776 132.518C139.776 132.366 139.776 132.214 139.775 132.061C139.773 131.603 139.771 131.143 139.788 130.677C139.788 130.473 139.731 130.417 139.528 130.417C139.205 130.43 138.882 130.428 138.559 130.426C138.317 130.425 138.075 130.423 137.833 130.428C136.985 130.439 136.477 130.823 136.262 131.626C136.036 132.462 135.991 133.321 136.138 134.18C136.33 135.287 137.369 135.784 138.364 135.264C138.496 135.197 138.628 135.128 138.759 135.058C139.023 134.92 139.287 134.782 139.55 134.654C139.709 134.575 139.776 134.473 139.776 134.281C139.769 133.89 139.771 133.498 139.774 133.106Z" fill="#1D1819"/>
<path fill-rule="evenodd" clip-rule="evenodd" d="M121.527 136.112C121.708 135.287 121.742 134.439 121.775 133.558C121.764 132.846 121.73 132.089 121.583 131.355C121.244 129.558 120.261 128.507 118.578 128.145C117.9 127.998 117.199 128.01 116.51 128.055C114.656 128.191 113.413 129.208 112.984 131.004C112.566 132.744 112.6 134.496 113.007 136.236C113.357 137.694 114.238 138.677 115.73 139.016C116.623 139.219 117.515 139.231 118.419 139.084C120.148 138.813 121.143 137.784 121.527 136.112ZM119.188 135.4C119.335 134.79 119.335 134.168 119.323 133.547C119.335 133.027 119.335 132.507 119.267 131.999C119.188 131.434 119.03 130.914 118.544 130.564C117.402 129.75 115.696 130.281 115.357 131.637C115.029 132.937 115.041 134.27 115.402 135.569C115.673 136.553 116.385 137.005 117.38 136.959C118.352 136.903 118.962 136.394 119.188 135.4Z" fill="#1D1819"/>
<path fill-rule="evenodd" clip-rule="evenodd" d="M163.472 136.134C163.665 135.287 163.698 134.428 163.721 133.524C163.71 132.835 163.687 132.1 163.54 131.377C163.201 129.58 162.241 128.518 160.546 128.157C159.845 127.998 159.122 127.998 158.41 128.066C156.546 128.236 155.382 129.219 154.941 131.038C154.523 132.778 154.545 134.53 154.964 136.27C155.325 137.762 156.252 138.733 157.8 139.05C158.613 139.208 159.427 139.231 160.252 139.106C162.037 138.846 163.066 137.886 163.472 136.134ZM161.145 135.389C161.292 134.778 161.292 134.157 161.28 133.535C161.292 133.038 161.292 132.53 161.224 132.033C161.145 131.456 160.986 130.925 160.489 130.564C159.348 129.739 157.63 130.281 157.303 131.637C156.975 132.937 156.986 134.27 157.348 135.569C157.63 136.541 158.342 137.005 159.337 136.948C160.32 136.892 160.919 136.372 161.145 135.389Z" fill="#1D1819"/>
<path d="M199.791 150.192C199.689 150.192 199.576 150.192 199.474 150.192C198.932 150.192 198.932 150.192 198.774 149.683C198.706 149.65 198.672 149.706 198.638 149.751C198.13 150.294 197.226 150.452 196.57 150.102C196.186 149.898 195.971 149.559 195.926 149.152C195.813 148.124 195.903 147.084 195.881 146.056C195.881 145.932 195.937 145.887 196.05 145.898C196.062 145.898 196.073 145.898 196.084 145.898C197.045 145.819 197.045 145.819 197.045 146.768C197.045 147.344 197.033 147.921 197.045 148.497C197.056 149.051 197.271 149.322 197.689 149.356C198.163 149.39 198.502 149.13 198.593 148.61C198.728 147.83 198.649 147.039 198.649 146.248C198.649 145.954 198.728 145.853 199.022 145.887C199.282 145.921 199.542 145.898 199.791 145.909C199.791 147.322 199.791 148.757 199.791 150.192Z" fill="#1D1819"/>
<path d="M169.009 147.762C169.473 147.186 169.981 146.678 170.445 146.135C170.614 145.943 170.784 145.841 171.043 145.864C171.337 145.887 171.62 145.864 172.004 145.864C171.62 146.293 171.292 146.655 170.964 147.028C170.75 147.265 170.399 147.503 170.388 147.751C170.377 148 170.716 148.26 170.897 148.52C171.292 149.062 171.688 149.593 172.128 150.181C171.676 150.181 171.269 150.181 170.863 150.181C170.727 150.181 170.693 150.068 170.637 149.989C170.343 149.582 170.06 149.164 169.755 148.757C169.676 148.655 169.631 148.418 169.484 148.508C169.303 148.61 169.043 148.7 169.043 149.005C169.043 149.322 169.032 149.638 169.043 149.955C169.055 150.135 169.009 150.192 168.817 150.192C167.868 150.215 167.868 150.226 167.868 149.299C167.868 147.706 167.879 146.101 167.857 144.508C167.857 144.248 167.913 144.169 168.185 144.169C169.043 144.18 169.043 144.169 169.043 145.017C169.032 145.932 169.077 146.836 169.009 147.762Z" fill="#1D1819"/>
<path d="M178.49 146.508C178.999 145.853 179.564 145.728 180.208 145.808C180.852 145.887 181.304 146.282 181.372 146.926C181.485 147.955 181.394 148.994 181.417 150.022C181.417 150.147 181.372 150.192 181.247 150.181C181.225 150.181 181.202 150.181 181.18 150.181C180.242 150.226 180.242 150.226 180.242 149.277C180.242 148.712 180.253 148.147 180.242 147.582C180.23 147.017 180.027 146.745 179.62 146.712C179.1 146.678 178.784 146.915 178.694 147.457C178.558 148.248 178.637 149.051 178.637 149.842C178.637 150.102 178.581 150.203 178.309 150.169C178.038 150.135 177.665 150.294 177.496 150.102C177.36 149.943 177.462 149.582 177.451 149.311C177.451 148.271 177.462 147.22 177.439 146.18C177.439 145.898 177.53 145.853 177.79 145.841C178.219 145.841 178.524 145.887 178.49 146.508Z" fill="#1D1819"/>
<path d="M193.406 146.621C193.756 146.09 194.175 145.774 194.785 145.785C195.011 145.796 195.18 145.819 195.09 146.113C195.09 146.124 195.09 146.135 195.09 146.147C195.079 146.373 195.124 146.632 195.022 146.802C194.909 147.005 194.615 146.847 194.412 146.892C193.824 147.017 193.519 147.356 193.508 147.966C193.497 148.61 193.497 149.254 193.508 149.898C193.508 150.102 193.474 150.181 193.248 150.181C192.333 150.192 192.333 150.192 192.333 149.288C192.333 148.26 192.344 147.22 192.321 146.192C192.321 145.898 192.412 145.841 192.672 145.853C193.203 145.887 193.203 145.864 193.406 146.621Z" fill="#1D1819"/>
<path fill-rule="evenodd" clip-rule="evenodd" d="M182.967 150.195C183.321 150.21 183.67 150.224 183.722 149.683C183.755 149.711 183.782 149.73 183.806 149.747C183.831 149.764 183.851 149.779 183.869 149.796C184.762 150.621 186.027 150.361 186.434 149.22C186.728 148.407 186.728 147.559 186.4 146.745C186.163 146.158 185.733 145.819 185.089 145.785C184.57 145.762 184.14 145.943 183.801 146.418V145.062C183.801 144.589 183.801 144.355 183.684 144.244C183.566 144.132 183.329 144.146 182.852 144.169C182.671 144.18 182.637 144.237 182.637 144.395C182.649 146.248 182.649 148.101 182.637 149.955C182.637 150.147 182.694 150.192 182.875 150.192C182.905 150.193 182.936 150.194 182.967 150.195ZM185.293 148.825C185.417 148.565 185.428 148.282 185.428 148C185.428 147.717 185.417 147.446 185.281 147.175C185.135 146.847 184.886 146.7 184.524 146.723C184.174 146.757 183.948 146.938 183.869 147.265C183.733 147.762 183.745 148.26 183.88 148.757C183.982 149.107 184.219 149.277 184.581 149.299C184.942 149.322 185.157 149.13 185.293 148.825Z" fill="#1D1819"/>
<path fill-rule="evenodd" clip-rule="evenodd" d="M158.4 146.72C158.399 146.932 158.399 147.144 158.399 147.356C158.399 147.482 158.398 147.609 158.398 147.736C158.396 148.245 158.394 148.759 158.421 149.265C158.421 149.35 158.41 149.446 158.398 149.542C158.37 149.779 158.341 150.023 158.478 150.135C158.596 150.232 158.806 150.216 159.023 150.201C159.138 150.193 159.254 150.184 159.359 150.192C159.563 150.203 159.608 150.135 159.608 149.932C159.602 149.683 159.602 149.438 159.602 149.192C159.602 148.946 159.602 148.7 159.597 148.452C159.597 148.237 159.642 148.158 159.868 148.169C160.116 148.181 160.376 148.169 160.636 148.135C161.631 148.022 162.241 147.367 162.275 146.395C162.309 145.367 161.823 144.757 160.76 144.587C160.342 144.525 159.919 144.534 159.497 144.544C159.224 144.549 158.952 144.555 158.681 144.542C158.455 144.531 158.387 144.587 158.387 144.824C158.404 145.451 158.402 146.085 158.4 146.72ZM159.582 146.301C159.583 146.331 159.585 146.368 159.585 146.418C159.611 146.499 159.596 146.604 159.58 146.712C159.555 146.888 159.528 147.074 159.676 147.186C159.868 147.322 160.218 147.22 160.489 147.141C160.919 147.017 161.145 146.61 161.054 146.147C160.953 145.627 160.523 145.389 159.755 145.536C159.519 145.581 159.547 145.755 159.577 145.934C159.593 146.029 159.609 146.125 159.585 146.203C159.578 146.23 159.58 146.257 159.582 146.301Z" fill="#1D1819"/>
<path fill-rule="evenodd" clip-rule="evenodd" d="M188.186 150.192C188.909 150.361 189.564 150.248 190.073 149.582C190.35 150.226 190.355 150.226 190.904 150.183L190.931 150.181C191.09 150.181 191.124 150.124 191.124 149.977C191.124 149.734 191.124 149.491 191.125 149.249C191.127 148.524 191.129 147.804 191.112 147.084C191.09 146.497 190.751 146.056 190.186 145.887C189.395 145.649 188.626 145.74 187.88 146.067C187.866 146.074 187.851 146.079 187.836 146.084C187.766 146.109 187.696 146.133 187.734 146.226C187.758 146.28 187.781 146.336 187.804 146.392C187.878 146.571 187.952 146.752 188.073 146.881C188.158 146.966 188.275 146.903 188.391 146.84C188.444 146.811 188.497 146.782 188.547 146.768C188.852 146.678 189.169 146.61 189.485 146.655C189.813 146.7 190.016 146.983 189.971 147.322C189.937 147.564 189.78 147.534 189.636 147.507C189.586 147.498 189.537 147.488 189.496 147.491C189.47 147.493 189.444 147.495 189.418 147.496C188.913 147.528 188.41 147.559 187.948 147.785C187.474 148.034 187.259 148.463 187.315 149.085C187.372 149.661 187.666 150.068 188.186 150.192ZM189.971 148.633C190.027 148.203 190.016 148.181 189.508 148.203C189.304 148.203 189.056 148.214 188.818 148.35C188.547 148.508 188.468 148.757 188.525 149.039C188.592 149.333 188.83 149.401 189.09 149.401C189.575 149.401 189.914 149.107 189.971 148.633Z" fill="#1D1819"/>
<path fill-rule="evenodd" clip-rule="evenodd" d="M166.668 149.32C166.669 149.236 166.67 149.15 166.67 149.062C166.535 149.118 166.422 149.164 166.32 149.186C165.879 149.333 165.416 149.435 164.941 149.344C164.546 149.277 164.275 148.983 164.196 148.599C164.15 148.384 164.196 148.305 164.433 148.316C164.832 148.324 165.231 148.321 165.631 148.319C165.83 148.317 166.03 148.316 166.23 148.316C166.599 148.316 166.785 148.316 166.872 148.223C166.962 148.128 166.947 147.936 166.919 147.548C166.84 146.621 166.365 146.022 165.563 145.83C164.241 145.525 163.201 146.214 162.998 147.548C162.953 147.864 162.953 148.181 162.998 148.497C163.1 149.209 163.416 149.774 164.105 150.056C164.896 150.384 165.687 150.316 166.478 150.045C166.603 150.011 166.682 149.943 166.67 149.796C166.663 149.64 166.665 149.483 166.668 149.32ZM164.83 147.523C164.893 147.524 164.956 147.525 165.021 147.525C165.082 147.525 165.143 147.524 165.203 147.523C165.321 147.52 165.436 147.518 165.54 147.525C165.823 147.559 165.834 147.412 165.778 147.209C165.687 146.836 165.393 146.61 165.009 146.61C164.614 146.61 164.354 146.813 164.23 147.197C164.15 147.423 164.162 147.559 164.456 147.525C164.583 147.518 164.706 147.52 164.83 147.523Z" fill="#1D1819"/>
<path fill-rule="evenodd" clip-rule="evenodd" d="M173.303 150.192C174.038 150.384 174.705 150.248 175.213 149.593C175.496 150.237 175.496 150.237 176.095 150.203C176.219 150.192 176.275 150.169 176.275 150.022C176.272 149.688 176.27 149.354 176.269 149.021C176.267 148.355 176.264 147.691 176.241 147.028C176.23 146.44 175.869 146.056 175.304 145.898C174.524 145.672 173.767 145.774 173.032 146.079C172.863 146.147 172.874 146.214 172.942 146.361C173.071 146.637 173.134 146.776 173.238 146.824C173.342 146.873 173.489 146.83 173.789 146.745C174.072 146.666 174.366 146.621 174.659 146.666C174.965 146.712 175.134 146.983 175.111 147.322C175.086 147.59 174.924 147.554 174.782 147.521C174.733 147.51 174.686 147.5 174.648 147.503C174.601 147.506 174.554 147.508 174.507 147.511C174.021 147.54 173.531 147.57 173.077 147.796C172.625 148.022 172.411 148.463 172.456 149.028C172.501 149.65 172.784 150.056 173.303 150.192ZM175.111 148.61C175.134 148.305 175.111 148.079 174.761 148.203C174.467 148.203 174.23 148.214 173.993 148.327C173.71 148.474 173.609 148.723 173.665 149.028C173.722 149.344 173.981 149.401 174.253 149.401C174.739 149.401 175.066 149.085 175.111 148.61Z" fill="#1D1819"/>
</g>
<defs>
<clipPath id="clip0_632_71">
<rect width="300" height="200" fill="#FFE5E5"/>
</clipPath>
</defs>
</svg>
