<svg width="300" height="200" viewBox="0 0 300 200" fill="none" xmlns="http://www.w3.org/2000/svg">
<g clip-path="url(#clip0_632_47)">
<path d="M0 0.000976562H300V200.001H0V0.000976562Z" fill="#FFE5E5"/>
<path d="M49.7578 97.3814C50.048 97.8367 50.3154 98.2805 50.6113 98.7072C55.9485 106.429 63.0838 111.646 72.1537 114.161C73.9744 114.668 75.8237 115.003 77.7014 115.225C80.1538 115.521 82.6119 115.584 85.0699 115.459C88.188 115.299 91.2663 114.838 94.3048 114.127C94.3218 114.121 94.339 114.127 94.3674 114.144C94.1682 114.23 93.9748 114.321 93.7756 114.406C93.5765 114.491 93.3716 114.577 93.1725 114.656C90.2421 115.828 87.215 116.665 84.0969 117.177C81.7015 117.57 79.2946 117.752 76.8707 117.661C68.751 117.376 61.9174 114.303 56.4777 108.227C53.9058 105.353 51.92 102.104 50.2927 98.6219C50.1106 98.2293 49.9399 97.8367 49.7635 97.444C49.7578 97.4384 49.7578 97.4213 49.7578 97.3814Z" fill="#1D1819"/>
<path d="M77.7869 81C77.2861 81.4154 76.7967 81.8478 76.37 82.3372C75.6872 83.1281 75.2093 84.0157 75.0556 85.057C74.9191 85.9787 75.0272 86.8835 75.2718 87.7768C75.5735 88.875 76.0514 89.8992 76.5919 90.9006C76.9447 91.5606 77.2349 92.2435 77.3544 92.9831C77.5763 94.3545 77.0983 95.4184 75.949 96.1866C75.1467 96.7214 74.2477 96.9889 73.3088 97.1482C73.1723 97.171 73.0357 97.188 72.8764 97.2051C72.9105 97.171 72.9276 97.1539 72.9446 97.1425C74.1395 96.3004 74.5607 95.1283 74.168 93.7171C73.9859 93.0628 73.6957 92.4597 73.2975 91.9077C72.5862 90.912 71.9831 89.8593 71.6701 88.6644C71.1466 86.6388 71.6929 84.9204 73.1893 83.4865C74.2249 82.4908 75.4653 81.8307 76.7911 81.313C77.1154 81.1878 77.4454 81.0797 77.7869 81Z" fill="#1D1819"/>
<path d="M71.2204 97.2506C71.3854 96.9946 71.5164 96.7272 71.5619 96.4199C71.6416 95.9363 71.5164 95.5038 71.2546 95.1055C71.0213 94.7414 70.7255 94.4397 70.3726 94.1951C69.872 93.8423 69.3997 93.4611 69.0127 92.9831C68.495 92.3515 68.165 91.646 68.1877 90.8153C68.1991 90.4056 68.2958 90.0073 68.4608 89.6317C68.9331 88.5392 69.7468 87.737 70.697 87.0428C70.623 87.1736 70.549 87.2988 70.4751 87.4297C69.633 88.892 69.7525 90.2804 70.7823 91.6062C71.1693 92.1068 71.6188 92.5564 72.0854 92.9831C72.421 93.2904 72.7226 93.6375 72.9274 94.0472C73.2632 94.7129 73.2291 95.3615 72.8079 95.9761C72.404 96.5564 71.8464 96.9434 71.2204 97.2506Z" fill="#1D1819"/>
<path d="M49.0409 100.528C49.7579 102.44 50.7081 104.227 51.8404 105.922C55.8518 111.925 61.3256 115.965 68.1991 118.133C68.2503 118.15 68.2958 118.167 68.3471 118.196C68.0626 118.184 67.7837 118.121 67.5049 118.059C63.1748 117.075 59.3228 115.146 56.0225 112.153C53.0068 109.422 50.9016 106.087 49.5416 102.263C49.3425 101.7 49.1547 101.137 49.0011 100.562C48.9954 100.522 49.0125 100.517 49.0409 100.528Z" fill="#1D1819"/>
<path fill-rule="evenodd" clip-rule="evenodd" d="M79.4767 99.1794H70.0469C66.9066 99.1794 63.7605 99.1794 60.6201 99.1908C60.5063 99.1908 60.3925 99.1908 60.2844 99.2079C59.9088 99.2648 59.7325 99.4697 59.7325 99.8452C59.7325 101.512 59.7325 103.174 59.7382 104.835C59.7382 105.649 59.869 106.446 60.0795 107.231C60.1023 107.328 60.1535 107.396 60.2331 107.453C63.852 110.167 67.835 112.158 72.1821 113.422C72.2732 113.444 72.3529 113.456 72.4439 113.439C73.1438 113.308 73.8323 113.137 74.5037 112.909C74.5751 112.885 74.6466 112.86 74.7182 112.835C75.2852 112.641 75.8527 112.446 76.3529 112.107C77.599 111.254 78.5549 110.127 79.2946 108.818C79.3572 108.704 79.4256 108.665 79.5564 108.665C79.9574 108.673 80.3551 108.672 80.7544 108.671C80.8878 108.671 81.0213 108.67 81.1552 108.67C81.2558 108.669 81.3558 108.669 81.4555 108.67C81.6944 108.672 81.9313 108.674 82.1681 108.642C84.2734 108.346 85.6446 106.36 85.1667 104.289C84.831 102.844 83.5792 101.734 82.0998 101.581C81.7515 101.542 81.4005 101.548 81.0505 101.554C80.8859 101.557 80.7216 101.56 80.5578 101.558C80.4326 101.558 80.4042 101.524 80.4042 101.399C80.408 101.05 80.4067 100.704 80.4054 100.356C80.4048 100.183 80.4042 100.009 80.4042 99.8338C80.4042 99.5493 80.2847 99.3672 80.0172 99.2591C79.8409 99.1908 79.6588 99.1794 79.4767 99.1794ZM80.3985 103.037V104.152C80.444 105.034 80.3245 106.036 79.9831 107.015C79.9433 107.134 79.9831 107.151 80.0913 107.151C80.3254 107.149 80.5585 107.149 80.7914 107.15C81.1019 107.151 81.4122 107.152 81.7242 107.145C82.8054 107.123 83.7101 106.309 83.8068 105.29C83.915 104.158 83.2321 103.191 82.1339 102.963C81.7697 102.887 81.3978 102.898 81.0269 102.908C80.8415 102.913 80.6564 102.918 80.4725 102.912C80.3912 102.907 80.3943 102.959 80.3974 103.009C80.3979 103.019 80.3985 103.028 80.3985 103.037Z" fill="#E52129"/>
<path d="M106.154 83.9379C107.305 83.9214 108.44 83.9379 109.591 83.905C109.92 83.905 109.936 84.053 109.936 84.3161C109.936 86.0757 109.936 87.8353 109.936 89.595C109.936 91.2723 109.936 92.9498 109.936 94.6765C110.15 94.5778 110.216 94.3969 110.298 94.2653C112.551 90.9435 114.804 87.6216 117.041 84.2832C117.222 84.0201 117.402 83.8885 117.731 83.905C118.817 83.9379 119.919 83.9214 121.02 83.9214C121.037 84.1845 120.856 84.3161 120.757 84.4641C118.915 87.1775 117.09 89.9074 115.232 92.6044C114.985 92.9662 114.952 93.2129 115.215 93.5911C117.254 96.6992 119.277 99.8238 121.316 102.948C121.415 103.096 121.497 103.228 121.629 103.458C120.675 103.458 119.803 103.458 118.932 103.458C118.356 103.458 117.666 103.623 117.222 103.376C116.794 103.146 116.597 102.471 116.301 101.995C115.1 100.07 113.9 98.1463 112.683 96.2223C112.666 96.1894 112.633 96.173 112.568 96.1072C111.893 97.0116 111.252 97.9161 110.545 98.7877C110.084 99.3469 109.871 99.9224 109.92 100.646C109.986 101.452 109.92 102.258 109.936 103.063C109.953 103.376 109.854 103.475 109.542 103.475C108.407 103.458 107.289 103.475 106.154 103.475C106.154 96.9458 106.154 90.4501 106.154 83.9379Z" fill="#1D1819"/>
<path d="M208.393 93.9365C208.014 95.1205 207.686 96.173 207.357 97.2255C206.748 99.166 206.124 101.09 205.531 103.03C205.433 103.343 205.317 103.458 204.973 103.458C204.249 103.425 203.542 103.442 202.818 103.458C202.555 103.458 202.44 103.409 202.357 103.129C200.976 98.1299 199.578 93.1471 198.164 88.1478C198.065 87.8025 198.18 87.786 198.46 87.786C199.398 87.8025 200.335 87.8189 201.288 87.7696C201.782 87.7367 201.913 87.934 202.012 88.3616C202.686 91.4039 203.377 94.4462 204.068 97.505C204.084 97.6037 204.117 97.6859 204.183 97.9161C204.676 96.1729 205.137 94.5778 205.597 92.9826C205.942 91.7821 206.288 90.5816 206.616 89.3976C206.715 89.0523 206.847 88.7234 207.077 88.4274C207.818 87.49 209.248 87.5887 209.823 88.6412C210.35 89.6279 210.531 90.7461 210.843 91.7986C211.402 93.6733 211.928 95.5645 212.472 97.4557C212.504 97.5873 212.504 97.7352 212.652 97.8339C213.376 94.6271 214.115 91.4203 214.823 88.2136C214.905 87.8682 215.036 87.786 215.366 87.786C216.319 87.8025 217.273 87.8025 218.243 87.786C218.573 87.786 218.688 87.8025 218.573 88.1971C217.175 93.1471 215.809 98.1134 214.428 103.08C214.362 103.343 214.263 103.475 213.951 103.458C213.211 103.425 212.488 103.425 211.748 103.458C211.435 103.475 211.337 103.343 211.254 103.08C210.317 100.087 209.38 97.0939 208.393 93.9365Z" fill="#1D1819"/>
<path d="M173.398 95.6961C174.647 93.8213 175.914 91.963 177.164 90.0883C177.476 89.6278 177.789 89.1509 178.101 88.6905C178.216 88.526 178.331 88.4274 178.545 88.4274C179.762 88.4438 180.962 88.4274 182.179 88.4274C182.245 88.6411 182.081 88.7234 181.998 88.8385C180.502 90.8941 179.006 92.9498 177.492 95.0053C177.246 95.3343 177.229 95.5316 177.492 95.877C179.301 98.2121 181.078 100.58 182.854 102.932C182.969 103.08 183.067 103.228 183.232 103.442C181.802 103.442 180.453 103.442 179.088 103.442C178.874 103.442 178.825 103.244 178.726 103.113C177.542 101.534 176.375 99.9553 175.207 98.393C175.092 98.245 174.977 98.097 174.845 97.9161C174.335 98.6397 173.858 99.3304 173.365 100.021C173.25 100.186 173.283 100.35 173.283 100.514C173.283 101.353 173.267 102.192 173.283 103.031C173.299 103.359 173.217 103.475 172.872 103.458C171.967 103.425 171.063 103.425 170.158 103.458C169.796 103.475 169.714 103.359 169.714 102.998C169.73 98.9193 169.714 94.8244 169.714 90.7461C169.714 88.2629 169.714 85.7962 169.698 83.313C169.698 82.9512 169.764 82.8032 170.175 82.8196C170.997 82.8525 171.819 82.8525 172.641 82.8196C173.135 82.7867 173.299 82.9018 173.283 83.4445C173.25 87.3749 173.267 91.3052 173.267 95.2356C173.267 95.3836 173.267 95.5316 173.267 95.6796C173.332 95.6796 173.364 95.6961 173.398 95.6961Z" fill="#1D1819"/>
<path d="M138.617 95.6467C138.617 93.1965 138.633 90.7626 138.6 88.3123C138.6 87.8683 138.732 87.7531 139.143 87.786C139.685 87.8189 140.244 87.8189 140.788 87.786C141.132 87.7696 141.363 87.8518 141.478 88.2136C141.593 88.5754 141.806 88.8878 141.922 89.2496C142.037 89.595 142.185 89.6443 142.514 89.4799C143.583 88.9536 144.701 88.5096 145.754 87.9505C146.576 87.5065 147.381 87.5722 148.154 87.9176C149.898 88.6741 150.786 90.0719 150.999 91.9302C151.098 92.8511 151.065 93.772 151.065 94.6929C151.065 97.4393 151.065 100.202 151.082 102.948C151.082 103.359 150.966 103.458 150.572 103.442C149.734 103.409 148.894 103.409 148.056 103.442C147.628 103.458 147.48 103.376 147.496 102.899C147.53 99.8402 147.514 96.7815 147.514 93.7062C147.514 93.328 147.496 92.9498 147.431 92.588C147.217 91.3875 146.132 90.7954 144.997 91.2559C144.208 91.5848 143.435 91.9302 142.629 92.2262C142.284 92.3577 142.185 92.5386 142.185 92.9004C142.201 96.2388 142.185 99.5771 142.201 102.899C142.201 103.327 142.087 103.442 141.675 103.425C140.837 103.392 139.997 103.392 139.159 103.425C138.748 103.442 138.617 103.343 138.617 102.899C138.633 100.498 138.617 98.0806 138.617 95.6467Z" fill="#1D1819"/>
<path d="M243.19 95.4165C243.19 97.9326 243.174 100.449 243.207 102.965C243.207 103.376 243.092 103.475 242.697 103.458C241.76 103.425 240.823 103.425 239.868 103.458C239.474 103.475 239.358 103.359 239.358 102.965C239.375 97.9326 239.358 92.9168 239.375 87.8847C239.375 87.4571 239.293 87.3091 238.832 87.3255C237.418 87.3584 235.987 87.3255 234.573 87.342C234.228 87.342 234.146 87.2433 234.146 86.9144C234.162 86.0593 234.162 85.2041 234.146 84.349C234.146 84.053 234.195 83.9379 234.54 83.9379C239.063 83.9543 243.569 83.9543 248.091 83.9379C248.354 83.9379 248.436 84.0036 248.436 84.2832C248.42 85.1712 248.42 86.0593 248.436 86.9473C248.436 87.2598 248.354 87.3584 248.041 87.342C246.594 87.3255 245.131 87.3584 243.684 87.3255C243.256 87.3091 243.19 87.4571 243.19 87.8353C243.19 90.3514 243.19 92.8839 243.19 95.4165Z" fill="#1D1819"/>
<path d="M227.353 93.6405C227.353 90.5652 227.37 87.49 227.337 84.3983C227.337 83.9872 227.452 83.8886 227.847 83.905C228.818 83.9379 229.804 83.9214 230.774 83.905C231.087 83.905 231.169 83.9872 231.169 84.2997C231.153 90.5488 231.153 96.7815 231.169 103.031C231.169 103.376 231.07 103.458 230.742 103.442C229.771 103.425 228.785 103.409 227.814 103.442C227.436 103.458 227.337 103.359 227.337 102.965C227.37 99.8731 227.353 96.7485 227.353 93.6405Z" fill="#1D1819"/>
<path fill-rule="evenodd" clip-rule="evenodd" d="M161.743 100.525C161.953 100.413 162.165 100.3 162.379 100.186C162.36 100.525 162.343 100.856 162.327 101.182C162.288 101.946 162.251 102.677 162.182 103.392C162.083 104.33 161.574 104.823 160.653 105.004C159.912 105.135 159.189 105.086 158.465 104.889C157.972 104.757 157.611 104.478 157.561 103.919C157.528 103.625 157.367 103.639 157.172 103.655L157.166 103.655C156.952 103.668 156.739 103.681 156.525 103.694C155.884 103.735 155.242 103.775 154.601 103.787C154.19 103.803 154.173 103.968 154.206 104.297C154.388 105.892 155.276 106.961 156.755 107.52C158.581 108.211 160.472 108.277 162.346 107.767C164.402 107.208 165.636 105.678 165.768 103.54C165.817 102.652 165.817 101.764 165.817 100.876C165.825 98.7631 165.825 96.6457 165.825 94.5264C165.825 92.4071 165.825 90.2857 165.833 88.1643C165.833 87.7531 165.75 87.638 165.323 87.6874C164.829 87.7533 164.341 87.7752 163.852 87.7972C163.608 87.8081 163.365 87.819 163.119 87.8354C162.196 87.9031 161.272 87.8967 160.35 87.8903C159.481 87.8843 158.612 87.8782 157.742 87.934C155.555 88.0656 154.141 89.2167 153.664 91.3711C153.17 93.6734 153.137 95.9921 153.598 98.2944C154.091 100.794 155.703 102.126 158.137 102.225C158.433 102.241 158.696 102.175 158.959 102.027C159.863 101.528 160.78 101.039 161.743 100.525ZM162.278 95.0054C162.279 94.7204 162.281 94.4353 162.281 94.1503C162.281 93.9285 162.28 93.7068 162.278 93.4848C162.276 92.8177 162.273 92.1484 162.298 91.4697C162.298 91.1737 162.215 91.0915 161.919 91.0915C161.449 91.1102 160.979 91.1076 160.509 91.1049C160.157 91.1029 159.804 91.1009 159.453 91.1079C158.219 91.1244 157.479 91.6835 157.166 92.8511C156.838 94.068 156.772 95.3179 156.986 96.5676C157.265 98.1793 158.778 98.9029 160.225 98.1464C160.417 98.0477 160.609 97.9471 160.801 97.8466C161.184 97.6457 161.568 97.4447 161.952 97.2584C162.182 97.1433 162.281 96.9952 162.281 96.7157C162.27 96.1456 162.274 95.5755 162.278 95.0054Z" fill="#1D1819"/>
<path fill-rule="evenodd" clip-rule="evenodd" d="M135.722 99.3797C135.985 98.1793 136.035 96.9459 136.084 95.6632C136.068 94.6271 136.018 93.5253 135.805 92.4564C135.311 89.8416 133.88 88.3122 131.43 87.786C130.443 87.5722 129.424 87.5887 128.421 87.6544C125.724 87.8518 123.915 89.3318 123.29 91.9466C122.681 94.4792 122.731 97.028 123.323 99.5606C123.833 101.682 125.115 103.113 127.286 103.606C128.585 103.902 129.884 103.919 131.2 103.705C133.716 103.31 135.163 101.814 135.722 99.3797ZM132.318 98.3437C132.532 97.4557 132.532 96.5512 132.516 95.6467C132.532 94.8902 132.532 94.1338 132.433 93.3938C132.318 92.5715 132.088 91.815 131.381 91.3052C129.72 90.1212 127.237 90.8941 126.743 92.8675C126.266 94.7587 126.283 96.6992 126.809 98.5903C127.204 100.021 128.24 100.679 129.687 100.613C131.101 100.531 131.989 99.7909 132.318 98.3437Z" fill="#1D1819"/>
<path fill-rule="evenodd" clip-rule="evenodd" d="M196.766 99.4126C197.045 98.1793 197.095 96.9294 197.128 95.6138C197.112 94.6107 197.079 93.5417 196.865 92.4893C196.371 89.8745 194.973 88.3287 192.507 87.8024C191.487 87.5722 190.435 87.5722 189.399 87.6709C186.685 87.9176 184.991 89.3483 184.35 91.9959C183.741 94.5284 183.775 97.0774 184.383 99.61C184.909 101.781 186.258 103.195 188.51 103.655C189.694 103.886 190.879 103.919 192.079 103.738C194.678 103.359 196.174 101.962 196.766 99.4126ZM193.378 98.3273C193.593 97.4392 193.593 96.5347 193.575 95.6303C193.593 94.9067 193.593 94.1667 193.494 93.4431C193.378 92.6044 193.148 91.8315 192.425 91.3052C190.764 90.1048 188.264 90.8941 187.787 92.8675C187.31 94.7587 187.326 96.6992 187.853 98.5903C188.264 100.005 189.3 100.679 190.748 100.597C192.178 100.514 193.049 99.7579 193.378 98.3273Z" fill="#1D1819"/>
<path d="M248.425 117.489C248.268 117.489 248.092 117.489 247.935 117.489C247.097 117.489 247.097 117.489 246.852 116.703C246.748 116.651 246.695 116.738 246.643 116.808C245.856 117.647 244.459 117.891 243.446 117.349C242.851 117.035 242.519 116.511 242.449 115.882C242.275 114.292 242.414 112.685 242.38 111.095C242.38 110.903 242.467 110.833 242.642 110.85C242.659 110.85 242.677 110.85 242.694 110.85C244.179 110.728 244.179 110.728 244.179 112.196C244.179 113.087 244.162 113.978 244.179 114.869C244.196 115.725 244.529 116.144 245.175 116.196C245.909 116.249 246.433 115.847 246.572 115.043C246.782 113.838 246.66 112.615 246.66 111.392C246.66 110.938 246.782 110.78 247.236 110.833C247.638 110.885 248.04 110.85 248.425 110.868C248.425 113.052 248.425 115.27 248.425 117.489Z" fill="#1D1819"/>
<path d="M200.834 113.733C201.55 112.842 202.337 112.056 203.053 111.217C203.315 110.92 203.577 110.763 203.979 110.798C204.433 110.833 204.869 110.798 205.463 110.798C204.869 111.462 204.363 112.021 203.857 112.597C203.524 112.964 202.982 113.331 202.965 113.716C202.948 114.1 203.472 114.502 203.751 114.904C204.363 115.742 204.975 116.563 205.656 117.472C204.957 117.472 204.328 117.472 203.699 117.472C203.489 117.472 203.437 117.297 203.35 117.175C202.896 116.546 202.458 115.899 201.987 115.27C201.864 115.113 201.795 114.746 201.567 114.886C201.288 115.043 200.886 115.183 200.886 115.655C200.886 116.144 200.869 116.633 200.886 117.122C200.903 117.402 200.834 117.489 200.536 117.489C199.069 117.524 199.069 117.542 199.069 116.109C199.069 113.646 199.087 111.165 199.052 108.701C199.052 108.3 199.139 108.177 199.558 108.177C200.886 108.195 200.886 108.177 200.886 109.488C200.869 110.903 200.938 112.3 200.834 113.733Z" fill="#1D1819"/>
<path d="M215.491 111.794C216.278 110.78 217.151 110.588 218.148 110.71C219.143 110.833 219.842 111.444 219.947 112.44C220.122 114.03 219.982 115.637 220.017 117.227C220.017 117.419 219.947 117.489 219.754 117.472C219.72 117.472 219.685 117.472 219.65 117.472C218.2 117.542 218.2 117.542 218.2 116.074C218.2 115.2 218.217 114.327 218.2 113.453C218.182 112.58 217.868 112.161 217.239 112.108C216.435 112.056 215.946 112.423 215.807 113.261C215.597 114.484 215.719 115.725 215.719 116.948C215.719 117.349 215.631 117.507 215.212 117.454C214.793 117.402 214.216 117.646 213.954 117.349C213.745 117.105 213.902 116.546 213.885 116.126C213.885 114.519 213.902 112.894 213.867 111.287C213.867 110.85 214.007 110.78 214.408 110.763C215.072 110.763 215.544 110.833 215.491 111.794Z" fill="#1D1819"/>
<path d="M238.553 111.968C239.095 111.147 239.742 110.658 240.685 110.675C241.034 110.693 241.296 110.728 241.157 111.182C241.157 111.2 241.157 111.217 241.157 111.235C241.139 111.584 241.209 111.986 241.052 112.248C240.877 112.562 240.423 112.318 240.108 112.388C239.2 112.58 238.728 113.104 238.711 114.047C238.693 115.043 238.693 116.039 238.711 117.035C238.711 117.349 238.658 117.472 238.309 117.472C236.894 117.489 236.894 117.489 236.894 116.091C236.894 114.502 236.911 112.894 236.876 111.304C236.876 110.85 237.016 110.763 237.418 110.78C238.239 110.833 238.239 110.798 238.553 111.968Z" fill="#1D1819"/>
<path fill-rule="evenodd" clip-rule="evenodd" d="M222.413 117.495C222.961 117.517 223.501 117.539 223.581 116.703C223.632 116.745 223.674 116.775 223.71 116.801C223.749 116.828 223.781 116.851 223.808 116.878C225.188 118.153 227.145 117.751 227.774 115.987C228.228 114.729 228.228 113.418 227.721 112.161C227.355 111.252 226.691 110.728 225.694 110.676C224.892 110.641 224.227 110.92 223.703 111.654V109.557C223.703 108.827 223.703 108.464 223.522 108.293C223.34 108.12 222.973 108.142 222.235 108.177C221.956 108.195 221.904 108.282 221.904 108.527C221.921 111.392 221.921 114.257 221.904 117.122C221.904 117.419 221.991 117.489 222.271 117.489C222.318 117.491 222.365 117.493 222.413 117.495ZM226.01 115.375C226.201 114.973 226.219 114.537 226.219 114.1C226.219 113.663 226.201 113.244 225.992 112.825C225.765 112.318 225.38 112.091 224.821 112.126C224.28 112.178 223.931 112.458 223.808 112.964C223.598 113.733 223.615 114.502 223.826 115.27C223.983 115.812 224.35 116.074 224.909 116.109C225.468 116.144 225.799 115.847 226.01 115.375Z" fill="#1D1819"/>
<path fill-rule="evenodd" clip-rule="evenodd" d="M184.431 112.121C184.429 112.448 184.428 112.776 184.428 113.104C184.428 113.299 184.428 113.495 184.427 113.692C184.424 114.479 184.421 115.273 184.464 116.057C184.464 116.188 184.445 116.335 184.428 116.485C184.385 116.851 184.339 117.228 184.551 117.402C184.734 117.55 185.058 117.527 185.394 117.503C185.57 117.49 185.75 117.477 185.913 117.489C186.228 117.507 186.298 117.402 186.298 117.087C186.289 116.703 186.289 116.323 186.289 115.943C186.289 115.563 186.289 115.183 186.281 114.799C186.281 114.467 186.35 114.344 186.7 114.362C187.084 114.379 187.486 114.362 187.887 114.309C189.425 114.135 190.368 113.121 190.421 111.619C190.473 110.029 189.722 109.086 188.08 108.824C187.432 108.728 186.779 108.742 186.126 108.756C185.705 108.765 185.284 108.774 184.865 108.754C184.516 108.736 184.411 108.824 184.411 109.191C184.437 110.16 184.434 111.139 184.431 112.121ZM186.257 111.474C186.26 111.519 186.263 111.577 186.263 111.654C186.303 111.78 186.28 111.941 186.256 112.108C186.216 112.381 186.176 112.668 186.403 112.842C186.7 113.052 187.241 112.894 187.661 112.772C188.325 112.58 188.674 111.951 188.534 111.235C188.377 110.431 187.713 110.064 186.525 110.291C186.16 110.36 186.204 110.629 186.251 110.905C186.275 111.052 186.299 111.201 186.263 111.322C186.253 111.364 186.255 111.406 186.257 111.474Z" fill="#1D1819"/>
<path fill-rule="evenodd" clip-rule="evenodd" d="M230.482 117.489C231.6 117.751 232.613 117.577 233.399 116.546C233.829 117.542 233.836 117.542 234.684 117.475L234.727 117.472C234.972 117.472 235.024 117.384 235.024 117.157C235.024 116.781 235.025 116.405 235.027 116.031C235.03 114.91 235.033 113.798 235.006 112.685C234.972 111.776 234.447 111.095 233.574 110.833C232.351 110.466 231.163 110.606 230.01 111.112C229.988 111.122 229.964 111.13 229.941 111.138C229.833 111.176 229.726 111.214 229.783 111.357C229.82 111.44 229.856 111.527 229.892 111.614C230.005 111.89 230.121 112.171 230.307 112.37C230.439 112.502 230.619 112.404 230.799 112.307C230.881 112.262 230.963 112.217 231.041 112.196C231.513 112.056 232.001 111.951 232.491 112.021C232.998 112.091 233.312 112.527 233.242 113.052C233.191 113.427 232.947 113.38 232.725 113.338C232.647 113.323 232.572 113.309 232.508 113.314C232.468 113.316 232.427 113.319 232.387 113.321C231.606 113.37 230.829 113.419 230.115 113.768C229.381 114.152 229.049 114.816 229.136 115.777C229.224 116.668 229.678 117.297 230.482 117.489ZM233.242 115.078C233.33 114.414 233.312 114.379 232.526 114.414C232.212 114.414 231.827 114.432 231.46 114.641C231.041 114.886 230.918 115.27 231.006 115.707C231.111 116.161 231.477 116.266 231.879 116.266C232.631 116.266 233.155 115.812 233.242 115.078Z" fill="#1D1819"/>
<path fill-rule="evenodd" clip-rule="evenodd" d="M197.213 116.141C197.215 116.011 197.217 115.879 197.217 115.742C197.008 115.829 196.833 115.899 196.675 115.934C195.994 116.161 195.278 116.319 194.544 116.179C193.932 116.074 193.513 115.62 193.391 115.026C193.321 114.694 193.391 114.572 193.758 114.589C194.376 114.601 194.992 114.597 195.61 114.593C195.919 114.591 196.227 114.589 196.535 114.589C197.106 114.589 197.394 114.589 197.529 114.445C197.668 114.298 197.646 114.001 197.601 113.401C197.479 111.968 196.746 111.042 195.505 110.745C193.461 110.274 191.853 111.339 191.539 113.401C191.47 113.89 191.47 114.379 191.539 114.869C191.696 115.969 192.186 116.843 193.252 117.28C194.474 117.786 195.697 117.681 196.92 117.262C197.113 117.21 197.234 117.105 197.217 116.878C197.205 116.636 197.209 116.393 197.213 116.141ZM194.372 113.362C194.469 113.364 194.566 113.366 194.667 113.366C194.761 113.366 194.856 113.364 194.949 113.362C195.131 113.358 195.309 113.355 195.47 113.366C195.907 113.419 195.924 113.191 195.837 112.877C195.697 112.3 195.243 111.951 194.649 111.951C194.037 111.951 193.635 112.265 193.444 112.859C193.321 113.209 193.338 113.419 193.792 113.366C193.99 113.355 194.18 113.358 194.372 113.362Z" fill="#1D1819"/>
<path fill-rule="evenodd" clip-rule="evenodd" d="M207.473 117.489C208.608 117.786 209.639 117.577 210.425 116.563C210.862 117.559 210.862 117.559 211.788 117.507C211.98 117.489 212.067 117.454 212.067 117.227C212.061 116.709 212.059 116.194 212.058 115.679C212.054 114.649 212.05 113.623 212.015 112.597C211.998 111.689 211.439 111.095 210.566 110.85C209.36 110.501 208.189 110.658 207.053 111.13C206.791 111.235 206.809 111.339 206.914 111.567C207.114 111.993 207.211 112.207 207.371 112.282C207.532 112.357 207.76 112.292 208.224 112.161C208.661 112.038 209.115 111.968 209.569 112.038C210.041 112.108 210.303 112.527 210.268 113.052C210.229 113.467 209.979 113.41 209.759 113.36C209.683 113.343 209.61 113.327 209.552 113.331C209.479 113.336 209.406 113.34 209.334 113.344C208.583 113.389 207.824 113.435 207.123 113.785C206.424 114.135 206.093 114.816 206.162 115.69C206.232 116.651 206.669 117.28 207.473 117.489ZM210.268 115.043C210.303 114.572 210.268 114.222 209.726 114.414C209.272 114.414 208.905 114.432 208.539 114.606C208.102 114.834 207.944 115.218 208.032 115.69C208.119 116.179 208.521 116.266 208.941 116.266C209.691 116.266 210.198 115.777 210.268 115.043Z" fill="#1D1819"/>
</g>
<defs>
<clipPath id="clip0_632_47">
<rect width="300" height="200" fill="#FFE5E5"/>
</clipPath>
</defs>
</svg>
