<svg width="300" height="200" viewBox="0 0 300 200" fill="none" xmlns="http://www.w3.org/2000/svg">
<g clip-path="url(#clip0_632_54)">
<path d="M0 0.000976562H300V200.001H0V0.000976562Z" fill="#201A26"/>
<path d="M50.7578 97.3814C51.048 97.8367 51.3154 98.2805 51.6113 98.7072C56.9485 106.429 64.0838 111.646 73.1537 114.161C74.9744 114.668 76.8237 115.003 78.7014 115.225C81.1538 115.521 83.6119 115.584 86.0699 115.459C89.188 115.299 92.2663 114.838 95.3048 114.127C95.3218 114.121 95.339 114.127 95.3674 114.144C95.1682 114.23 94.9748 114.321 94.7756 114.406C94.5765 114.491 94.3716 114.577 94.1725 114.656C91.2421 115.828 88.215 116.665 85.0969 117.177C82.7015 117.57 80.2946 117.752 77.8707 117.661C69.751 117.376 62.9174 114.303 57.4777 108.227C54.9058 105.353 52.92 102.104 51.2927 98.6219C51.1106 98.2293 50.9399 97.8367 50.7635 97.444C50.7578 97.4384 50.7578 97.4213 50.7578 97.3814Z" fill="#FFE5E5"/>
<path d="M78.7869 81C78.2861 81.4154 77.7967 81.8478 77.37 82.3372C76.6872 83.1281 76.2093 84.0157 76.0556 85.057C75.9191 85.9787 76.0272 86.8835 76.2718 87.7768C76.5735 88.875 77.0514 89.8992 77.5919 90.9006C77.9447 91.5606 78.2349 92.2435 78.3544 92.9831C78.5763 94.3545 78.0983 95.4184 76.949 96.1866C76.1467 96.7214 75.2477 96.9889 74.3088 97.1482C74.1723 97.171 74.0357 97.188 73.8764 97.2051C73.9105 97.171 73.9276 97.1539 73.9446 97.1425C75.1395 96.3004 75.5607 95.1283 75.168 93.7171C74.9859 93.0628 74.6957 92.4597 74.2975 91.9077C73.5862 90.912 72.9831 89.8593 72.6701 88.6644C72.1466 86.6388 72.6929 84.9204 74.1893 83.4865C75.2249 82.4908 76.4653 81.8307 77.7911 81.313C78.1154 81.1878 78.4454 81.0797 78.7869 81Z" fill="#FFE5E5"/>
<path d="M72.2204 97.2506C72.3854 96.9946 72.5164 96.7272 72.5619 96.4199C72.6416 95.9363 72.5164 95.5038 72.2546 95.1055C72.0213 94.7414 71.7255 94.4397 71.3726 94.1951C70.872 93.8423 70.3997 93.4611 70.0127 92.9831C69.495 92.3515 69.165 91.646 69.1877 90.8153C69.1991 90.4056 69.2958 90.0073 69.4608 89.6317C69.9331 88.5392 70.7468 87.737 71.697 87.0428C71.623 87.1736 71.549 87.2988 71.4751 87.4297C70.633 88.892 70.7525 90.2804 71.7823 91.6062C72.1693 92.1068 72.6188 92.5564 73.0854 92.9831C73.421 93.2904 73.7226 93.6375 73.9274 94.0472C74.2632 94.7129 74.2291 95.3615 73.8079 95.9761C73.404 96.5564 72.8464 96.9434 72.2204 97.2506Z" fill="#FFE5E5"/>
<path d="M50.0409 100.528C50.7579 102.44 51.7081 104.227 52.8404 105.922C56.8518 111.925 62.3256 115.965 69.1991 118.133C69.2503 118.15 69.2958 118.167 69.3471 118.196C69.0626 118.184 68.7837 118.121 68.5049 118.059C64.1748 117.075 60.3228 115.146 57.0225 112.153C54.0068 109.422 51.9016 106.087 50.5416 102.263C50.3425 101.7 50.1547 101.137 50.0011 100.562C49.9954 100.522 50.0125 100.517 50.0409 100.528Z" fill="#FFE5E5"/>
<path fill-rule="evenodd" clip-rule="evenodd" d="M80.4767 99.1794H71.0469C67.9066 99.1794 64.7605 99.1794 61.6201 99.1908C61.5063 99.1908 61.3925 99.1908 61.2844 99.2079C60.9088 99.2648 60.7325 99.4697 60.7325 99.8452C60.7325 101.512 60.7325 103.174 60.7382 104.835C60.7382 105.649 60.869 106.446 61.0795 107.231C61.1023 107.328 61.1535 107.396 61.2331 107.453C64.852 110.167 68.835 112.158 73.1821 113.422C73.2732 113.444 73.3529 113.456 73.4439 113.439C74.1438 113.308 74.8323 113.137 75.5037 112.909C75.5751 112.885 75.6466 112.86 75.7182 112.835C76.2852 112.641 76.8527 112.446 77.3529 112.107C78.599 111.254 79.5549 110.127 80.2946 108.818C80.3572 108.704 80.4256 108.665 80.5564 108.665C80.9574 108.673 81.3551 108.672 81.7544 108.671C81.8878 108.671 82.0213 108.67 82.1552 108.67C82.2558 108.669 82.3558 108.669 82.4555 108.67C82.6944 108.672 82.9313 108.674 83.1681 108.642C85.2734 108.346 86.6446 106.36 86.1667 104.289C85.831 102.844 84.5792 101.734 83.0998 101.581C82.7515 101.542 82.4005 101.548 82.0505 101.554C81.8859 101.557 81.7216 101.56 81.5578 101.558C81.4326 101.558 81.4042 101.524 81.4042 101.399C81.408 101.05 81.4067 100.704 81.4054 100.356C81.4048 100.183 81.4042 100.009 81.4042 99.8338C81.4042 99.5493 81.2847 99.3672 81.0172 99.2591C80.8409 99.1908 80.6588 99.1794 80.4767 99.1794ZM81.3985 103.037V104.152C81.444 105.034 81.3245 106.036 80.9831 107.015C80.9433 107.134 80.9831 107.151 81.0913 107.151C81.3254 107.149 81.5585 107.149 81.7914 107.15C82.1019 107.151 82.4122 107.152 82.7242 107.145C83.8054 107.123 84.7101 106.309 84.8068 105.29C84.915 104.158 84.2321 103.191 83.1339 102.963C82.7697 102.887 82.3978 102.898 82.0269 102.908C81.8415 102.913 81.6564 102.918 81.4725 102.912C81.3912 102.907 81.3943 102.959 81.3974 103.009C81.3979 103.019 81.3985 103.028 81.3985 103.037Z" fill="#FFE5E5"/>
<path d="M107.154 83.9379C108.305 83.9214 109.44 83.9379 110.591 83.905C110.92 83.905 110.936 84.053 110.936 84.3161C110.936 86.0757 110.936 87.8353 110.936 89.595C110.936 91.2723 110.936 92.9498 110.936 94.6765C111.15 94.5778 111.216 94.3969 111.298 94.2653C113.551 90.9435 115.804 87.6216 118.041 84.2832C118.222 84.0201 118.402 83.8885 118.731 83.905C119.817 83.9379 120.919 83.9214 122.02 83.9214C122.037 84.1845 121.856 84.3161 121.757 84.4641C119.915 87.1775 118.09 89.9074 116.232 92.6044C115.985 92.9662 115.952 93.2129 116.215 93.5911C118.254 96.6992 120.277 99.8238 122.316 102.948C122.415 103.096 122.497 103.228 122.629 103.458C121.675 103.458 120.803 103.458 119.932 103.458C119.356 103.458 118.666 103.623 118.222 103.376C117.794 103.146 117.597 102.471 117.301 101.995C116.1 100.07 114.9 98.1463 113.683 96.2223C113.666 96.1894 113.633 96.173 113.568 96.1072C112.893 97.0116 112.252 97.9161 111.545 98.7877C111.084 99.3469 110.871 99.9224 110.92 100.646C110.986 101.452 110.92 102.258 110.936 103.063C110.953 103.376 110.854 103.475 110.542 103.475C109.407 103.458 108.289 103.475 107.154 103.475C107.154 96.9458 107.154 90.4501 107.154 83.9379Z" fill="#FFE5E5"/>
<path d="M209.393 93.9365C209.014 95.1205 208.686 96.173 208.357 97.2255C207.748 99.166 207.124 101.09 206.531 103.03C206.433 103.343 206.317 103.458 205.973 103.458C205.249 103.425 204.542 103.442 203.818 103.458C203.555 103.458 203.44 103.409 203.357 103.129C201.976 98.1299 200.578 93.1471 199.164 88.1478C199.065 87.8025 199.18 87.786 199.46 87.786C200.398 87.8025 201.335 87.8189 202.288 87.7696C202.782 87.7367 202.913 87.934 203.012 88.3616C203.686 91.4039 204.377 94.4462 205.068 97.505C205.084 97.6037 205.117 97.6859 205.183 97.9161C205.676 96.1729 206.137 94.5778 206.597 92.9826C206.942 91.7821 207.288 90.5816 207.616 89.3976C207.715 89.0523 207.847 88.7234 208.077 88.4274C208.818 87.49 210.248 87.5887 210.823 88.6412C211.35 89.6279 211.531 90.7461 211.843 91.7986C212.402 93.6733 212.928 95.5645 213.472 97.4557C213.504 97.5873 213.504 97.7352 213.652 97.8339C214.376 94.6271 215.115 91.4203 215.823 88.2136C215.905 87.8682 216.036 87.786 216.366 87.786C217.319 87.8025 218.273 87.8025 219.243 87.786C219.573 87.786 219.688 87.8025 219.573 88.1971C218.175 93.1471 216.809 98.1134 215.428 103.08C215.362 103.343 215.263 103.475 214.951 103.458C214.211 103.425 213.488 103.425 212.748 103.458C212.436 103.475 212.337 103.343 212.254 103.08C211.317 100.087 210.38 97.0939 209.393 93.9365Z" fill="#FFE5E5"/>
<path d="M174.398 95.6961C175.647 93.8213 176.914 91.963 178.164 90.0883C178.476 89.6278 178.789 89.1509 179.101 88.6905C179.216 88.526 179.331 88.4274 179.545 88.4274C180.762 88.4438 181.962 88.4274 183.179 88.4274C183.245 88.6411 183.081 88.7234 182.998 88.8385C181.502 90.8941 180.006 92.9498 178.492 95.0053C178.246 95.3343 178.229 95.5316 178.492 95.877C180.301 98.2121 182.078 100.58 183.854 102.932C183.969 103.08 184.067 103.228 184.232 103.442C182.802 103.442 181.453 103.442 180.088 103.442C179.874 103.442 179.825 103.244 179.726 103.113C178.542 101.534 177.375 99.9553 176.207 98.393C176.092 98.245 175.977 98.097 175.845 97.9161C175.335 98.6397 174.858 99.3304 174.365 100.021C174.25 100.186 174.283 100.35 174.283 100.514C174.283 101.353 174.267 102.192 174.283 103.031C174.299 103.359 174.217 103.475 173.872 103.458C172.967 103.425 172.063 103.425 171.158 103.458C170.796 103.475 170.714 103.359 170.714 102.998C170.73 98.9193 170.714 94.8244 170.714 90.7461C170.714 88.2629 170.714 85.7962 170.698 83.313C170.698 82.9512 170.764 82.8032 171.175 82.8196C171.997 82.8525 172.819 82.8525 173.641 82.8196C174.135 82.7867 174.299 82.9018 174.283 83.4445C174.25 87.3749 174.267 91.3052 174.267 95.2356C174.267 95.3836 174.267 95.5316 174.267 95.6796C174.332 95.6796 174.365 95.6961 174.398 95.6961Z" fill="#FFE5E5"/>
<path d="M139.617 95.6467C139.617 93.1965 139.633 90.7626 139.6 88.3123C139.6 87.8683 139.732 87.7531 140.143 87.786C140.685 87.8189 141.244 87.8189 141.788 87.786C142.132 87.7696 142.363 87.8518 142.478 88.2136C142.593 88.5754 142.806 88.8878 142.922 89.2496C143.037 89.595 143.185 89.6443 143.514 89.4799C144.583 88.9536 145.701 88.5096 146.754 87.9505C147.576 87.5065 148.381 87.5722 149.154 87.9176C150.898 88.6741 151.786 90.0719 151.999 91.9302C152.098 92.8511 152.065 93.772 152.065 94.6929C152.065 97.4393 152.065 100.202 152.082 102.948C152.082 103.359 151.966 103.458 151.572 103.442C150.734 103.409 149.894 103.409 149.056 103.442C148.628 103.458 148.48 103.376 148.496 102.899C148.53 99.8402 148.514 96.7815 148.514 93.7062C148.514 93.328 148.496 92.9498 148.431 92.588C148.217 91.3875 147.132 90.7954 145.997 91.2559C145.208 91.5848 144.435 91.9302 143.629 92.2262C143.284 92.3577 143.185 92.5386 143.185 92.9004C143.201 96.2388 143.185 99.5771 143.201 102.899C143.201 103.327 143.087 103.442 142.675 103.425C141.837 103.392 140.997 103.392 140.159 103.425C139.748 103.442 139.617 103.343 139.617 102.899C139.633 100.498 139.617 98.0806 139.617 95.6467Z" fill="#FFE5E5"/>
<path d="M244.19 95.4165C244.19 97.9326 244.174 100.449 244.207 102.965C244.207 103.376 244.092 103.475 243.697 103.458C242.76 103.425 241.823 103.425 240.868 103.458C240.474 103.475 240.358 103.359 240.358 102.965C240.375 97.9326 240.358 92.9168 240.375 87.8847C240.375 87.4571 240.293 87.3091 239.832 87.3255C238.418 87.3584 236.987 87.3255 235.573 87.342C235.228 87.342 235.146 87.2433 235.146 86.9144C235.162 86.0593 235.162 85.2041 235.146 84.349C235.146 84.053 235.195 83.9379 235.54 83.9379C240.063 83.9543 244.569 83.9543 249.091 83.9379C249.354 83.9379 249.436 84.0036 249.436 84.2832C249.42 85.1712 249.42 86.0593 249.436 86.9473C249.436 87.2598 249.354 87.3584 249.041 87.342C247.594 87.3255 246.131 87.3584 244.684 87.3255C244.256 87.3091 244.19 87.4571 244.19 87.8353C244.19 90.3514 244.19 92.8839 244.19 95.4165Z" fill="#FFE5E5"/>
<path d="M228.353 93.6405C228.353 90.5652 228.371 87.49 228.337 84.3983C228.337 83.9872 228.452 83.8886 228.847 83.905C229.818 83.9379 230.804 83.9214 231.774 83.905C232.087 83.905 232.169 83.9872 232.169 84.2997C232.153 90.5488 232.153 96.7815 232.169 103.031C232.169 103.376 232.07 103.458 231.742 103.442C230.771 103.425 229.785 103.409 228.814 103.442C228.436 103.458 228.337 103.359 228.337 102.965C228.371 99.8731 228.353 96.7485 228.353 93.6405Z" fill="#FFE5E5"/>
<path fill-rule="evenodd" clip-rule="evenodd" d="M162.743 100.525C162.953 100.413 163.165 100.3 163.379 100.186C163.36 100.525 163.343 100.856 163.327 101.182C163.288 101.946 163.251 102.677 163.182 103.392C163.083 104.33 162.574 104.823 161.653 105.004C160.912 105.135 160.189 105.086 159.465 104.889C158.972 104.757 158.611 104.478 158.561 103.919C158.528 103.625 158.367 103.639 158.172 103.655L158.166 103.655C157.952 103.668 157.739 103.681 157.525 103.694C156.884 103.735 156.242 103.775 155.601 103.787C155.19 103.803 155.173 103.968 155.206 104.297C155.388 105.892 156.276 106.961 157.755 107.52C159.581 108.211 161.472 108.277 163.347 107.767C165.402 107.208 166.636 105.678 166.768 103.54C166.817 102.652 166.817 101.764 166.817 100.876C166.825 98.7631 166.825 96.6457 166.825 94.5264C166.825 92.4071 166.825 90.2857 166.833 88.1643C166.833 87.7531 166.75 87.638 166.323 87.6874C165.829 87.7533 165.341 87.7752 164.852 87.7972C164.608 87.8081 164.365 87.819 164.119 87.8354C163.196 87.9031 162.272 87.8967 161.35 87.8903C160.481 87.8843 159.612 87.8782 158.742 87.934C156.555 88.0656 155.141 89.2167 154.664 91.3711C154.17 93.6734 154.137 95.9921 154.598 98.2944C155.091 100.794 156.703 102.126 159.137 102.225C159.433 102.241 159.696 102.175 159.959 102.027C160.863 101.528 161.78 101.039 162.743 100.525ZM163.278 95.0054C163.279 94.7204 163.281 94.4353 163.281 94.1503C163.281 93.9285 163.28 93.7068 163.278 93.4848C163.276 92.8177 163.273 92.1484 163.298 91.4697C163.298 91.1737 163.215 91.0915 162.919 91.0915C162.449 91.1102 161.979 91.1076 161.509 91.1049C161.157 91.1029 160.805 91.1009 160.453 91.1079C159.219 91.1244 158.479 91.6835 158.166 92.8511C157.838 94.068 157.772 95.3179 157.986 96.5676C158.265 98.1793 159.778 98.9029 161.225 98.1464C161.417 98.0477 161.609 97.9471 161.801 97.8466C162.184 97.6457 162.568 97.4447 162.952 97.2584C163.182 97.1433 163.281 96.9952 163.281 96.7157C163.27 96.1456 163.274 95.5755 163.278 95.0054Z" fill="#FFE5E5"/>
<path fill-rule="evenodd" clip-rule="evenodd" d="M136.722 99.3797C136.985 98.1793 137.035 96.9459 137.084 95.6632C137.068 94.6271 137.018 93.5253 136.805 92.4564C136.311 89.8416 134.88 88.3122 132.43 87.786C131.443 87.5722 130.424 87.5887 129.421 87.6544C126.724 87.8518 124.915 89.3318 124.29 91.9466C123.681 94.4792 123.731 97.028 124.323 99.5606C124.833 101.682 126.115 103.113 128.286 103.606C129.585 103.902 130.884 103.919 132.2 103.705C134.716 103.31 136.163 101.814 136.722 99.3797ZM133.318 98.3437C133.532 97.4557 133.532 96.5512 133.516 95.6467C133.532 94.8902 133.532 94.1338 133.433 93.3938C133.318 92.5715 133.088 91.815 132.381 91.3052C130.72 90.1212 128.237 90.8941 127.743 92.8675C127.266 94.7587 127.283 96.6992 127.809 98.5903C128.204 100.021 129.24 100.679 130.687 100.613C132.101 100.531 132.989 99.7909 133.318 98.3437Z" fill="#FFE5E5"/>
<path fill-rule="evenodd" clip-rule="evenodd" d="M197.766 99.4126C198.045 98.1793 198.095 96.9294 198.128 95.6138C198.112 94.6107 198.079 93.5417 197.865 92.4893C197.371 89.8745 195.973 88.3287 193.507 87.8024C192.487 87.5722 191.435 87.5722 190.399 87.6709C187.685 87.9176 185.991 89.3483 185.35 91.9959C184.741 94.5284 184.775 97.0774 185.383 99.61C185.909 101.781 187.258 103.195 189.51 103.655C190.694 103.886 191.879 103.919 193.079 103.738C195.678 103.359 197.175 101.962 197.766 99.4126ZM194.378 98.3273C194.593 97.4392 194.593 96.5347 194.575 95.6303C194.593 94.9067 194.593 94.1667 194.494 93.4431C194.378 92.6044 194.148 91.8315 193.425 91.3052C191.764 90.1048 189.264 90.8941 188.787 92.8675C188.31 94.7587 188.326 96.6992 188.853 98.5903C189.264 100.005 190.3 100.679 191.748 100.597C193.178 100.514 194.049 99.7579 194.378 98.3273Z" fill="#FFE5E5"/>
<path d="M249.425 117.489C249.268 117.489 249.092 117.489 248.935 117.489C248.097 117.489 248.097 117.489 247.852 116.703C247.748 116.651 247.695 116.738 247.643 116.808C246.856 117.647 245.459 117.891 244.446 117.349C243.851 117.035 243.519 116.511 243.449 115.882C243.275 114.292 243.414 112.685 243.38 111.095C243.38 110.903 243.467 110.833 243.642 110.85C243.659 110.85 243.677 110.85 243.694 110.85C245.179 110.728 245.179 110.728 245.179 112.196C245.179 113.087 245.162 113.978 245.179 114.869C245.196 115.725 245.529 116.144 246.175 116.196C246.909 116.249 247.433 115.847 247.572 115.043C247.782 113.838 247.66 112.615 247.66 111.392C247.66 110.938 247.782 110.78 248.236 110.833C248.638 110.885 249.04 110.85 249.425 110.868C249.425 113.052 249.425 115.27 249.425 117.489Z" fill="#FFE5E5"/>
<path d="M201.834 113.733C202.55 112.842 203.337 112.056 204.053 111.217C204.315 110.92 204.577 110.763 204.979 110.798C205.433 110.833 205.869 110.798 206.463 110.798C205.869 111.462 205.363 112.021 204.857 112.597C204.524 112.964 203.982 113.331 203.965 113.716C203.948 114.1 204.472 114.502 204.751 114.904C205.363 115.742 205.975 116.563 206.656 117.472C205.957 117.472 205.328 117.472 204.699 117.472C204.489 117.472 204.437 117.297 204.35 117.175C203.896 116.546 203.458 115.899 202.987 115.27C202.864 115.113 202.795 114.746 202.567 114.886C202.288 115.043 201.886 115.183 201.886 115.655C201.886 116.144 201.869 116.633 201.886 117.122C201.903 117.402 201.834 117.489 201.536 117.489C200.069 117.524 200.069 117.542 200.069 116.109C200.069 113.646 200.087 111.165 200.052 108.701C200.052 108.3 200.139 108.177 200.558 108.177C201.886 108.195 201.886 108.177 201.886 109.488C201.869 110.903 201.938 112.3 201.834 113.733Z" fill="#FFE5E5"/>
<path d="M216.491 111.794C217.278 110.78 218.151 110.588 219.148 110.71C220.143 110.833 220.842 111.444 220.947 112.44C221.122 114.03 220.982 115.637 221.017 117.227C221.017 117.419 220.947 117.489 220.754 117.472C220.72 117.472 220.685 117.472 220.65 117.472C219.2 117.542 219.2 117.542 219.2 116.074C219.2 115.2 219.217 114.327 219.2 113.453C219.182 112.58 218.868 112.161 218.239 112.108C217.435 112.056 216.946 112.423 216.807 113.261C216.597 114.484 216.719 115.725 216.719 116.948C216.719 117.349 216.631 117.507 216.212 117.454C215.793 117.402 215.216 117.646 214.954 117.349C214.745 117.105 214.902 116.546 214.885 116.126C214.885 114.519 214.902 112.894 214.867 111.287C214.867 110.85 215.007 110.78 215.408 110.763C216.072 110.763 216.544 110.833 216.491 111.794Z" fill="#FFE5E5"/>
<path d="M239.553 111.968C240.095 111.147 240.742 110.658 241.685 110.675C242.034 110.693 242.296 110.728 242.157 111.182C242.157 111.2 242.157 111.217 242.157 111.235C242.139 111.584 242.209 111.986 242.052 112.248C241.877 112.562 241.423 112.318 241.108 112.388C240.2 112.58 239.728 113.104 239.711 114.047C239.693 115.043 239.693 116.039 239.711 117.035C239.711 117.349 239.658 117.472 239.309 117.472C237.894 117.489 237.894 117.489 237.894 116.091C237.894 114.502 237.911 112.894 237.876 111.304C237.876 110.85 238.016 110.763 238.418 110.78C239.239 110.833 239.239 110.798 239.553 111.968Z" fill="#FFE5E5"/>
<path fill-rule="evenodd" clip-rule="evenodd" d="M223.413 117.495C223.961 117.517 224.501 117.539 224.581 116.703C224.632 116.745 224.674 116.775 224.71 116.801C224.749 116.828 224.781 116.851 224.808 116.878C226.188 118.153 228.145 117.751 228.774 115.987C229.228 114.729 229.228 113.418 228.721 112.161C228.355 111.252 227.691 110.728 226.694 110.676C225.892 110.641 225.227 110.92 224.703 111.654V109.557C224.703 108.827 224.703 108.464 224.522 108.293C224.34 108.12 223.973 108.142 223.235 108.177C222.956 108.195 222.904 108.282 222.904 108.527C222.921 111.392 222.921 114.257 222.904 117.122C222.904 117.419 222.991 117.489 223.271 117.489C223.318 117.491 223.365 117.493 223.413 117.495ZM227.01 115.375C227.201 114.973 227.219 114.537 227.219 114.1C227.219 113.663 227.201 113.244 226.992 112.825C226.765 112.318 226.38 112.091 225.821 112.126C225.28 112.178 224.931 112.458 224.808 112.964C224.598 113.733 224.615 114.502 224.826 115.27C224.983 115.812 225.35 116.074 225.909 116.109C226.468 116.144 226.799 115.847 227.01 115.375Z" fill="#FFE5E5"/>
<path fill-rule="evenodd" clip-rule="evenodd" d="M185.431 112.121C185.429 112.448 185.428 112.776 185.428 113.104C185.428 113.299 185.428 113.495 185.427 113.692C185.424 114.479 185.421 115.273 185.464 116.057C185.464 116.188 185.445 116.335 185.428 116.485C185.385 116.851 185.339 117.228 185.551 117.402C185.734 117.55 186.058 117.527 186.394 117.503C186.57 117.49 186.75 117.477 186.913 117.489C187.228 117.507 187.298 117.402 187.298 117.087C187.289 116.703 187.289 116.323 187.289 115.943C187.289 115.563 187.289 115.183 187.281 114.799C187.281 114.467 187.35 114.344 187.7 114.362C188.084 114.379 188.486 114.362 188.887 114.309C190.425 114.135 191.368 113.121 191.421 111.619C191.473 110.029 190.722 109.086 189.08 108.824C188.432 108.728 187.779 108.742 187.126 108.756C186.705 108.765 186.284 108.774 185.865 108.754C185.516 108.736 185.411 108.824 185.411 109.191C185.437 110.16 185.434 111.139 185.431 112.121ZM187.257 111.474C187.26 111.519 187.263 111.577 187.263 111.654C187.303 111.78 187.28 111.941 187.256 112.108C187.216 112.381 187.176 112.668 187.403 112.842C187.7 113.052 188.241 112.894 188.661 112.772C189.325 112.58 189.674 111.951 189.534 111.235C189.377 110.431 188.713 110.064 187.525 110.291C187.16 110.36 187.204 110.629 187.251 110.905C187.275 111.052 187.299 111.201 187.263 111.322C187.253 111.364 187.255 111.406 187.257 111.474Z" fill="#FFE5E5"/>
<path fill-rule="evenodd" clip-rule="evenodd" d="M231.482 117.489C232.6 117.751 233.613 117.577 234.399 116.546C234.829 117.542 234.836 117.542 235.684 117.475L235.727 117.472C235.972 117.472 236.024 117.384 236.024 117.157C236.024 116.781 236.025 116.405 236.027 116.031C236.03 114.91 236.033 113.798 236.006 112.685C235.972 111.776 235.447 111.095 234.574 110.833C233.351 110.466 232.163 110.606 231.01 111.112C230.988 111.122 230.964 111.13 230.941 111.138C230.833 111.176 230.726 111.214 230.783 111.357C230.82 111.44 230.856 111.527 230.892 111.614C231.005 111.89 231.121 112.171 231.307 112.37C231.439 112.502 231.619 112.404 231.799 112.307C231.881 112.262 231.963 112.217 232.041 112.196C232.513 112.056 233.001 111.951 233.491 112.021C233.998 112.091 234.312 112.527 234.242 113.052C234.191 113.427 233.947 113.38 233.725 113.338C233.647 113.323 233.572 113.309 233.508 113.314C233.468 113.316 233.427 113.319 233.387 113.321C232.606 113.37 231.829 113.419 231.115 113.768C230.381 114.152 230.049 114.816 230.136 115.777C230.224 116.668 230.678 117.297 231.482 117.489ZM234.242 115.078C234.33 114.414 234.312 114.379 233.526 114.414C233.212 114.414 232.827 114.432 232.46 114.641C232.041 114.886 231.918 115.27 232.006 115.707C232.111 116.161 232.477 116.266 232.879 116.266C233.631 116.266 234.155 115.812 234.242 115.078Z" fill="#FFE5E5"/>
<path fill-rule="evenodd" clip-rule="evenodd" d="M198.213 116.141C198.215 116.011 198.217 115.879 198.217 115.742C198.008 115.829 197.833 115.899 197.675 115.934C196.994 116.161 196.278 116.319 195.544 116.179C194.932 116.074 194.513 115.62 194.391 115.026C194.321 114.694 194.391 114.572 194.758 114.589C195.376 114.601 195.992 114.597 196.61 114.593C196.919 114.591 197.227 114.589 197.535 114.589C198.106 114.589 198.394 114.589 198.529 114.445C198.668 114.298 198.646 114.001 198.601 113.401C198.479 111.968 197.746 111.042 196.505 110.745C194.461 110.274 192.853 111.339 192.539 113.401C192.47 113.89 192.47 114.379 192.539 114.869C192.696 115.969 193.186 116.843 194.252 117.28C195.474 117.786 196.697 117.681 197.92 117.262C198.113 117.21 198.234 117.105 198.217 116.878C198.205 116.636 198.209 116.393 198.213 116.141ZM195.372 113.362C195.469 113.364 195.566 113.366 195.667 113.366C195.761 113.366 195.856 113.364 195.949 113.362C196.131 113.358 196.309 113.355 196.47 113.366C196.907 113.419 196.924 113.191 196.837 112.877C196.697 112.3 196.243 111.951 195.649 111.951C195.037 111.951 194.635 112.265 194.444 112.859C194.321 113.209 194.338 113.419 194.792 113.366C194.99 113.355 195.18 113.358 195.372 113.362Z" fill="#FFE5E5"/>
<path fill-rule="evenodd" clip-rule="evenodd" d="M208.473 117.489C209.608 117.786 210.639 117.577 211.425 116.563C211.862 117.559 211.862 117.559 212.788 117.507C212.98 117.489 213.067 117.454 213.067 117.227C213.061 116.709 213.059 116.194 213.058 115.679C213.054 114.649 213.05 113.623 213.015 112.597C212.998 111.689 212.439 111.095 211.566 110.85C210.36 110.501 209.189 110.658 208.053 111.13C207.791 111.235 207.809 111.339 207.914 111.567C208.114 111.993 208.211 112.207 208.371 112.282C208.532 112.357 208.76 112.292 209.224 112.161C209.661 112.038 210.115 111.968 210.569 112.038C211.041 112.108 211.303 112.527 211.268 113.052C211.229 113.467 210.979 113.41 210.759 113.36C210.683 113.343 210.61 113.327 210.552 113.331C210.479 113.336 210.406 113.34 210.334 113.344C209.583 113.389 208.824 113.435 208.123 113.785C207.424 114.135 207.093 114.816 207.162 115.69C207.232 116.651 207.669 117.28 208.473 117.489ZM211.268 115.043C211.303 114.572 211.268 114.222 210.726 114.414C210.272 114.414 209.905 114.432 209.539 114.606C209.102 114.834 208.944 115.218 209.032 115.69C209.119 116.179 209.521 116.266 209.941 116.266C210.691 116.266 211.198 115.777 211.268 115.043Z" fill="#FFE5E5"/>
</g>
<defs>
<clipPath id="clip0_632_54">
<rect width="300" height="200" fill="#FFE5E5"/>
</clipPath>
</defs>
</svg>
