<svg width="217" height="40" viewBox="0 0 217 40" fill="none" xmlns="http://www.w3.org/2000/svg" id="kongkow-logo">
	<g clip-path="url(#clip0_626_2)">
		<path d="M0.814957 17.6166C1.12703 18.1061 1.41462 18.5834 1.73281 19.0423C7.47244 27.3459 15.1457 32.957 24.8994 35.6616C26.8575 36.2061 28.8462 36.5672 30.8655 36.8059C33.5027 37.124 36.1462 37.1913 38.7896 37.0567C42.1427 36.8854 45.4532 36.3898 48.7207 35.6249C48.739 35.6187 48.7575 35.6249 48.788 35.6432C48.5739 35.735 48.3659 35.833 48.1516 35.9247C47.9375 36.0165 47.7172 36.1083 47.503 36.194C44.3517 37.4544 41.0964 38.354 37.7432 38.9047C35.1671 39.3269 32.5787 39.5227 29.9721 39.4248C21.2402 39.1188 13.8913 35.8145 8.04152 29.2795C5.27572 26.1894 3.14018 22.6954 1.39014 18.9505C1.19434 18.5284 1.01076 18.1061 0.821077 17.6839C0.814958 17.6779 0.814957 17.6594 0.814957 17.6166Z" fill="#1D1819"/>
		<path d="M30.9574 0C30.4188 0.446688 29.8926 0.911733 29.4337 1.43797C28.6994 2.28851 28.1855 3.24308 28.0202 4.36286C27.8734 5.35414 27.9897 6.32706 28.2527 7.28774C28.5771 8.46872 29.091 9.57014 29.6723 10.6471C30.0517 11.3569 30.3638 12.0912 30.4923 12.8866C30.7309 14.3614 30.2169 15.5056 28.9809 16.3316C28.1181 16.9068 27.1513 17.1944 26.1417 17.3658C25.9948 17.3902 25.848 17.4086 25.6767 17.4269C25.7134 17.3902 25.7317 17.3719 25.75 17.3596C27.035 16.454 27.4879 15.1936 27.0657 13.676C26.8699 12.9723 26.5578 12.3237 26.1295 11.7301C25.3646 10.6593 24.716 9.5273 24.3794 8.24231C23.8165 6.06394 24.4039 4.216 26.0132 2.67401C27.1268 1.60318 28.4608 0.893376 29.8865 0.336546C30.2353 0.201928 30.5901 0.0856662 30.9574 0Z" fill="#1D1819"/>
		<path d="M23.8958 17.4759C24.0733 17.2006 24.2141 16.913 24.263 16.5825C24.3487 16.0624 24.2141 15.5974 23.9326 15.1691C23.6817 14.7775 23.3635 14.4531 22.9841 14.19C22.4457 13.8106 21.9378 13.4007 21.5217 12.8866C20.9649 12.2074 20.61 11.4487 20.6345 10.5553C20.6466 10.1147 20.7506 9.6864 20.9281 9.28255C21.436 8.1077 22.311 7.24492 23.3329 6.4984C23.2534 6.63913 23.1738 6.77376 23.0943 6.91449C22.1887 8.48707 22.3172 9.9801 23.4247 11.4059C23.8408 11.9443 24.3242 12.4277 24.826 12.8866C25.1869 13.2171 25.5112 13.5903 25.7315 14.0309C26.0926 14.7468 26.0559 15.4444 25.603 16.1053C25.1686 16.7294 24.569 17.1455 23.8958 17.4759Z" fill="#1D1819"/>
		<path d="M0.0440054 21.0005C0.815001 23.0564 1.83688 24.9778 3.05456 26.8013C7.36847 33.2569 13.2549 37.6014 20.6467 39.9327C20.7018 39.951 20.7507 39.9694 20.8059 40C20.4999 39.9877 20.2 39.9204 19.9002 39.8532C15.2436 38.7945 11.1011 36.7202 7.55204 33.5016C4.30896 30.5645 2.04493 26.9787 0.582479 22.8667C0.368313 22.261 0.166385 21.6552 0.00117242 21.0372C-0.00494659 20.9944 0.0134102 20.9882 0.0440054 21.0005Z" fill="#1D1819"/>
		<path fill-rule="evenodd" clip-rule="evenodd" d="M32.7746 19.5502H22.6338C19.2566 19.5502 15.8733 19.5502 12.4962 19.5624C12.3738 19.5624 12.2515 19.5624 12.1352 19.5809C11.7313 19.642 11.5416 19.8623 11.5416 20.2661C11.5416 22.059 11.5416 23.8457 11.5478 25.6326C11.5478 26.5076 11.6885 27.3642 11.9149 28.2087C11.9394 28.3127 11.9944 28.3861 12.0801 28.4473C15.9718 31.366 20.2551 33.5077 24.93 34.8661C25.028 34.8906 25.1136 34.9028 25.2115 34.8845C25.9642 34.7438 26.7045 34.5602 27.4266 34.3154C27.5034 34.2887 27.5803 34.2622 27.6572 34.2358C28.2671 34.0263 28.8773 33.8167 29.4153 33.4527C30.7553 32.5348 31.7833 31.3232 32.5788 29.9159C32.6461 29.7935 32.7196 29.7506 32.8603 29.7506C33.2915 29.7598 33.7192 29.7586 34.1486 29.7576C34.2921 29.7572 34.4357 29.7568 34.5797 29.7568C34.6878 29.7549 34.7954 29.7558 34.9026 29.7567C35.1595 29.7587 35.4142 29.7607 35.6689 29.7261C37.9329 29.408 39.4076 27.2725 38.8936 25.0452C38.5325 23.4909 37.1864 22.2976 35.5955 22.1325C35.2208 22.0908 34.8434 22.0974 34.467 22.1038C34.29 22.1069 34.1133 22.1099 33.9372 22.108C33.8026 22.108 33.772 22.0713 33.772 21.9367C33.7761 21.5616 33.7747 21.1893 33.7733 20.816C33.7726 20.629 33.772 20.4418 33.772 20.2539C33.772 19.948 33.6435 19.7522 33.3559 19.6359C33.1662 19.5624 32.9704 19.5502 32.7746 19.5502ZM33.7659 23.6989V24.8982C33.8148 25.8467 33.6863 26.9237 33.3192 27.9761C33.2764 28.1046 33.3192 28.123 33.4355 28.123C33.6873 28.1204 33.9379 28.1211 34.1885 28.1218C34.5223 28.1228 34.856 28.1239 35.1916 28.1169C36.3542 28.0924 37.3272 27.2174 37.4312 26.122C37.5475 24.9044 36.8131 23.8642 35.6322 23.6194C35.2404 23.5377 34.8405 23.5487 34.4416 23.5596C34.2423 23.565 34.0432 23.5704 33.8454 23.5643C33.758 23.5592 33.7613 23.6145 33.7646 23.6687C33.7652 23.679 33.7659 23.6892 33.7659 23.6989Z" fill="#E52129"/>
		<path d="M61.4634 3.15932C62.7013 3.14163 63.9216 3.15933 65.1596 3.12396C65.5132 3.12396 65.5309 3.28312 65.5309 3.56608C65.5309 5.45837 65.5309 7.35065 65.5309 9.24295C65.5309 11.0468 65.5309 12.8507 65.5309 14.7076C65.7608 14.6014 65.8316 14.4069 65.92 14.2654C68.3428 10.6932 70.7656 7.12075 73.1708 3.53071C73.3653 3.24775 73.5599 3.10627 73.9136 3.12396C75.0807 3.15933 76.2657 3.14164 77.4506 3.14164C77.4683 3.4246 77.2737 3.56608 77.1676 3.72524C75.1869 6.64326 73.2239 9.57896 71.2254 12.4793C70.9602 12.8684 70.9248 13.1336 71.2078 13.5404C73.4007 16.8828 75.576 20.243 77.7689 23.6031C77.875 23.7623 77.9635 23.9038 78.1049 24.1514C77.0792 24.1514 76.1419 24.1514 75.2046 24.1514C74.5856 24.1514 73.8428 24.3282 73.3653 24.0629C72.9055 23.8153 72.6933 23.0902 72.375 22.5774C71.084 20.5083 69.793 18.4391 68.4843 16.3699C68.4666 16.3346 68.4313 16.317 68.3606 16.2462C67.6354 17.2188 66.9457 18.1915 66.1852 19.1289C65.6901 19.7301 65.4602 20.3491 65.5132 21.1272C65.584 21.9938 65.5132 22.8604 65.5309 23.7269C65.5486 24.0629 65.4425 24.1691 65.1065 24.1691C63.8862 24.1514 62.6837 24.1691 61.4634 24.1691C61.4634 17.1481 61.4634 10.1625 61.4634 3.15932Z" fill="#1D1819"/>
		<path d="M171.411 13.9118C171.004 15.1851 170.651 16.317 170.297 17.4488C169.642 19.5356 168.971 21.6047 168.334 23.6915C168.227 24.0276 168.103 24.1513 167.733 24.1513C166.954 24.116 166.194 24.1337 165.416 24.1513C165.133 24.1513 165.009 24.0983 164.92 23.7977C163.435 18.4215 161.932 13.0629 160.411 7.68668C160.304 7.31529 160.428 7.29762 160.729 7.29762C161.738 7.31529 162.745 7.33298 163.771 7.27993C164.301 7.24456 164.443 7.45678 164.549 7.91658C165.274 11.1883 166.017 14.46 166.76 17.7494C166.778 17.8555 166.813 17.9439 166.884 18.1915C167.414 16.3169 167.909 14.6015 168.404 12.8861C168.776 11.595 169.147 10.304 169.501 9.03074C169.607 8.65935 169.748 8.30565 169.996 7.98733C170.792 6.97928 172.331 7.08539 172.949 8.21723C173.515 9.27833 173.71 10.4809 174.046 11.6128C174.647 13.6288 175.213 15.6625 175.797 17.6964C175.832 17.8379 175.832 17.997 175.991 18.1031C176.77 14.6545 177.565 11.206 178.326 7.75741C178.414 7.38603 178.555 7.29762 178.909 7.29762C179.935 7.31529 180.961 7.31529 182.004 7.29762C182.358 7.29762 182.482 7.31529 182.358 7.73973C180.855 13.0629 179.386 18.4037 177.901 23.7446C177.83 24.0276 177.724 24.1691 177.388 24.1513C176.592 24.116 175.815 24.116 175.019 24.1513C174.683 24.1691 174.577 24.0276 174.488 23.7446C173.48 20.526 172.472 17.3073 171.411 13.9118Z" fill="#1D1819"/>
		<path d="M133.778 15.8041C135.121 13.788 136.483 11.7895 137.827 9.77345C138.163 9.27831 138.499 8.76545 138.835 8.27027C138.959 8.09342 139.083 7.98732 139.312 7.98732C140.621 8.005 141.912 7.98732 143.22 7.98732C143.292 8.21722 143.115 8.30564 143.026 8.42944C141.418 10.6401 139.808 12.8507 138.18 15.0612C137.915 15.415 137.898 15.6272 138.18 15.9986C140.126 18.5098 142.036 21.0565 143.946 23.5854C144.07 23.7446 144.176 23.9038 144.353 24.1336C142.815 24.1336 141.364 24.1336 139.897 24.1336C139.666 24.1336 139.614 23.9214 139.507 23.78C138.234 22.0822 136.979 20.3845 135.723 18.7044C135.599 18.5452 135.475 18.386 135.334 18.1915C134.785 18.9696 134.272 19.7125 133.741 20.4552C133.619 20.6321 133.654 20.8089 133.654 20.9857C133.654 21.8877 133.636 22.7896 133.654 23.6916C133.671 24.0452 133.582 24.169 133.212 24.1514C132.239 24.116 131.266 24.116 130.294 24.1514C129.904 24.169 129.816 24.0452 129.816 23.6562C129.833 19.2703 129.816 14.8667 129.816 10.4809C129.816 7.81046 129.816 5.15772 129.798 2.48729C129.798 2.09822 129.869 1.93906 130.311 1.95674C131.195 1.99211 132.079 1.99211 132.964 1.95674C133.495 1.92137 133.671 2.04517 133.654 2.62877C133.619 6.85547 133.636 11.0821 133.636 15.3089C133.636 15.4681 133.636 15.6272 133.636 15.7864C133.706 15.7864 133.741 15.8041 133.778 15.8041Z" fill="#1D1819"/>
		<path d="M96.3735 15.751C96.3735 13.116 96.3911 10.4986 96.3557 7.86354C96.3557 7.38605 96.4973 7.26225 96.9393 7.29762C97.5229 7.33299 98.1239 7.33299 98.7083 7.29762C99.079 7.27993 99.3268 7.36835 99.4507 7.75743C99.5746 8.14649 99.8039 8.48252 99.9278 8.87158C100.052 9.24297 100.211 9.29602 100.565 9.11917C101.714 8.55325 102.917 8.07576 104.049 7.47447C104.933 6.99698 105.799 7.06771 106.63 7.4391C108.505 8.25261 109.46 9.75583 109.69 11.7542C109.796 12.7446 109.761 13.7349 109.761 14.7253C109.761 17.6787 109.761 20.6498 109.778 23.6031C109.778 24.0453 109.655 24.1514 109.23 24.1337C108.329 24.0984 107.426 24.0984 106.525 24.1337C106.064 24.1514 105.905 24.0629 105.923 23.5502C105.959 20.2607 105.941 16.9713 105.941 13.6642C105.941 13.2575 105.923 12.8507 105.853 12.4617C105.622 11.1706 104.456 10.534 103.235 11.0292C102.386 11.3828 101.555 11.7542 100.689 12.0726C100.317 12.2141 100.211 12.4086 100.211 12.7977C100.228 16.3877 100.211 19.9778 100.228 23.5502C100.228 24.01 100.105 24.1337 99.6624 24.116C98.761 24.0807 97.8586 24.0807 96.9571 24.116C96.5149 24.1337 96.3735 24.0276 96.3735 23.5502C96.3911 20.9681 96.3735 18.3684 96.3735 15.751Z" fill="#1D1819"/>
		<path d="M208.832 15.5034C208.832 18.2092 208.815 20.915 208.85 23.6208C208.85 24.0629 208.726 24.1691 208.301 24.1513C207.294 24.116 206.286 24.116 205.259 24.1513C204.835 24.1691 204.711 24.0452 204.711 23.6208C204.729 18.2092 204.711 12.8153 204.729 7.4037C204.729 6.94389 204.641 6.78473 204.145 6.80241C202.624 6.83779 201.086 6.80241 199.565 6.8201C199.194 6.8201 199.105 6.71399 199.105 6.3603C199.123 5.44068 199.123 4.52106 199.105 3.60144C199.105 3.28311 199.158 3.15931 199.53 3.15931C204.393 3.177 209.239 3.177 214.102 3.15931C214.385 3.15931 214.473 3.23006 214.473 3.53071C214.456 4.48569 214.456 5.44068 214.473 6.39566C214.473 6.73168 214.385 6.83778 214.049 6.8201C212.493 6.80241 210.919 6.83779 209.363 6.80241C208.902 6.78473 208.832 6.9439 208.832 7.35065C208.832 10.0565 208.832 12.7799 208.832 15.5034Z" fill="#1D1819"/>
		<path d="M191.801 13.5935C191.801 10.2863 191.819 6.97929 191.783 3.65452C191.783 3.2124 191.907 3.10629 192.332 3.12397C193.376 3.15934 194.436 3.14165 195.48 3.12397C195.816 3.12397 195.904 3.21239 195.904 3.54841C195.887 10.2687 195.887 16.9713 195.904 23.6915C195.904 24.0629 195.798 24.1513 195.445 24.1337C194.401 24.116 193.34 24.0983 192.297 24.1337C191.89 24.1513 191.783 24.0453 191.783 23.6208C191.819 20.296 191.801 16.9359 191.801 13.5935Z" fill="#1D1819"/>
		<path fill-rule="evenodd" clip-rule="evenodd" d="M121.244 20.9974C121.469 20.8771 121.698 20.7554 121.928 20.6321C121.907 20.9968 121.889 21.3536 121.871 21.7038C121.83 22.5257 121.79 23.3119 121.716 24.0807C121.61 25.0887 121.061 25.6192 120.071 25.8138C119.275 25.9552 118.498 25.9022 117.719 25.69C117.188 25.5485 116.8 25.2479 116.746 24.6465C116.711 24.3311 116.538 24.3457 116.328 24.3631L116.322 24.3636C116.092 24.3769 115.862 24.3912 115.632 24.4056C114.942 24.4487 114.253 24.4918 113.563 24.5051C113.121 24.5227 113.103 24.6996 113.139 25.0534C113.334 26.7688 114.289 27.9182 115.88 28.5196C117.843 29.2623 119.877 29.3331 121.893 28.7849C124.103 28.1836 125.43 26.5388 125.572 24.2398C125.624 23.2849 125.624 22.3299 125.624 21.3748C125.633 19.1023 125.633 16.8254 125.633 14.5462C125.633 12.2671 125.633 9.98575 125.642 7.70437C125.642 7.26224 125.553 7.13846 125.094 7.19151C124.562 7.26244 124.038 7.28595 123.511 7.30959C123.25 7.32133 122.988 7.33308 122.724 7.35067C121.731 7.42355 120.738 7.41665 119.745 7.40976C118.811 7.40326 117.876 7.39676 116.941 7.45679C114.589 7.59826 113.068 8.83621 112.555 11.153C112.024 13.6289 111.989 16.1224 112.485 18.5983C113.015 21.2864 114.748 22.7189 117.366 22.825C117.684 22.8427 117.967 22.772 118.25 22.6128C119.222 22.0754 120.208 21.55 121.244 20.9974ZM121.819 15.0614C121.82 14.7548 121.822 14.4483 121.822 14.1417C121.822 13.9032 121.821 13.6648 121.82 13.426C121.817 12.7087 121.814 11.9889 121.84 11.259C121.84 10.9408 121.751 10.8523 121.433 10.8523C120.928 10.8725 120.422 10.8697 119.917 10.8667C119.539 10.8646 119.159 10.8624 118.78 10.8699C117.454 10.8877 116.659 11.489 116.322 12.7446C115.969 14.0533 115.898 15.3974 116.128 16.7414C116.428 18.4745 118.056 19.2527 119.612 18.4391C119.818 18.333 120.024 18.2249 120.23 18.1168C120.643 17.9007 121.056 17.6846 121.468 17.4842C121.716 17.3604 121.822 17.2012 121.822 16.9006C121.811 16.2875 121.815 15.6744 121.819 15.0614Z" fill="#1D1819"/>
		<path fill-rule="evenodd" clip-rule="evenodd" d="M93.261 19.7655C93.544 18.4745 93.5971 17.1481 93.6501 15.7687C93.6324 14.6545 93.5793 13.4697 93.3495 12.3201C92.8189 9.50822 91.2803 7.86352 88.6453 7.29759C87.5842 7.06769 86.4877 7.08538 85.4089 7.15612C82.5086 7.36835 80.5632 8.95998 79.8912 11.7719C79.2368 14.4954 79.2899 17.2365 79.9265 19.96C80.4748 22.2414 81.8542 23.78 84.1887 24.3105C85.5857 24.6289 86.9828 24.6465 88.3977 24.4166C91.1034 23.9922 92.6597 22.3828 93.261 19.7655ZM89.6002 18.6513C89.8301 17.6964 89.8301 16.7237 89.8125 15.751C89.8301 14.9375 89.8301 14.124 89.724 13.3282C89.6002 12.4439 89.3527 11.6304 88.5922 11.0821C86.806 9.80887 84.1356 10.6401 83.6051 12.7622C83.0922 14.796 83.1098 16.8828 83.6758 18.9166C84.1002 20.4552 85.2143 21.1626 86.7706 21.0919C88.2915 21.0034 89.2465 20.2076 89.6002 18.6513Z" fill="#1D1819"/>
		<path fill-rule="evenodd" clip-rule="evenodd" d="M158.907 19.8009C159.208 18.4745 159.262 17.1304 159.297 15.7156C159.279 14.6369 159.244 13.4873 159.014 12.3555C158.483 9.54359 156.98 7.88121 154.327 7.31529C153.23 7.0677 152.099 7.06771 150.984 7.17381C148.066 7.43908 146.245 8.97768 145.555 11.825C144.9 14.5484 144.937 17.2896 145.59 20.0131C146.156 22.3475 147.607 23.8684 150.029 24.3636C151.302 24.6111 152.577 24.6465 153.867 24.452C156.662 24.0453 158.271 22.542 158.907 19.8009ZM155.264 18.6337C155.495 17.6786 155.495 16.7059 155.476 15.7334C155.495 14.9552 155.495 14.1594 155.388 13.3813C155.264 12.4793 155.017 11.6481 154.239 11.0821C152.453 9.79122 149.764 10.6401 149.252 12.7622C148.739 14.796 148.756 16.8828 149.322 18.9166C149.764 20.4376 150.878 21.1626 152.435 21.0741C153.974 20.9858 154.91 20.1722 155.264 18.6337Z" fill="#1D1819"/>
		<path d="M214.461 39.2404C214.292 39.2404 214.104 39.2404 213.935 39.2404C213.033 39.2404 213.033 39.2404 212.77 38.3949C212.658 38.3385 212.601 38.4324 212.545 38.5077C211.699 39.4095 210.196 39.6725 209.107 39.0901C208.467 38.7519 208.111 38.1882 208.035 37.5118C207.847 35.8022 207.998 34.0736 207.96 32.3639C207.96 32.1572 208.055 32.082 208.242 32.1008C208.261 32.1008 208.28 32.1008 208.298 32.1008C209.895 31.9693 209.895 31.9693 209.895 33.5475C209.895 34.5057 209.877 35.464 209.895 36.4221C209.914 37.3428 210.272 37.7936 210.966 37.85C211.756 37.9064 212.319 37.4743 212.469 36.61C212.695 35.3136 212.563 33.9985 212.563 32.6833C212.563 32.1948 212.695 32.0257 213.183 32.082C213.615 32.1384 214.048 32.1008 214.461 32.1196C214.461 34.4681 214.461 36.8543 214.461 39.2404Z" fill="#1D1819"/>
		<path d="M163.282 35.2009C164.052 34.2427 164.898 33.3972 165.668 32.4954C165.95 32.176 166.232 32.0069 166.664 32.0444C167.152 32.0821 167.622 32.0444 168.26 32.0444C167.622 32.7585 167.077 33.3596 166.533 33.9796C166.175 34.3742 165.592 34.7688 165.574 35.1821C165.555 35.5955 166.119 36.0276 166.42 36.4597C167.077 37.3615 167.735 38.2446 168.468 39.2216C167.716 39.2216 167.039 39.2216 166.364 39.2216C166.138 39.2216 166.082 39.0337 165.987 38.9021C165.499 38.2257 165.029 37.5306 164.522 36.8543C164.39 36.6851 164.315 36.2907 164.071 36.4409C163.77 36.61 163.338 36.7603 163.338 37.2676C163.338 37.7936 163.319 38.3198 163.338 38.8458C163.357 39.1464 163.282 39.2404 162.962 39.2404C161.384 39.278 161.384 39.2967 161.384 37.7561C161.384 35.1069 161.403 32.439 161.366 29.7899C161.366 29.3578 161.459 29.2263 161.91 29.2263C163.338 29.245 163.338 29.2263 163.338 30.6353C163.319 32.1572 163.394 33.6603 163.282 35.2009Z" fill="#1D1819"/>
		<path d="M179.045 33.1153C179.891 32.0257 180.83 31.819 181.901 31.9505C182.972 32.082 183.723 32.7396 183.836 33.8105C184.024 35.5203 183.874 37.2488 183.911 38.9586C183.911 39.1651 183.836 39.2404 183.629 39.2215C183.592 39.2215 183.555 39.2215 183.517 39.2215C181.957 39.2967 181.957 39.2967 181.957 37.7185C181.957 36.7791 181.976 35.8397 181.957 34.9002C181.939 33.9609 181.601 33.5099 180.924 33.4535C180.059 33.3971 179.534 33.7917 179.384 34.6936C179.158 36.0087 179.289 37.3427 179.289 38.6579C179.289 39.09 179.195 39.2591 178.744 39.2028C178.293 39.1464 177.673 39.4094 177.392 39.09C177.167 38.827 177.336 38.2258 177.317 37.7748C177.317 36.0464 177.336 34.299 177.298 32.5704C177.298 32.1008 177.449 32.0257 177.88 32.0068C178.594 32.0068 179.102 32.082 179.045 33.1153Z" fill="#1D1819"/>
		<path d="M203.846 33.3032C204.428 32.4201 205.124 31.8941 206.138 31.9129C206.513 31.9316 206.795 31.9693 206.645 32.4577C206.645 32.4765 206.645 32.4954 206.645 32.5141C206.626 32.8898 206.701 33.322 206.532 33.6039C206.344 33.942 205.856 33.679 205.517 33.7542C204.541 33.9608 204.033 34.5245 204.015 35.539C203.996 36.61 203.996 37.6808 204.015 38.7518C204.015 39.09 203.959 39.2216 203.582 39.2216C202.061 39.2403 202.061 39.2403 202.061 37.7372C202.061 36.0275 202.079 34.299 202.042 32.5893C202.042 32.1008 202.192 32.0069 202.625 32.0256C203.508 32.082 203.508 32.0444 203.846 33.3032Z" fill="#1D1819"/>
		<path fill-rule="evenodd" clip-rule="evenodd" d="M186.488 39.2461C187.078 39.2702 187.658 39.2939 187.744 38.3949C187.799 38.4402 187.845 38.4723 187.883 38.4999C187.925 38.5294 187.96 38.5536 187.989 38.5827C189.473 39.9543 191.577 39.5222 192.254 37.6246C192.742 36.2718 192.742 34.8627 192.197 33.5099C191.803 32.5329 191.089 31.9693 190.017 31.9129C189.154 31.8754 188.439 32.176 187.876 32.965V30.7105C187.876 29.9249 187.876 29.535 187.681 29.3507C187.485 29.1649 187.09 29.1884 186.297 29.2263C185.997 29.245 185.941 29.3389 185.941 29.602C185.959 32.6832 185.959 35.7645 185.941 38.8458C185.941 39.1652 186.035 39.2404 186.335 39.2404C186.386 39.2418 186.437 39.244 186.488 39.2461ZM190.356 36.967C190.562 36.5348 190.581 36.0651 190.581 35.5954C190.581 35.1258 190.562 34.6748 190.337 34.2239C190.093 33.6791 189.679 33.4348 189.078 33.4724C188.495 33.5288 188.12 33.8293 187.989 34.3742C187.763 35.2009 187.781 36.0276 188.007 36.8542C188.176 37.4367 188.571 37.7185 189.172 37.756C189.773 37.7937 190.13 37.4742 190.356 36.967Z" fill="#1D1819"/>
		<path fill-rule="evenodd" clip-rule="evenodd" d="M145.642 33.4672C145.64 33.8194 145.639 34.1719 145.639 34.5244C145.639 34.7345 145.639 34.9452 145.638 35.1565C145.635 36.0034 145.632 36.8575 145.678 37.6997C145.678 37.841 145.658 37.9996 145.639 38.1601C145.593 38.5542 145.544 38.9594 145.771 39.1464C145.968 39.3062 146.317 39.281 146.678 39.255C146.867 39.2413 147.061 39.2273 147.236 39.2403C147.574 39.2591 147.65 39.1464 147.65 38.8082C147.641 38.3948 147.641 37.986 147.641 37.5774C147.641 37.1688 147.641 36.7602 147.631 36.347C147.631 35.99 147.706 35.8585 148.082 35.8772C148.496 35.896 148.928 35.8772 149.359 35.8209C151.013 35.6329 152.027 34.5433 152.084 32.9274C152.14 31.2178 151.333 30.2032 149.566 29.9214C148.87 29.8186 148.167 29.8338 147.466 29.8489C147.013 29.8586 146.56 29.8684 146.109 29.8462C145.734 29.8275 145.621 29.9214 145.621 30.3159C145.649 31.3584 145.645 32.4115 145.642 33.4672ZM147.607 32.7711C147.61 32.8202 147.613 32.882 147.613 32.9651C147.655 33.1006 147.63 33.274 147.604 33.4536C147.562 33.7468 147.518 34.0562 147.763 34.2426C148.082 34.4682 148.665 34.299 149.116 34.1675C149.83 33.9608 150.205 33.2845 150.055 32.5141C149.886 31.6499 149.172 31.2553 147.895 31.4996C147.502 31.5732 147.549 31.8632 147.599 32.1601C147.625 32.3179 147.651 32.4777 147.613 32.6081C147.601 32.6531 147.603 32.698 147.607 32.7711Z" fill="#1D1819"/>
		<path fill-rule="evenodd" clip-rule="evenodd" d="M195.165 39.2403C196.367 39.5221 197.458 39.3342 198.302 38.2257C198.765 39.2975 198.773 39.297 199.684 39.2251L199.731 39.2215C199.994 39.2215 200.05 39.1276 200.05 38.8833C200.05 38.4784 200.051 38.0747 200.053 37.6718C200.056 36.4671 200.059 35.2703 200.031 34.0735C199.994 33.0965 199.43 32.3637 198.491 32.0819C197.176 31.6874 195.898 31.8377 194.658 32.3826C194.634 32.3928 194.608 32.4017 194.584 32.4106C194.467 32.4512 194.352 32.4915 194.414 32.6457C194.454 32.7354 194.492 32.8285 194.531 32.922C194.653 33.2195 194.777 33.5209 194.977 33.7353C195.119 33.8769 195.313 33.7716 195.506 33.667C195.595 33.619 195.683 33.5711 195.766 33.5475C196.274 33.3971 196.8 33.2844 197.326 33.3596C197.871 33.4347 198.209 33.9045 198.133 34.4681C198.079 34.8715 197.816 34.8217 197.578 34.7763C197.494 34.7604 197.413 34.745 197.345 34.7499C197.301 34.7527 197.258 34.7554 197.214 34.7582C196.375 34.8109 195.539 34.8633 194.771 35.2384C193.981 35.6517 193.625 36.3657 193.718 37.399C193.812 38.3573 194.301 39.0337 195.165 39.2403ZM198.133 36.6475C198.228 35.9336 198.209 35.8959 197.363 35.9336C197.025 35.9336 196.612 35.9523 196.217 36.1778C195.766 36.4408 195.635 36.8542 195.729 37.3239C195.842 37.8124 196.236 37.9251 196.668 37.9251C197.476 37.9251 198.04 37.4367 198.133 36.6475Z" fill="#1D1819"/>
		<path fill-rule="evenodd" clip-rule="evenodd" d="M159.388 37.7908C159.39 37.651 159.392 37.5085 159.392 37.3615C159.167 37.4555 158.98 37.5306 158.81 37.5682C158.077 37.8124 157.307 37.9816 156.518 37.8313C155.86 37.7185 155.409 37.23 155.278 36.5912C155.203 36.2343 155.278 36.1028 155.672 36.1215C156.337 36.1341 157 36.1298 157.664 36.1257C157.996 36.1236 158.328 36.1215 158.659 36.1215C159.273 36.1215 159.583 36.1215 159.728 35.9669C159.877 35.8088 159.853 35.4895 159.806 34.844C159.674 33.3032 158.885 32.3075 157.551 31.9881C155.353 31.4808 153.624 32.6269 153.286 34.844C153.212 35.37 153.212 35.8961 153.286 36.4221C153.455 37.6057 153.982 38.5452 155.128 39.0149C156.442 39.5597 157.758 39.447 159.073 38.9961C159.28 38.9397 159.411 38.827 159.392 38.5827C159.38 38.3224 159.384 38.062 159.388 37.7908ZM156.333 34.8021C156.437 34.8043 156.542 34.8063 156.65 34.8063C156.751 34.8063 156.853 34.8042 156.953 34.8021C157.149 34.7979 157.34 34.7939 157.514 34.8063C157.984 34.8627 158.002 34.6184 157.908 34.2802C157.758 33.6603 157.27 33.2845 156.631 33.2845C155.973 33.2845 155.541 33.6227 155.334 34.2615C155.203 34.6373 155.221 34.8627 155.71 34.8063C155.922 34.7939 156.126 34.7979 156.333 34.8021Z" fill="#1D1819"/>
		<path fill-rule="evenodd" clip-rule="evenodd" d="M170.421 39.2403C171.642 39.5598 172.751 39.3342 173.596 38.2446C174.067 39.3155 174.067 39.3155 175.062 39.2591C175.269 39.2403 175.362 39.2027 175.362 38.9585C175.356 38.4018 175.354 37.8473 175.352 37.2941C175.348 36.1856 175.344 35.0826 175.306 33.9796C175.288 33.0026 174.686 32.3638 173.747 32.1008C172.451 31.7251 171.191 31.8941 169.971 32.4014C169.689 32.5141 169.707 32.6269 169.82 32.8711C170.036 33.3303 170.139 33.5603 170.311 33.6408C170.486 33.7216 170.73 33.6511 171.229 33.5099C171.699 33.3784 172.188 33.3032 172.676 33.3784C173.184 33.4536 173.466 33.9045 173.427 34.4681C173.386 34.9144 173.116 34.8535 172.88 34.8001C172.798 34.7815 172.72 34.7639 172.657 34.7687C172.579 34.7737 172.501 34.7784 172.423 34.7831C171.615 34.8315 170.8 34.8804 170.045 35.2573C169.294 35.633 168.937 36.3657 169.012 37.3051C169.087 38.3385 169.557 39.0149 170.421 39.2403ZM173.427 36.61C173.466 36.1027 173.427 35.7269 172.845 35.9336C172.356 35.9336 171.962 35.9524 171.568 36.1402C171.098 36.3845 170.928 36.7979 171.023 37.3051C171.117 37.8312 171.549 37.9251 172 37.9251C172.807 37.9251 173.353 37.399 173.427 36.61Z" fill="#1D1819"/>
	</g>
	<defs>
		<clipPath id="clip0_626_2">
			<rect width="216.585" height="40" fill="white"/>
		</clipPath>
	</defs>
</svg>
