<svg width="125" height="102" viewBox="0 0 125 102" fill="none" xmlns="http://www.w3.org/2000/svg">
<path d="M2.3765 44.7295C3.16885 45.9724 3.89906 47.1842 4.70696 48.3495C19.2801 69.4323 38.7627 83.6791 63.5278 90.5462C68.4994 91.9289 73.5487 92.8455 78.6758 93.4515C85.3719 94.2593 92.0837 94.4302 98.7954 94.0884C107.309 93.6534 115.715 92.395 124.011 90.4529C124.058 90.4374 124.104 90.4529 124.182 90.4996C123.638 90.7326 123.11 90.9812 122.566 91.2142C122.022 91.4473 121.463 91.6803 120.919 91.8978C112.918 95.0983 104.653 97.3822 96.1387 98.7804C89.5978 99.8524 83.026 100.35 76.4074 100.101C54.237 99.3242 35.5778 90.9346 20.725 74.3418C13.7025 66.4959 8.28033 57.6247 3.83692 48.1164C3.33975 47.0444 2.87366 45.9724 2.39203 44.9004C2.3765 44.8849 2.3765 44.8382 2.3765 44.7295Z" fill="#1D1819"/>
<path d="M78.9092 0C77.542 1.13415 76.2059 2.31492 75.0407 3.65104C73.1763 5.81059 71.8712 8.23426 71.4518 11.0774C71.0789 13.5943 71.3741 16.0646 72.0421 18.5038C72.8656 21.5023 74.1706 24.2988 75.6466 27.0332C76.6098 28.8355 77.4022 30.6998 77.7285 32.7195C78.3344 36.4638 77.0293 39.3691 73.891 41.4665C71.7003 42.9269 69.2456 43.6571 66.6821 44.0922C66.3092 44.1543 65.9363 44.2009 65.5013 44.2475C65.5945 44.1543 65.6412 44.1077 65.6878 44.0766C68.9504 41.7772 70.1001 38.5768 69.0281 34.7237C68.5309 32.9371 67.7386 31.2902 66.651 29.7832C64.709 27.0643 63.0621 24.1901 62.2076 20.9275C60.7783 15.3965 62.2698 10.7045 66.3558 6.78938C69.1835 4.07052 72.5704 2.26831 76.1904 0.854499C77.0759 0.512699 77.977 0.217509 78.9092 0Z" fill="#1D1819"/>
<path d="M60.98 44.371C61.4306 43.6719 61.7879 42.9417 61.9122 42.1027C62.1297 40.7821 61.7879 39.6013 61.0733 38.5138C60.4363 37.5195 59.6284 36.696 58.6651 36.028C57.2979 35.0647 56.0084 34.0238 54.9519 32.7187C53.5381 30.9942 52.637 29.0677 52.6992 26.7994C52.7302 25.6808 52.9943 24.5932 53.4449 23.5678C54.7344 20.5848 56.9561 18.3942 59.5507 16.4988C59.3487 16.8561 59.1468 17.1979 58.9448 17.5553C56.6454 21.5481 56.9717 25.339 59.7837 28.9589C60.8402 30.3261 62.0676 31.5535 63.3416 32.7187C64.2582 33.5577 65.0816 34.5054 65.641 35.624C66.5576 37.4418 66.4644 39.2129 65.3147 40.8909C64.2116 42.4756 62.689 43.532 60.98 44.371Z" fill="#1D1819"/>
<path d="M0.419869 53.3198C2.37745 58.5401 4.97201 63.4185 8.06374 68.0483C19.0168 84.4392 33.9628 95.47 52.7307 101.389C52.8705 101.436 52.9948 101.483 53.1346 101.56C52.3578 101.529 51.5965 101.358 50.8352 101.187C39.0121 98.4996 28.494 93.2328 19.4829 85.0607C11.2487 77.6032 5.50025 68.4989 1.78707 58.0584C1.24329 56.5203 0.730596 54.9822 0.311115 53.4131C0.295579 53.3043 0.342187 53.2888 0.419869 53.3198Z" fill="#1D1819"/>
<path d="M0.419483 53.3198C0.38841 53.3509 0.357338 53.3819 0.326265 53.413C0.124291 53.0557 0.0932186 52.6362 0 52.2478C0.186437 52.5741 0.326265 52.9314 0.419483 53.3198Z" fill="#1D1819"/>
<path fill-rule="evenodd" clip-rule="evenodd" d="M83.5228 49.6394H57.7752C49.2004 49.6394 40.6102 49.6394 32.0354 49.6705C31.7247 49.6705 31.4139 49.6705 31.1188 49.7171C30.0934 49.8724 29.6117 50.4318 29.6117 51.4572C29.6117 56.0093 29.6117 60.5459 29.6273 65.0825C29.6273 67.3042 29.9846 69.4793 30.5594 71.6233C30.6216 71.8874 30.7614 72.0739 30.9789 72.2292C40.86 79.6401 51.7355 85.0778 63.6053 88.5269C63.8538 88.589 64.0713 88.6201 64.3199 88.5735C66.2309 88.2161 68.1108 87.7501 69.9441 87.1286C70.139 87.0607 70.3344 86.9936 70.5297 86.9265C72.0781 86.3946 73.6276 85.8623 74.9934 84.938C78.3959 82.6075 81.006 79.5313 83.0257 75.958C83.1966 75.6472 83.383 75.5385 83.7404 75.5385C84.8351 75.5618 85.9212 75.5589 87.0116 75.556C87.3757 75.555 87.7404 75.554 88.1061 75.554C88.3805 75.5495 88.6536 75.5516 88.9258 75.5538C89.578 75.5589 90.2248 75.564 90.8715 75.4763C96.62 74.6684 100.364 69.2463 99.0592 63.591C98.1425 59.6448 94.7246 56.6152 90.6851 56.1957C89.7339 56.0901 88.7756 56.1066 87.8198 56.1231C87.3706 56.1308 86.9219 56.1386 86.4748 56.1336C86.133 56.1336 86.0553 56.0404 86.0553 55.6986C86.0656 54.7463 86.0622 53.8008 86.0587 52.8531C86.057 52.3784 86.0553 51.9031 86.0553 51.4261C86.0553 50.6493 85.729 50.1521 84.9988 49.8569C84.5172 49.6705 84.02 49.6394 83.5228 49.6394ZM86.0397 60.173V63.2182C86.164 65.6263 85.8378 68.3607 84.9056 71.0329C84.7968 71.3592 84.9056 71.4058 85.2008 71.4058C85.8401 71.3992 86.4765 71.4011 87.1126 71.403C87.9604 71.4055 88.8075 71.408 89.6597 71.3903C92.6116 71.3281 95.0819 69.1064 95.346 66.3254C95.6412 63.2337 93.7768 60.5925 90.7783 59.9711C89.7837 59.7639 88.7684 59.7916 87.7554 59.8192C87.2493 59.833 86.7438 59.8468 86.2417 59.8312C86.0197 59.8182 86.0282 59.9588 86.0366 60.0963C86.0382 60.1224 86.0397 60.1483 86.0397 60.173Z" fill="#1D1819"/>
</svg>
