<svg width="200" height="38" viewBox="0 0 200 38" fill="none" xmlns="http://www.w3.org/2000/svg">
<path d="M0.757818 16.3814C1.04801 16.8367 1.31544 17.2805 1.61132 17.7072C6.94853 25.4286 14.0838 30.6463 23.1537 33.1612C24.9744 33.6676 26.8237 34.0034 28.7014 34.2253C31.1538 34.5211 33.6119 34.5837 36.0699 34.4585C39.188 34.2992 42.2663 33.8384 45.3048 33.1271C45.3218 33.1214 45.339 33.1271 45.3674 33.1442C45.1682 33.2296 44.9748 33.3206 44.7756 33.4059C44.5765 33.4913 44.3716 33.5767 44.1725 33.6563C41.2421 34.8284 38.215 35.6649 35.0969 36.177C32.7015 36.5696 30.2946 36.7517 27.8707 36.6606C19.751 36.3761 12.9174 33.3035 7.47771 27.2267C4.90583 24.3532 2.92001 21.1042 1.29267 17.6219C1.1106 17.2293 0.939897 16.8367 0.763509 16.444C0.757819 16.4384 0.757818 16.4213 0.757818 16.3814Z" fill="#1D1819"/>
<path d="M28.7869 0C28.2861 0.415369 27.7967 0.84781 27.37 1.33715C26.6872 2.12805 26.2093 3.0157 26.0556 4.05697C25.9191 4.97874 26.0272 5.88346 26.2718 6.77678C26.5735 7.87496 27.0514 8.89916 27.5919 9.90062C27.9447 10.5606 28.2349 11.2435 28.3544 11.9831C28.5763 13.3545 28.0983 14.4184 26.949 15.1866C26.1467 15.7214 25.2477 15.9889 24.3088 16.1482C24.1723 16.171 24.0357 16.188 23.8764 16.2051C23.9105 16.171 23.9276 16.1539 23.9446 16.1425C25.1395 15.3004 25.5607 14.1283 25.168 12.7171C24.9859 12.0628 24.6957 11.4597 24.2975 10.9077C23.5862 9.91196 22.9831 8.85932 22.6701 7.66442C22.1466 5.63878 22.6929 3.9204 24.1893 2.48653C25.2249 1.49078 26.4653 0.83074 27.7911 0.31295C28.1154 0.18777 28.4454 0.07966 28.7869 0Z" fill="#1D1819"/>
<path d="M22.2204 16.2506C22.3854 15.9946 22.5164 15.7272 22.5619 15.4199C22.6416 14.9363 22.5164 14.5038 22.2546 14.1055C22.0213 13.7414 21.7255 13.4397 21.3726 13.1951C20.872 12.8423 20.3997 12.4611 20.0127 11.9831C19.495 11.3515 19.165 10.646 19.1877 9.81526C19.1991 9.40556 19.2958 9.00726 19.4608 8.63173C19.9331 7.53925 20.7468 6.73696 21.697 6.04278C21.623 6.17365 21.549 6.29883 21.4751 6.4297C20.633 7.89202 20.7525 9.28037 21.7823 10.6062C22.1693 11.1068 22.6188 11.5564 23.0854 11.9831C23.421 12.2904 23.7226 12.6375 23.9274 13.0472C24.2632 13.7129 24.2291 14.3615 23.8079 14.9761C23.404 15.5564 22.8464 15.9434 22.2204 16.2506Z" fill="#1D1819"/>
<path d="M0.04092 19.5281C0.757859 21.4399 1.70809 23.2265 2.84039 24.9222C6.85185 30.9252 12.3256 34.965 19.1991 37.1329C19.2503 37.15 19.2958 37.167 19.3471 37.1955C19.0626 37.1841 18.7837 37.1215 18.5049 37.059C14.1748 36.0746 10.3228 34.1457 7.02255 31.1527C4.00685 28.4215 1.90155 25.0872 0.54164 21.2635C0.34249 20.7002 0.15472 20.1369 0.00109022 19.5622C-0.00459977 19.5224 0.01247 19.5167 0.04092 19.5281Z" fill="#1D1819"/>
<path fill-rule="evenodd" clip-rule="evenodd" d="M30.4767 18.1794H21.0469C17.9066 18.1794 14.7605 18.1794 11.6201 18.1908C11.5063 18.1908 11.3925 18.1908 11.2844 18.2079C10.9088 18.2648 10.7325 18.4697 10.7325 18.8452C10.7325 20.5123 10.7325 22.1738 10.7382 23.8353C10.7382 24.649 10.869 25.4455 11.0795 26.2308C11.1023 26.3275 11.1535 26.3958 11.2331 26.4527C14.852 29.1668 18.835 31.1583 23.1821 32.4215C23.2732 32.4443 23.3529 32.4556 23.4439 32.4386C24.1438 32.3078 24.8323 32.137 25.5037 31.9094C25.5751 31.8845 25.6466 31.86 25.7182 31.8354C26.2852 31.6406 26.8527 31.4456 27.3529 31.1072C28.599 30.2537 29.5549 29.127 30.2946 27.8183C30.3572 27.7045 30.4256 27.6647 30.5564 27.6647C30.9574 27.6732 31.3551 27.6721 31.7544 27.6711C31.8878 27.6707 32.0213 27.6704 32.1552 27.6704C32.2558 27.6687 32.3558 27.6695 32.4555 27.6703C32.6944 27.6722 32.9313 27.674 33.1681 27.6419C35.2734 27.3461 36.6446 25.3603 36.1667 23.2891C35.831 21.8438 34.5792 20.7342 33.0998 20.5806C32.7515 20.5419 32.4005 20.548 32.0505 20.554C31.8859 20.5569 31.7216 20.5597 31.5578 20.5579C31.4326 20.5579 31.4042 20.5238 31.4042 20.3986C31.408 20.0497 31.4067 19.7036 31.4054 19.3565C31.4048 19.1825 31.4042 19.0085 31.4042 18.8338C31.4042 18.5493 31.2847 18.3672 31.0172 18.2591C30.8409 18.1908 30.6588 18.1794 30.4767 18.1794ZM31.3985 22.0373V23.1525C31.444 24.0345 31.3245 25.0359 30.9831 26.0145C30.9433 26.134 30.9831 26.1512 31.0913 26.1512C31.3254 26.1487 31.5585 26.1494 31.7914 26.1501C32.1019 26.151 32.4122 26.152 32.7242 26.1455C33.8054 26.1227 34.7101 25.309 34.8068 24.2905C34.915 23.1582 34.2321 22.1909 33.1339 21.9633C32.7697 21.8874 32.3978 21.8975 32.0269 21.9077C31.8415 21.9127 31.6564 21.9178 31.4725 21.9121C31.3912 21.9073 31.3943 21.9588 31.3974 22.0091C31.3979 22.0187 31.3985 22.0282 31.3985 22.0373Z" fill="#1D1819"/>
<path d="M57.154 2.93786C58.3052 2.92142 59.4399 2.93787 60.5911 2.90499C60.9199 2.90499 60.9364 3.05299 60.9364 3.31611C60.9364 5.07573 60.9364 6.83534 60.9364 8.59496C60.9364 10.2723 60.9364 11.9498 60.9364 13.6765C61.1502 13.5778 61.216 13.3969 61.2982 13.2653C63.5511 9.94348 65.8041 6.62155 68.0406 3.28322C68.2215 3.02009 68.4024 2.88854 68.7314 2.90499C69.8167 2.93787 70.9186 2.92143 72.0204 2.92143C72.0368 3.18454 71.8559 3.31611 71.7572 3.46411C69.9154 6.17754 68.09 8.90741 66.2316 11.6044C65.985 11.9662 65.9521 12.2129 66.2152 12.5911C68.2544 15.6992 70.2772 18.8238 72.3164 21.9483C72.415 22.0963 72.4973 22.2279 72.6288 22.4581C71.675 22.4581 70.8034 22.4581 69.9318 22.4581C69.3563 22.4581 68.6655 22.6225 68.2215 22.3759C67.7939 22.1456 67.5966 21.4714 67.3006 20.9945C66.1001 19.0704 64.8997 17.1463 63.6827 15.2223C63.6662 15.1894 63.6334 15.173 63.5676 15.1072C62.8933 16.0116 62.252 16.9161 61.5448 17.7877C61.0844 18.3469 60.8706 18.9224 60.9199 19.646C60.9857 20.4518 60.9199 21.2576 60.9364 22.0634C60.9529 22.3759 60.8542 22.4746 60.5417 22.4746C59.407 22.4581 58.2888 22.4746 57.154 22.4746C57.154 15.9458 57.154 9.45005 57.154 2.93786Z" fill="#1D1819"/>
<path d="M159.393 12.9365C159.014 14.1205 158.686 15.173 158.357 16.2255C157.748 18.166 157.124 20.09 156.531 22.0305C156.433 22.343 156.317 22.4581 155.973 22.4581C155.249 22.4252 154.542 22.4416 153.818 22.4581C153.555 22.4581 153.44 22.4088 153.357 22.1292C151.976 17.1299 150.578 12.1471 149.164 7.1478C149.065 6.80245 149.18 6.78602 149.46 6.78602C150.398 6.80245 151.335 6.8189 152.288 6.76957C152.782 6.73668 152.913 6.93402 153.012 7.36158C153.686 10.4039 154.377 13.4462 155.068 16.505C155.084 16.6037 155.117 16.6859 155.183 16.9161C155.676 15.1729 156.137 13.5778 156.597 11.9826C156.942 10.7821 157.288 9.58162 157.616 8.39762C157.715 8.05228 157.847 7.72338 158.077 7.42737C158.818 6.49 160.248 6.58867 160.823 7.64116C161.35 8.62785 161.531 9.7461 161.843 10.7986C162.402 12.6733 162.928 14.5645 163.472 16.4557C163.504 16.5873 163.504 16.7352 163.652 16.8339C164.376 13.6271 165.115 10.4203 165.823 7.21357C165.905 6.86824 166.036 6.78602 166.366 6.78602C167.319 6.80245 168.273 6.80245 169.243 6.78602C169.573 6.78602 169.688 6.80245 169.573 7.19713C168.175 12.1471 166.809 17.1134 165.428 22.0798C165.362 22.343 165.263 22.4746 164.951 22.4581C164.211 22.4252 163.488 22.4252 162.748 22.4581C162.435 22.4746 162.337 22.343 162.254 22.0798C161.317 19.0869 160.38 16.0939 159.393 12.9365Z" fill="#1D1819"/>
<path d="M124.398 14.6961C125.647 12.8213 126.914 10.963 128.164 9.08826C128.476 8.62784 128.789 8.15093 129.101 7.69047C129.216 7.52602 129.331 7.42736 129.545 7.42736C130.762 7.4438 131.962 7.42736 133.179 7.42736C133.245 7.64115 133.081 7.72337 132.998 7.83848C131.502 9.89413 130.006 11.9498 128.492 14.0053C128.246 14.3343 128.229 14.5316 128.492 14.877C130.301 17.2121 132.078 19.5802 133.854 21.9319C133.969 22.0798 134.067 22.2279 134.232 22.4416C132.802 22.4416 131.453 22.4416 130.088 22.4416C129.874 22.4416 129.825 22.2443 129.726 22.1128C128.542 20.534 127.375 18.9553 126.207 17.393C126.092 17.245 125.977 17.097 125.845 16.9161C125.335 17.6397 124.858 18.3304 124.365 19.0211C124.25 19.1856 124.283 19.3499 124.283 19.5144C124.283 20.3531 124.267 21.1918 124.283 22.0306C124.299 22.3594 124.217 22.4745 123.872 22.4581C122.967 22.4252 122.063 22.4252 121.158 22.4581C120.796 22.4745 120.714 22.3594 120.714 21.9976C120.73 17.9193 120.714 13.8244 120.714 9.74607C120.714 7.2629 120.714 4.79615 120.698 2.31296C120.698 1.95116 120.764 1.80316 121.175 1.8196C121.997 1.8525 122.819 1.8525 123.641 1.8196C124.135 1.78671 124.299 1.90183 124.283 2.44451C124.25 6.37487 124.267 10.3052 124.267 14.2356C124.267 14.3836 124.267 14.5316 124.267 14.6796C124.332 14.6796 124.364 14.6961 124.398 14.6961Z" fill="#1D1819"/>
<path d="M89.6165 14.6467C89.6165 12.1965 89.6329 9.76261 89.6 7.31227C89.6 6.86825 89.7316 6.75313 90.1427 6.78602C90.6854 6.81891 91.2442 6.81891 91.7876 6.78602C92.1324 6.76957 92.3628 6.85179 92.478 7.21359C92.5932 7.57537 92.8064 7.88784 92.9216 8.24963C93.0368 8.59498 93.1847 8.64431 93.514 8.47986C94.5827 7.95362 95.7013 7.5096 96.7537 6.95047C97.5756 6.50646 98.3812 6.57223 99.1541 6.91758C100.898 7.67405 101.786 9.07188 101.999 10.9302C102.098 11.8511 102.065 12.772 102.065 13.6929C102.065 16.4393 102.065 19.202 102.082 21.9483C102.082 22.3595 101.966 22.4582 101.572 22.4416C100.734 22.4088 99.8944 22.4088 99.0561 22.4416C98.6279 22.4582 98.4801 22.3759 98.4964 21.899C98.53 18.8402 98.5136 15.7815 98.5136 12.7062C98.5136 12.328 98.4964 11.9498 98.4311 11.588C98.217 10.3875 97.132 9.79545 95.9971 10.2559C95.2078 10.5848 94.4348 10.9302 93.6293 11.2262C93.2836 11.3577 93.1847 11.5386 93.1847 11.9004C93.2011 15.2388 93.1847 18.5771 93.2011 21.899C93.2011 22.3266 93.0867 22.4416 92.6749 22.4252C91.8366 22.3924 90.9975 22.3924 90.1592 22.4252C89.7481 22.4416 89.6165 22.343 89.6165 21.899C89.6329 19.498 89.6165 17.0806 89.6165 14.6467Z" fill="#1D1819"/>
<path d="M194.19 14.4165C194.19 16.9326 194.174 19.4487 194.207 21.9647C194.207 22.3758 194.092 22.4746 193.697 22.458C192.76 22.4252 191.823 22.4252 190.868 22.458C190.474 22.4746 190.358 22.3594 190.358 21.9647C190.375 16.9326 190.358 11.9168 190.375 6.88466C190.375 6.45709 190.293 6.30909 189.832 6.32553C188.418 6.35843 186.987 6.32553 185.573 6.34198C185.228 6.34198 185.146 6.24331 185.146 5.91441C185.162 5.05927 185.162 4.20413 185.146 3.34899C185.146 3.05297 185.195 2.93786 185.54 2.93786C190.063 2.95431 194.569 2.95431 199.091 2.93786C199.354 2.93786 199.436 3.00365 199.436 3.28321C199.42 4.17124 199.42 5.05927 199.436 5.9473C199.436 6.25976 199.354 6.35842 199.041 6.34198C197.594 6.32553 196.131 6.35843 194.684 6.32553C194.256 6.30909 194.19 6.4571 194.19 6.83533C194.19 9.35144 194.19 11.8839 194.19 14.4165Z" fill="#1D1819"/>
<path d="M178.353 12.6405C178.353 9.5652 178.37 6.49001 178.337 3.39835C178.337 2.98722 178.452 2.88855 178.847 2.90499C179.818 2.93789 180.804 2.92144 181.774 2.90499C182.087 2.90499 182.169 2.98721 182.169 3.29967C182.153 9.54878 182.153 15.7815 182.169 22.0305C182.169 22.3759 182.07 22.4581 181.742 22.4416C180.771 22.4252 179.785 22.4088 178.814 22.4416C178.436 22.4581 178.337 22.3595 178.337 21.9647C178.37 18.8731 178.353 15.7485 178.353 12.6405Z" fill="#1D1819"/>
<path fill-rule="evenodd" clip-rule="evenodd" d="M112.743 19.5252C112.953 19.4134 113.165 19.3003 113.379 19.1856C113.36 19.5247 113.343 19.8565 113.327 20.1821C113.288 20.9464 113.251 21.6775 113.182 22.3924C113.083 23.3297 112.574 23.823 111.653 24.0039C110.912 24.1355 110.189 24.0862 109.465 23.8888C108.972 23.7573 108.611 23.4778 108.561 22.9186C108.528 22.6253 108.367 22.6388 108.172 22.655L108.166 22.6555C107.952 22.6678 107.739 22.6811 107.525 22.6945C106.884 22.7346 106.242 22.7747 105.601 22.787C105.19 22.8034 105.173 22.9679 105.206 23.2969C105.388 24.892 106.276 25.9609 107.755 26.5201C109.581 27.2107 111.472 27.2765 113.346 26.7668C115.402 26.2076 116.636 24.6782 116.768 22.5403C116.817 21.6524 116.817 20.7643 116.817 19.8762C116.825 17.7631 116.825 15.6457 116.825 13.5264C116.825 11.4071 116.825 9.28568 116.833 7.16425C116.833 6.75312 116.75 6.63802 116.323 6.68735C115.829 6.75331 115.341 6.77517 114.852 6.79715C114.608 6.80806 114.365 6.819 114.119 6.83535C113.196 6.90312 112.272 6.89671 111.35 6.89029C110.481 6.88425 109.612 6.87821 108.742 6.93403C106.555 7.06558 105.141 8.21674 104.664 10.3711C104.17 12.6734 104.137 14.9921 104.598 17.2944C105.091 19.794 106.703 21.1261 109.137 21.2247C109.433 21.2412 109.696 21.1755 109.959 21.0274C110.863 20.5277 111.78 20.0392 112.743 19.5252ZM113.278 14.0054C113.279 13.7204 113.281 13.4353 113.281 13.1503C113.281 12.9285 113.28 12.7068 113.278 12.4848C113.276 11.8177 113.273 11.1484 113.298 10.4697C113.298 10.1737 113.215 10.0915 112.919 10.0915C112.449 10.1102 111.979 10.1076 111.509 10.1049C111.157 10.1029 110.804 10.1009 110.453 10.1079C109.219 10.1244 108.479 10.6835 108.166 11.8511C107.838 13.068 107.772 14.3179 107.986 15.5676C108.265 17.1793 109.778 17.9029 111.225 17.1464C111.417 17.0477 111.609 16.9471 111.801 16.8466C112.184 16.6457 112.568 16.4447 112.952 16.2584C113.182 16.1433 113.281 15.9952 113.281 15.7157C113.27 15.1456 113.274 14.5755 113.278 14.0054Z" fill="#1D1819"/>
<path fill-rule="evenodd" clip-rule="evenodd" d="M86.7222 18.3797C86.9854 17.1793 87.0348 15.9459 87.084 14.6632C87.0676 13.6271 87.0183 12.5253 86.8045 11.4564C86.3112 8.84163 84.8804 7.31224 82.4301 6.786C81.4434 6.57221 80.4238 6.58866 79.4206 6.65444C76.7237 6.85179 74.9147 8.33182 74.2898 10.9466C73.6814 13.4792 73.7307 16.028 74.3227 18.5606C74.8325 20.682 76.1152 22.1128 78.286 22.6061C79.5851 22.9021 80.8842 22.9186 82.1999 22.7047C84.7159 22.3101 86.1631 20.8136 86.7222 18.3797ZM83.3181 17.3437C83.5319 16.4557 83.5319 15.5512 83.5155 14.6467C83.5319 13.8902 83.5319 13.1338 83.4332 12.3938C83.3181 11.5715 83.088 10.815 82.3808 10.3052C80.7199 9.1212 78.2366 9.89414 77.7433 11.8675C77.2664 13.7587 77.2828 15.6992 77.8091 17.5903C78.2037 19.0211 79.2398 19.6789 80.6869 19.6131C82.1012 19.5309 82.9892 18.7909 83.3181 17.3437Z" fill="#1D1819"/>
<path fill-rule="evenodd" clip-rule="evenodd" d="M147.766 18.4126C148.045 17.1793 148.095 15.9294 148.128 14.6138C148.112 13.6107 148.079 12.5417 147.865 11.4893C147.371 8.87452 145.973 7.32869 143.507 6.80245C142.487 6.57222 141.435 6.57222 140.399 6.67089C137.685 6.91756 135.991 8.34828 135.35 10.9959C134.741 13.5284 134.775 16.0774 135.383 18.61C135.909 20.7807 137.258 22.195 139.51 22.6555C140.694 22.8856 141.879 22.9186 143.079 22.7377C145.678 22.3594 147.174 20.9616 147.766 18.4126ZM144.378 17.3273C144.593 16.4392 144.593 15.5347 144.575 14.6303C144.593 13.9067 144.593 13.1667 144.494 12.4431C144.378 11.6044 144.148 10.8315 143.425 10.3052C141.764 9.10478 139.264 9.89415 138.787 11.8675C138.31 13.7587 138.326 15.6992 138.853 17.5903C139.264 19.0047 140.3 19.6789 141.748 19.5966C143.178 19.5144 144.049 18.7579 144.378 17.3273Z" fill="#1D1819"/>
<path d="M199.425 36.4892C199.268 36.4892 199.092 36.4892 198.935 36.4892C198.097 36.4892 198.097 36.4892 197.852 35.703C197.748 35.6506 197.695 35.7379 197.643 35.8079C196.856 36.6465 195.459 36.891 194.446 36.3495C193.851 36.035 193.519 35.5109 193.449 34.8819C193.275 33.2921 193.414 31.6847 193.38 30.0949C193.38 29.9027 193.467 29.8328 193.642 29.8502C193.659 29.8502 193.677 29.8502 193.694 29.8502C195.179 29.7279 195.179 29.7279 195.179 31.1955C195.179 32.0866 195.162 32.9776 195.179 33.8685C195.196 34.7247 195.529 35.1439 196.175 35.1964C196.909 35.2488 197.433 34.847 197.572 34.0433C197.782 32.8377 197.66 31.6149 197.66 30.3919C197.66 29.9377 197.782 29.7804 198.236 29.8328C198.638 29.8852 199.04 29.8502 199.425 29.8677C199.425 32.0516 199.425 34.2704 199.425 36.4892Z" fill="#1D1819"/>
<path d="M151.834 32.733C152.55 31.8419 153.337 31.0558 154.053 30.2172C154.315 29.9201 154.577 29.7629 154.979 29.7978C155.433 29.8328 155.869 29.7978 156.463 29.7978C155.869 30.4618 155.363 31.0208 154.857 31.5973C154.524 31.9643 153.982 32.3312 153.965 32.7155C153.948 33.0999 154.472 33.5017 154.751 33.9035C155.363 34.7421 155.975 35.5633 156.656 36.4718C155.957 36.4718 155.328 36.4718 154.699 36.4718C154.489 36.4718 154.437 36.297 154.35 36.1747C153.896 35.5457 153.458 34.8993 152.987 34.2704C152.864 34.1132 152.795 33.7463 152.567 33.8861C152.288 34.0433 151.886 34.183 151.886 34.6548C151.886 35.1439 151.869 35.6332 151.886 36.1223C151.903 36.4019 151.834 36.4892 151.536 36.4892C150.069 36.5242 150.069 36.5416 150.069 35.1091C150.069 32.6456 150.087 30.1647 150.052 27.7014C150.052 27.2995 150.139 27.1772 150.558 27.1772C151.886 27.1947 151.886 27.1772 151.886 28.4875C151.869 29.9027 151.938 31.3004 151.834 32.733Z" fill="#1D1819"/>
<path d="M166.491 30.7936C167.278 29.7804 168.151 29.5882 169.148 29.7105C170.143 29.8327 170.842 30.4442 170.947 31.4401C171.122 33.0299 170.982 34.6373 171.017 36.2272C171.017 36.4193 170.947 36.4892 170.754 36.4717C170.72 36.4717 170.685 36.4717 170.65 36.4717C169.2 36.5416 169.2 36.5416 169.2 35.0741C169.2 34.2005 169.217 33.327 169.2 32.4534C169.182 31.5799 168.868 31.1605 168.239 31.1081C167.435 31.0557 166.946 31.4226 166.807 32.2612C166.597 33.4842 166.719 34.7246 166.719 35.9476C166.719 36.3494 166.631 36.5067 166.212 36.4543C165.793 36.4018 165.216 36.6464 164.954 36.3494C164.745 36.1049 164.902 35.5458 164.885 35.1264C164.885 33.5192 164.902 31.8943 164.867 30.287C164.867 29.8503 165.007 29.7804 165.408 29.7628C166.072 29.7628 166.544 29.8327 166.491 30.7936Z" fill="#1D1819"/>
<path d="M189.553 30.9683C190.095 30.1472 190.742 29.658 191.685 29.6755C192.034 29.6929 192.296 29.7279 192.157 30.1822C192.157 30.1996 192.157 30.2171 192.157 30.2346C192.139 30.584 192.209 30.9858 192.052 31.2479C191.877 31.5623 191.423 31.3178 191.108 31.3877C190.2 31.5799 189.728 32.104 189.711 33.0473C189.693 34.0432 189.693 35.039 189.711 36.0349C189.711 36.3494 189.658 36.4717 189.309 36.4717C187.894 36.4892 187.894 36.4892 187.894 35.0915C187.894 33.5016 187.911 31.8943 187.876 30.3045C187.876 29.8502 188.016 29.7629 188.418 29.7803C189.239 29.8328 189.239 29.7978 189.553 30.9683Z" fill="#1D1819"/>
<path fill-rule="evenodd" clip-rule="evenodd" d="M173.413 36.4945C173.961 36.517 174.501 36.5391 174.581 35.703C174.632 35.7452 174.674 35.775 174.71 35.8007C174.749 35.8282 174.781 35.8506 174.808 35.8777C176.188 37.1531 178.145 36.7513 178.774 34.9868C179.228 33.7288 179.228 32.4185 178.721 31.1605C178.355 30.2521 177.691 29.7279 176.694 29.6755C175.892 29.6406 175.227 29.9201 174.703 30.6539V28.5574C174.703 27.8269 174.703 27.4643 174.522 27.293C174.34 27.1202 173.973 27.1421 173.235 27.1772C172.956 27.1947 172.904 27.282 172.904 27.5266C172.921 30.3918 172.921 33.2571 172.904 36.1223C172.904 36.4194 172.991 36.4892 173.271 36.4892C173.318 36.4906 173.365 36.4926 173.413 36.4945ZM177.01 34.3752C177.201 33.9734 177.219 33.5366 177.219 33.0998C177.219 32.6631 177.201 32.2438 176.992 31.8245C176.765 31.3178 176.38 31.0907 175.821 31.1257C175.28 31.1781 174.931 31.4576 174.808 31.9643C174.598 32.733 174.615 33.5017 174.826 34.2704C174.983 34.812 175.35 35.0741 175.909 35.109C176.468 35.1439 176.799 34.8469 177.01 34.3752Z" fill="#1D1819"/>
<path fill-rule="evenodd" clip-rule="evenodd" d="M135.431 31.1209C135.429 31.4484 135.428 31.7762 135.428 32.1039C135.428 32.2993 135.428 32.4952 135.427 32.6917C135.424 33.4792 135.421 34.2735 135.464 35.0566C135.464 35.188 135.445 35.3355 135.428 35.4847C135.385 35.8512 135.339 36.228 135.551 36.4018C135.734 36.5504 136.058 36.527 136.394 36.5028C136.57 36.4901 136.75 36.4771 136.913 36.4892C137.228 36.5067 137.298 36.4018 137.298 36.0873C137.289 35.703 137.289 35.3229 137.289 34.9428C137.289 34.5629 137.289 34.183 137.281 33.7987C137.281 33.4668 137.35 33.3445 137.7 33.3619C138.084 33.3793 138.486 33.3619 138.887 33.3095C140.425 33.1347 141.368 32.1215 141.421 30.6189C141.473 29.0291 140.722 28.0857 139.08 27.8236C138.432 27.7281 137.779 27.7422 137.126 27.7562C136.705 27.7653 136.284 27.7744 135.865 27.7537C135.516 27.7363 135.411 27.8236 135.411 28.1905C135.437 29.1599 135.434 30.1391 135.431 31.1209ZM137.257 30.4736C137.26 30.5192 137.263 30.5767 137.263 30.6539C137.303 30.78 137.28 30.9412 137.256 31.1081C137.216 31.3808 137.176 31.6685 137.403 31.8419C137.7 32.0516 138.241 31.8943 138.661 31.772C139.325 31.5798 139.674 30.9509 139.534 30.2346C139.377 29.4309 138.713 29.064 137.525 29.2912C137.16 29.3596 137.204 29.6293 137.251 29.9054C137.275 30.0521 137.299 30.2007 137.263 30.322C137.253 30.3638 137.255 30.4055 137.257 30.4736Z" fill="#1D1819"/>
<path fill-rule="evenodd" clip-rule="evenodd" d="M181.482 36.4892C182.6 36.7513 183.613 36.5765 184.399 35.5457C184.829 36.5424 184.836 36.5419 185.684 36.475L185.727 36.4717C185.972 36.4717 186.024 36.3843 186.024 36.1572C186.024 35.7807 186.025 35.4053 186.027 35.0307C186.03 33.9104 186.033 32.7975 186.006 31.6846C185.972 30.7762 185.447 30.0947 184.574 29.8327C183.351 29.4659 182.163 29.6056 181.01 30.1123C180.988 30.1217 180.964 30.13 180.941 30.1383C180.833 30.1761 180.726 30.2136 180.783 30.3569C180.82 30.4404 180.856 30.5269 180.892 30.6138C181.005 30.8905 181.121 31.1707 181.307 31.3701C181.439 31.5018 181.619 31.4039 181.799 31.3066C181.881 31.262 181.963 31.2175 182.041 31.1955C182.513 31.0557 183.001 30.9509 183.491 31.0208C183.998 31.0906 184.312 31.5274 184.242 32.0516C184.191 32.4267 183.947 32.3804 183.725 32.3382C183.647 32.3233 183.572 32.3091 183.508 32.3136C183.468 32.3162 183.427 32.3187 183.387 32.3213C182.606 32.3703 181.829 32.4191 181.115 32.7679C180.381 33.1522 180.049 33.8161 180.136 34.777C180.224 35.668 180.678 36.297 181.482 36.4892ZM184.242 34.0781C184.33 33.4143 184.312 33.3793 183.526 33.4143C183.212 33.4143 182.827 33.4317 182.46 33.6414C182.041 33.886 181.918 34.2703 182.006 34.7071C182.111 35.1614 182.477 35.2662 182.879 35.2662C183.631 35.2662 184.155 34.812 184.242 34.0781Z" fill="#1D1819"/>
<path fill-rule="evenodd" clip-rule="evenodd" d="M148.213 35.1413C148.215 35.0113 148.217 34.8788 148.217 34.7421C148.008 34.8295 147.833 34.8993 147.675 34.9343C146.994 35.1614 146.278 35.3187 145.544 35.1789C144.932 35.0741 144.513 34.6198 144.391 34.0258C144.321 33.6939 144.391 33.5716 144.758 33.589C145.376 33.6007 145.992 33.5968 146.61 33.5929C146.919 33.591 147.227 33.589 147.535 33.589C148.106 33.589 148.394 33.5891 148.529 33.4453C148.668 33.2983 148.646 33.0013 148.601 32.4011C148.479 30.9684 147.746 30.0424 146.505 29.7454C144.461 29.2737 142.853 30.3395 142.539 32.4011C142.47 32.8902 142.47 33.3794 142.539 33.8686C142.696 34.9692 143.186 35.8428 144.252 36.2796C145.474 36.7862 146.697 36.6814 147.92 36.2621C148.113 36.2096 148.234 36.1049 148.217 35.8777C148.205 35.6356 148.209 35.3935 148.213 35.1413ZM145.372 32.3621C145.469 32.3641 145.566 32.3661 145.667 32.3661C145.761 32.3661 145.856 32.3641 145.949 32.3621C146.131 32.3583 146.309 32.3545 146.47 32.3661C146.907 32.4185 146.924 32.1913 146.837 31.8769C146.697 31.3004 146.243 30.9509 145.649 30.9509C145.037 30.9509 144.635 31.2654 144.444 31.8594C144.321 32.2089 144.338 32.4185 144.792 32.3661C144.99 32.3545 145.18 32.3583 145.372 32.3621Z" fill="#1D1819"/>
<path fill-rule="evenodd" clip-rule="evenodd" d="M158.473 36.4892C159.608 36.7862 160.639 36.5765 161.425 35.5633C161.862 36.5591 161.862 36.5591 162.788 36.5066C162.98 36.4892 163.067 36.4542 163.067 36.2271C163.061 35.7095 163.059 35.1938 163.058 34.6795C163.054 33.6487 163.05 32.623 163.015 31.5973C162.998 30.6888 162.439 30.0948 161.566 29.8502C160.36 29.5008 159.189 29.658 158.053 30.1297C157.791 30.2346 157.809 30.3395 157.914 30.5665C158.114 30.9935 158.211 31.2075 158.371 31.2822C158.532 31.3574 158.76 31.2919 159.224 31.1605C159.661 31.0383 160.115 30.9683 160.569 31.0383C161.041 31.1082 161.303 31.5274 161.268 32.0516C161.229 32.4666 160.979 32.4099 160.759 32.3603C160.683 32.343 160.61 32.3266 160.552 32.3311C160.479 32.3358 160.406 32.3401 160.334 32.3445C159.583 32.3895 158.824 32.435 158.123 32.7854C157.424 33.1348 157.093 33.8161 157.162 34.6897C157.232 35.6506 157.669 36.2796 158.473 36.4892ZM161.268 34.0433C161.303 33.5716 161.268 33.2221 160.726 33.4143C160.272 33.4143 159.905 33.4318 159.539 33.6065C159.102 33.8336 158.944 34.218 159.032 34.6897C159.119 35.1789 159.521 35.2662 159.941 35.2662C160.691 35.2662 161.198 34.777 161.268 34.0433Z" fill="#1D1819"/>
</svg>
