<svg width="512" height="512" viewBox="0 0 512 512" fill="none" xmlns="http://www.w3.org/2000/svg">
<g clip-path="url(#clip0_1_60)">
<rect width="512" height="512" fill="url(#paint0_linear_1_60)"/>
<path d="M364.431 351.865C364.431 351.865 373.655 293.723 382.143 240.537C383.652 230.584 385.158 220.829 386.571 211.679C390.49 186.302 393.69 165.582 394.213 158.207C396.347 134.092 370.809 144.028 370.809 144.028C370.809 144.028 315.514 166.72 299.2 173.81C256.661 191.522 134 241.862 134 241.862C104.929 253.319 121.954 263.941 121.954 263.941C121.954 263.941 146.757 272.454 168.026 278.832C173.233 280.913 178.806 281.923 184.412 281.801C190.019 281.678 195.542 280.427 200.654 278.121C200.654 278.121 250.283 245.518 300.623 210.78C336.072 186.665 327.559 206.511 319.046 215.024C300.623 233.448 270.129 262.518 244.616 285.922C242.661 287.07 241.029 288.695 239.872 290.645C238.715 292.595 238.071 294.806 238 297.072C237.929 299.338 238.433 301.585 239.466 303.604C240.498 305.622 242.025 307.346 243.904 308.614C258.322 320.824 292.286 343.01 307.738 353.104C312.031 355.908 314.895 357.779 315.514 358.243C325.586 366.314 338.058 370.802 350.963 371C363.008 368.179 364.431 351.865 364.431 351.865Z" fill="white"/>
</g>
<defs>
<linearGradient id="paint0_linear_1_60" x1="533.5" y1="-43.5" x2="-7.99998" y2="538.5" gradientUnits="userSpaceOnUse">
<stop stop-color="#484848"/>
<stop offset="0.596052" stop-color="#45312A" stop-opacity="0.873112"/>
<stop offset="0.9999" stop-color="#432115" stop-opacity="0.71"/>
<stop offset="1" stop-color="#713C2B" stop-opacity="0"/>
</linearGradient>
<clipPath id="clip0_1_60">
<rect width="512" height="512" fill="white"/>
</clipPath>
</defs>
</svg>
