<svg width="512" height="512" viewBox="0 0 512 512" fill="none" xmlns="http://www.w3.org/2000/svg">
<g clip-path="url(#clip0_8_2)">
<rect width="512" height="512" fill="url(#paint0_linear_8_2)"/>
<path d="M343.461 343.333H221.412L293.462 271.502C295.509 269.472 297.133 267.057 298.241 264.397C299.35 261.736 299.921 258.882 299.921 256C299.921 253.118 299.35 250.264 298.241 247.603C297.133 244.943 295.509 242.528 293.462 240.498L221.412 168.667H343.461C349.251 168.667 354.805 166.366 358.899 162.272C362.994 158.177 365.294 152.624 365.294 146.833C365.294 141.043 362.994 135.489 358.899 131.395C354.805 127.3 349.251 125 343.461 125H168.794C164.483 125.022 160.276 126.318 156.701 128.727C153.127 131.136 150.345 134.549 148.707 138.537C147.035 142.513 146.578 146.895 147.394 151.13C148.21 155.366 150.263 159.265 153.292 162.335L247.176 256L153.292 349.665C150.263 352.735 148.21 356.634 147.394 360.87C146.578 365.105 147.035 369.487 148.707 373.463C150.345 377.451 153.127 380.864 156.701 383.273C160.276 385.682 164.483 386.978 168.794 387H343.461C349.251 387 354.805 384.7 358.899 380.605C362.994 376.511 365.294 370.957 365.294 365.167C365.294 359.376 362.994 353.823 358.899 349.728C354.805 345.634 349.251 343.333 343.461 343.333Z" fill="white"/>
</g>
<defs>
<linearGradient id="paint0_linear_8_2" x1="533.5" y1="-43.5" x2="-7.99998" y2="538.5" gradientUnits="userSpaceOnUse">
<stop stop-color="#484848"/>
<stop offset="0.596052" stop-color="#45312A" stop-opacity="0.873112"/>
<stop offset="0.9999" stop-color="#432115" stop-opacity="0.71"/>
<stop offset="1" stop-color="#713C2B" stop-opacity="0"/>
</linearGradient>
<clipPath id="clip0_8_2">
<rect width="512" height="512" fill="white"/>
</clipPath>
</defs>
</svg>
