<svg width="512" height="512" viewBox="0 0 512 512" fill="none" xmlns="http://www.w3.org/2000/svg">
<g clip-path="url(#clip0_3_2)">
<rect width="512" height="512" fill="url(#paint0_linear_3_2)"/>
<path fill-rule="evenodd" clip-rule="evenodd" d="M180.864 201.7C184.081 198.442 185.885 194.048 185.885 189.469C185.885 184.89 184.081 180.497 180.864 177.239L180.637 177.008C179.053 175.403 177.166 174.131 175.086 173.261C173.006 172.391 170.773 171.944 168.518 171.944C166.263 171.944 164.031 172.391 161.951 173.261C159.871 174.131 157.984 175.403 156.4 177.008L95.0228 238.964C91.8045 242.225 90 246.621 90 251.203C90 255.785 91.8045 260.185 95.0228 263.446L156.4 325.397C157.984 327.002 159.871 328.279 161.951 329.149C164.031 330.019 166.263 330.466 168.518 330.466C170.773 330.466 173.006 330.019 175.086 329.149C177.166 328.279 179.053 327.002 180.637 325.397L180.864 325.171C184.081 321.913 185.885 317.52 185.885 312.941C185.885 308.362 184.081 303.968 180.864 300.71L143.95 263.446C140.732 260.185 138.927 255.785 138.927 251.203C138.927 246.621 140.732 242.225 143.95 238.964L180.864 201.7ZM416.734 238.964L355.357 177.008C353.773 175.403 351.886 174.131 349.806 173.261C347.726 172.391 345.493 171.944 343.239 171.944C340.984 171.944 338.751 172.391 336.671 173.261C334.591 174.131 332.704 175.403 331.12 177.008L330.893 177.239C327.676 180.497 325.872 184.89 325.872 189.469C325.872 194.048 327.676 198.442 330.893 201.7L367.824 238.964C371.043 242.225 372.847 246.621 372.847 251.203C372.847 255.785 371.043 260.185 367.824 263.446L330.893 300.71C327.676 303.968 325.872 308.362 325.872 312.941C325.872 317.52 327.676 321.913 330.893 325.171L331.12 325.397C332.704 327.002 334.591 328.279 336.671 329.149C338.751 330.019 340.984 330.466 343.239 330.466C345.493 330.466 347.726 330.019 349.806 329.149C351.886 328.279 353.773 327.002 355.357 325.397L416.734 263.446C419.952 260.185 421.757 255.785 421.757 251.203C421.757 246.621 419.952 242.225 416.734 238.964ZM313.659 166.585L225.268 355.695C222.405 361.649 217.376 369 210.897 369H210.548C197.959 369 189.734 351.886 195.304 340.344L283.188 153.02C286.052 147.083 296.669 142.435 296.669 142.435V142C313.816 142 319.229 155.043 313.659 166.585Z" fill="white"/>
</g>
<defs>
<linearGradient id="paint0_linear_3_2" x1="533.5" y1="-43.5" x2="-7.99998" y2="538.5" gradientUnits="userSpaceOnUse">
<stop stop-color="#484848"/>
<stop offset="0.596052" stop-color="#45312A" stop-opacity="0.873112"/>
<stop offset="0.9999" stop-color="#432115" stop-opacity="0.71"/>
<stop offset="1" stop-color="#713C2B" stop-opacity="0"/>
</linearGradient>
<clipPath id="clip0_3_2">
<rect width="512" height="512" fill="white"/>
</clipPath>
</defs>
</svg>
