<svg width="99" height="103" viewBox="0 0 99 103" fill="none" xmlns="http://www.w3.org/2000/svg">
<path d="M5.5656 33.2617C6.1419 34.1657 6.673 35.0471 7.2606 35.8946C17.86 51.2287 32.0302 61.5908 50.0424 66.5854C53.6584 67.5911 57.3309 68.2578 61.0599 68.6985C65.9302 69.2861 70.8118 69.4104 75.6934 69.1618C81.8857 68.8454 87.999 67.9301 94.0332 66.5176C94.0671 66.5063 94.101 66.5176 94.1575 66.5515C93.762 66.721 93.3778 66.9018 92.9823 67.0713C92.5868 67.2408 92.18 67.4103 91.7845 67.5685C85.965 69.8963 79.9535 71.5574 73.7611 72.5744C69.0038 73.3541 64.2239 73.7157 59.4101 73.5349C43.285 72.9699 29.7137 66.8679 18.9109 54.7995C13.8033 49.093 9.8596 42.6407 6.6278 35.7251C6.2662 34.9454 5.9272 34.1657 5.5769 33.386C5.5656 33.3747 5.5656 33.3408 5.5656 33.2617Z" fill="#1D1819"/>
<path d="M61.2294 0.729004C60.235 1.5539 59.2632 2.4127 58.4157 3.3845C57.0597 4.9552 56.1105 6.718 55.8054 8.7859C55.5342 10.6165 55.7489 12.4132 56.2348 14.1873C56.8337 16.3682 57.7829 18.4022 58.8564 20.391C59.557 21.7018 60.1333 23.0578 60.3706 24.5268C60.8113 27.2501 59.8621 29.3632 57.5795 30.8887C55.9862 31.9509 54.2008 32.482 52.3363 32.7984C52.0651 32.8436 51.7939 32.8775 51.4775 32.9114C51.5453 32.8436 51.5792 32.8097 51.6131 32.7871C53.9861 31.1147 54.8223 28.7869 54.0426 25.9845C53.681 24.685 53.1047 23.4872 52.3137 22.3911C50.9012 20.4136 49.7034 18.3231 49.0819 15.9501C48.0423 11.9273 49.1271 8.5147 52.099 5.6671C54.1556 3.6896 56.619 2.3788 59.2519 1.3505C59.896 1.1019 60.5514 0.887204 61.2294 0.729004Z" fill="#1D1819"/>
<path d="M48.1892 33.0019C48.5169 32.4934 48.7768 31.9623 48.8672 31.3521C49.0254 30.3916 48.7768 29.5328 48.257 28.7418C47.7937 28.0186 47.2061 27.4197 46.5055 26.9338C45.5111 26.2332 44.5732 25.4761 43.8048 24.5269C42.7765 23.2726 42.1211 21.8714 42.1663 20.2216C42.1889 19.408 42.381 18.617 42.7087 17.8712C43.6466 15.7016 45.2625 14.1083 47.1496 12.7297C47.0027 12.9896 46.8558 13.2382 46.7089 13.4981C45.0365 16.4022 45.2738 19.1594 47.3191 21.7923C48.0875 22.7867 48.9802 23.6794 49.9068 24.5269C50.5735 25.1371 51.1724 25.8264 51.5792 26.64C52.2459 27.9621 52.1781 29.2503 51.3419 30.4707C50.5396 31.6233 49.4322 32.3917 48.1892 33.0019Z" fill="#1D1819"/>
<path d="M4.14179 39.5107C5.56559 43.3075 7.45269 46.8557 9.70139 50.223C17.6679 62.1445 28.5385 70.1675 42.1889 74.4728C42.2906 74.5067 42.381 74.5406 42.4827 74.5971C41.9177 74.5745 41.364 74.4502 40.8103 74.3259C32.211 72.371 24.5609 68.5403 18.0069 62.5965C12.0179 57.1725 7.83689 50.5507 5.13619 42.9572C4.74069 41.8385 4.36779 40.7198 4.06269 39.5785C4.05139 39.4994 4.08529 39.4881 4.14179 39.5107Z" fill="#1D1819"/>
<path d="M4.14179 39.5107C4.11919 39.5333 4.09659 39.5559 4.07399 39.5785C3.92709 39.3186 3.90449 39.0135 3.83669 38.731C3.97229 38.9683 4.07399 39.2282 4.14179 39.5107Z" fill="#1D1819"/>
<path fill-rule="evenodd" clip-rule="evenodd" d="M64.5855 36.8325H45.8585C39.6219 36.8325 33.374 36.8325 27.1373 36.8551C26.9113 36.8551 26.6853 36.8551 26.4706 36.889C25.7248 37.002 25.3745 37.4088 25.3745 38.1546C25.3745 41.4655 25.3745 44.7651 25.3858 48.0647C25.3858 49.6806 25.6457 51.2626 26.0638 52.822C26.109 53.0141 26.2107 53.1497 26.3689 53.2627C33.5557 58.6528 41.4657 62.6078 50.0989 65.1164C50.2797 65.1616 50.4379 65.1842 50.6187 65.1503C52.0086 64.8904 53.3759 64.5514 54.7093 64.0994C54.8511 64.05 54.9932 64.0012 55.1353 63.9524C56.2614 63.5655 57.3884 63.1784 58.3818 62.5061C60.8565 60.8111 62.7549 58.5737 64.2239 55.9747C64.3482 55.7487 64.4838 55.6696 64.7437 55.6696C65.54 55.6866 66.3299 55.6844 67.1229 55.6823C67.3878 55.6816 67.6531 55.6809 67.919 55.6809C68.1186 55.6776 68.3173 55.6792 68.5152 55.6807C68.9896 55.6845 69.46 55.6882 69.9304 55.6244C74.1114 55.0368 76.8347 51.0931 75.8855 46.9799C75.2188 44.1097 72.7328 41.9062 69.7948 41.6011C69.103 41.5243 68.406 41.5363 67.7108 41.5483C67.384 41.5539 67.0577 41.5595 66.7325 41.5559C66.4839 41.5559 66.4274 41.4881 66.4274 41.2395C66.4349 40.5469 66.4324 39.8592 66.4299 39.1699C66.4287 38.8247 66.4274 38.479 66.4274 38.132C66.4274 37.567 66.1901 37.2054 65.659 36.9907C65.3087 36.8551 64.9471 36.8325 64.5855 36.8325ZM66.4161 44.4939V46.7087C66.5065 48.4602 66.2692 50.449 65.5912 52.3926C65.5121 52.6299 65.5912 52.6638 65.8059 52.6638C66.2709 52.659 66.7338 52.6604 67.1964 52.6617C67.8131 52.6636 68.4292 52.6654 69.049 52.6525C71.196 52.6073 72.9927 50.9914 73.1848 48.9687C73.3995 46.72 72.0435 44.799 69.8626 44.347C69.1392 44.1963 68.4007 44.2165 67.6639 44.2365C67.2959 44.2466 66.9282 44.2566 66.563 44.2453C66.4015 44.2358 66.4077 44.3381 66.4138 44.4381C66.415 44.4571 66.4161 44.4759 66.4161 44.4939Z" fill="#E52129"/>
<path d="M0.209396 77.5012C1.0004 77.4899 1.7801 77.5012 2.5711 77.4786C2.7971 77.4786 2.8084 77.5803 2.8084 77.7611C2.8084 78.9702 2.8084 80.1793 2.8084 81.3884C2.8084 82.541 2.8084 83.6936 2.8084 84.8801C2.9553 84.8123 3.0005 84.688 3.057 84.5976C4.6051 82.315 6.1532 80.0324 7.69 77.7385C7.8143 77.5577 7.9386 77.4673 8.1646 77.4786C8.9104 77.5012 9.6675 77.4899 10.4246 77.4899C10.4359 77.6707 10.3116 77.7611 10.2438 77.8628C8.9782 79.7273 7.7239 81.6031 6.447 83.4563C6.2775 83.7049 6.2549 83.8744 6.4357 84.1343C7.8369 86.27 9.2268 88.417 10.628 90.564C10.6958 90.6657 10.7523 90.7561 10.8427 90.9143C10.1873 90.9143 9.5884 90.9143 8.9895 90.9143C8.594 90.9143 8.1194 91.0273 7.8143 90.8578C7.5205 90.6996 7.3849 90.2363 7.1815 89.9086C6.3566 88.5865 5.5317 87.2644 4.6955 85.9423C4.6842 85.9197 4.6616 85.9084 4.6164 85.8632C4.1531 86.4847 3.7124 87.1062 3.2265 87.7051C2.9101 88.0893 2.7632 88.4848 2.7971 88.982C2.8423 89.5357 2.7971 90.0894 2.8084 90.6431C2.8197 90.8578 2.7519 90.9256 2.5372 90.9256C1.7575 90.9143 0.989097 90.9256 0.209396 90.9256C0.209396 86.4395 0.209396 81.976 0.209396 77.5012Z" fill="#1D1819"/>
<path d="M70.4615 84.3716C70.2016 85.1852 69.9756 85.9084 69.7496 86.6316C69.3315 87.965 68.9021 89.2871 68.4953 90.6205C68.4275 90.8352 68.3484 90.9143 68.1111 90.9143C67.6139 90.8917 67.128 90.903 66.6308 90.9143C66.45 90.9143 66.3709 90.8804 66.3144 90.6883C65.3652 87.2531 64.4047 83.8292 63.4329 80.394C63.3651 80.1567 63.4442 80.1454 63.6363 80.1454C64.2804 80.1567 64.9245 80.168 65.5799 80.1341C65.9189 80.1115 66.0093 80.2471 66.0771 80.5409C66.5404 82.6314 67.015 84.7219 67.4896 86.8237C67.5009 86.8915 67.5235 86.948 67.5687 87.1062C67.9077 85.9084 68.2241 84.8123 68.5405 83.7162C68.7778 82.8913 69.0151 82.0664 69.2411 81.2528C69.3089 81.0155 69.3993 80.7895 69.5575 80.5861C70.066 79.942 71.0491 80.0098 71.4446 80.733C71.8062 81.411 71.9305 82.1794 72.1452 82.9026C72.5294 84.1908 72.891 85.4903 73.2639 86.7898C73.2865 86.8802 73.2865 86.9819 73.3882 87.0497C73.8854 84.8462 74.3939 82.6427 74.8798 80.4392C74.9363 80.2019 75.0267 80.1454 75.2527 80.1454C75.9081 80.1567 76.5635 80.1567 77.2302 80.1454C77.4563 80.1454 77.5354 80.1567 77.4563 80.4279C76.4957 83.8292 75.5578 87.2418 74.6086 90.6544C74.5634 90.8352 74.4956 90.9256 74.2809 90.9143C73.7724 90.8917 73.2752 90.8917 72.7667 90.9143C72.552 90.9256 72.4842 90.8352 72.4277 90.6544C71.7836 88.5978 71.1395 86.5412 70.4615 84.3716Z" fill="#1D1819"/>
<path d="M46.4151 85.5807C47.2739 84.2925 48.144 83.0156 49.0028 81.7274C49.2175 81.411 49.4322 81.0833 49.6469 80.7669C49.726 80.6539 49.8051 80.5861 49.952 80.5861C50.7882 80.5974 51.6131 80.5861 52.4493 80.5861C52.4945 80.733 52.3815 80.7895 52.325 80.8686C51.2967 82.2811 50.2684 83.6936 49.2288 85.1061C49.0593 85.3321 49.048 85.4677 49.2288 85.705C50.4718 87.3096 51.6922 88.9368 52.9126 90.5527C52.9917 90.6544 53.0595 90.7561 53.1725 90.903C52.1894 90.903 51.2628 90.903 50.3249 90.903C50.178 90.903 50.1441 90.7674 50.0763 90.677C49.2627 89.5922 48.4604 88.5074 47.6581 87.4339C47.579 87.3322 47.4999 87.2305 47.4095 87.1062C47.0592 87.6034 46.7315 88.078 46.3925 88.5526C46.3134 88.6656 46.336 88.7786 46.336 88.8916C46.336 89.4679 46.3247 90.0442 46.336 90.6205C46.3473 90.8465 46.2908 90.9256 46.0535 90.9143C45.432 90.8917 44.8105 90.8917 44.189 90.9143C43.9404 90.9256 43.8839 90.8465 43.8839 90.5979C43.8952 87.7955 43.8839 84.9818 43.8839 82.1794C43.8839 80.4731 43.8839 78.7781 43.8726 77.0718C43.8726 76.8232 43.9178 76.7215 44.2003 76.7328C44.7653 76.7554 45.3303 76.7554 45.8953 76.7328C46.2343 76.7102 46.3473 76.7893 46.336 77.1622C46.3134 79.8629 46.3247 82.5636 46.3247 85.2643C46.3247 85.366 46.3247 85.4677 46.3247 85.5694C46.3699 85.5694 46.3925 85.5807 46.4151 85.5807Z" fill="#1D1819"/>
<path d="M22.5156 85.5468C22.5156 83.8631 22.5269 82.1907 22.5043 80.507C22.5043 80.2019 22.5947 80.1228 22.8772 80.1454C23.2501 80.168 23.6343 80.168 24.0072 80.1454C24.2445 80.1341 24.4027 80.1906 24.4818 80.4392C24.5609 80.6878 24.7078 80.9025 24.7869 81.1511C24.866 81.3884 24.9677 81.4223 25.1937 81.3093C25.9282 80.9477 26.6966 80.6426 27.4198 80.2584C27.9848 79.9533 28.5385 79.9985 29.0696 80.2358C30.2674 80.7556 30.8776 81.7161 31.0245 82.993C31.0923 83.6258 31.0697 84.2586 31.0697 84.8914C31.0697 86.7785 31.0697 88.6769 31.081 90.564C31.081 90.8465 31.0019 90.9143 30.7307 90.903C30.1544 90.8804 29.5781 90.8804 29.0018 90.903C28.708 90.9143 28.6063 90.8578 28.6176 90.5301C28.6402 88.4283 28.6289 86.3265 28.6289 84.2134C28.6289 83.9535 28.6176 83.6936 28.5724 83.445C28.4255 82.6201 27.6797 82.2133 26.9 82.5297C26.3576 82.7557 25.8265 82.993 25.2728 83.1964C25.0355 83.2868 24.9677 83.4111 24.9677 83.6597C24.979 85.9536 24.9677 88.2475 24.979 90.5301C24.979 90.8239 24.8999 90.903 24.6174 90.8917C24.0411 90.8691 23.4648 90.8691 22.8885 90.8917C22.606 90.903 22.5156 90.8352 22.5156 90.5301C22.5269 88.8803 22.5156 87.2192 22.5156 85.5468Z" fill="#1D1819"/>
<path d="M94.3724 85.3886C94.3724 87.1175 94.3611 88.8464 94.3837 90.5753C94.3837 90.8578 94.3046 90.9256 94.0334 90.9143C93.3893 90.8917 92.7452 90.8917 92.0898 90.9143C91.8186 90.9256 91.7395 90.8465 91.7395 90.5753C91.7508 87.1175 91.7395 83.671 91.7508 80.2132C91.7508 79.9194 91.6943 79.8177 91.3779 79.829C90.4061 79.8516 89.423 79.829 88.4512 79.8403C88.2139 79.8403 88.1574 79.7725 88.1574 79.5465C88.1687 78.9589 88.1687 78.3713 88.1574 77.7837C88.1574 77.5803 88.1913 77.5012 88.4286 77.5012C91.5361 77.5125 94.6323 77.5125 97.7398 77.5012C97.9206 77.5012 97.9771 77.5464 97.9771 77.7385C97.9658 78.3487 97.9658 78.9589 97.9771 79.5691C97.9771 79.7838 97.9206 79.8516 97.7059 79.8403C96.7115 79.829 95.7058 79.8516 94.7114 79.829C94.4176 79.8177 94.3724 79.9194 94.3724 80.1793C94.3724 81.9082 94.3724 83.6484 94.3724 85.3886Z" fill="#1D1819"/>
<path d="M83.4904 84.1682C83.4904 82.0551 83.5018 79.942 83.4792 77.8176C83.4792 77.5351 83.5582 77.4673 83.8295 77.4786C84.4962 77.5012 85.1741 77.4899 85.8408 77.4786C86.0556 77.4786 86.1121 77.5351 86.1121 77.7498C86.1008 82.0438 86.1008 86.3265 86.1121 90.6205C86.1121 90.8578 86.0443 90.9143 85.8183 90.903C85.1516 90.8917 84.4735 90.8804 83.8068 90.903C83.5469 90.9143 83.4792 90.8465 83.4792 90.5753C83.5018 88.4509 83.4904 86.3039 83.4904 84.1682Z" fill="#1D1819"/>
<path fill-rule="evenodd" clip-rule="evenodd" d="M38.4068 88.899C38.5509 88.8221 38.6966 88.7444 38.8441 88.6656C38.8306 88.8986 38.8191 89.1266 38.8078 89.3504C38.7814 89.8755 38.7561 90.3779 38.7085 90.8691C38.6407 91.5132 38.2904 91.8522 37.6576 91.9765C37.1491 92.0669 36.6519 92.033 36.1547 91.8974C35.8157 91.807 35.5671 91.6149 35.5332 91.2307C35.5108 91.0291 35.3997 91.0384 35.2657 91.0496L35.262 91.0499C35.1151 91.0584 34.9682 91.0675 34.8212 91.0767C34.3806 91.1043 33.9399 91.1318 33.4992 91.1403C33.2167 91.1516 33.2054 91.2646 33.228 91.4906C33.3523 92.5867 33.9625 93.3212 34.9795 93.7054C36.2338 94.18 37.5333 94.2252 38.8215 93.8749C40.234 93.4907 41.0815 92.4398 41.1719 90.9708C41.2058 90.3606 41.2058 89.7504 41.2058 89.1402C41.2115 87.6881 41.2115 86.2333 41.2115 84.777C41.2115 83.3207 41.2115 81.863 41.2171 80.4053C41.2171 80.1228 41.1606 80.0437 40.8668 80.0776C40.527 80.1229 40.1922 80.1379 39.8557 80.153C39.6887 80.1605 39.5213 80.168 39.3526 80.1793C38.7181 80.2259 38.0836 80.2214 37.4491 80.217C36.8519 80.2129 36.2547 80.2087 35.6575 80.2471C34.1546 80.3375 33.1828 81.1285 32.8551 82.6088C32.5161 84.1908 32.4935 85.7841 32.8099 87.3661C33.1489 89.0837 34.2563 89.999 35.9287 90.0668C36.1321 90.0781 36.3129 90.0329 36.4937 89.9312C37.1154 89.5878 37.7448 89.2521 38.4068 88.899ZM38.7738 85.1061C38.7751 84.9102 38.7763 84.7144 38.7763 84.5185C38.7763 84.3661 38.7756 84.2137 38.7749 84.0612C38.7728 83.6028 38.7707 83.1429 38.7876 82.6766C38.7876 82.4732 38.7311 82.4167 38.5277 82.4167C38.2048 82.4296 37.882 82.4278 37.5591 82.4259C37.317 82.4245 37.0748 82.4231 36.8327 82.428C35.9852 82.4393 35.4767 82.8235 35.262 83.6258C35.036 84.462 34.9908 85.3208 35.1377 86.1796C35.3298 87.287 36.3694 87.7842 37.3638 87.2644C37.4957 87.1966 37.6275 87.1275 37.7594 87.0584C38.023 86.9203 38.2867 86.7822 38.5503 86.6542C38.7085 86.5751 38.7763 86.4734 38.7763 86.2813C38.7688 85.8896 38.7713 85.4978 38.7738 85.1061Z" fill="#1D1819"/>
<path fill-rule="evenodd" clip-rule="evenodd" d="M20.5268 88.1119C20.7076 87.287 20.7415 86.4395 20.7754 85.5581C20.7641 84.8462 20.7302 84.0891 20.5833 83.3546C20.2443 81.5579 19.2612 80.507 17.5775 80.1454C16.8995 79.9985 16.1989 80.0098 15.5096 80.055C13.6564 80.1906 12.4134 81.2076 11.984 83.0043C11.5659 84.7445 11.5998 86.496 12.0066 88.2362C12.3569 89.6939 13.2383 90.677 14.7299 91.016C15.6226 91.2194 16.5153 91.2307 17.4193 91.0838C19.1482 90.8126 20.1426 89.7843 20.5268 88.1119ZM18.1877 87.4C18.3346 86.7898 18.3346 86.1683 18.3233 85.5468C18.3346 85.027 18.3346 84.5072 18.2668 83.9987C18.1877 83.4337 18.0295 82.9139 17.5436 82.5636C16.4023 81.75 14.696 82.2811 14.357 83.6371C14.0293 84.9366 14.0406 86.27 14.4022 87.5695C14.6734 88.5526 15.3853 89.0046 16.3797 88.9594C17.3515 88.9029 17.9617 88.3944 18.1877 87.4Z" fill="#1D1819"/>
<path fill-rule="evenodd" clip-rule="evenodd" d="M62.4724 88.1345C62.6645 87.287 62.6984 86.4282 62.721 85.5242C62.7097 84.8349 62.6871 84.1004 62.5402 83.3772C62.2012 81.5805 61.2407 80.5183 59.5457 80.1567C58.8451 79.9985 58.1219 79.9985 57.41 80.0663C55.5455 80.2358 54.3816 81.2189 53.9409 83.0382C53.5228 84.7784 53.5454 86.5299 53.9635 88.2701C54.3251 89.7617 55.2517 90.7335 56.7998 91.0499C57.6134 91.2081 58.427 91.2307 59.2519 91.1064C61.0373 90.8465 62.0656 89.886 62.4724 88.1345ZM60.1446 87.3887C60.2915 86.7785 60.2915 86.157 60.2802 85.5355C60.2915 85.0383 60.2915 84.5298 60.2237 84.0326C60.1446 83.4563 59.9864 82.9252 59.4892 82.5636C58.3479 81.7387 56.6303 82.2811 56.3026 83.6371C55.9749 84.9366 55.9862 86.27 56.3478 87.5695C56.6303 88.5413 57.3422 89.0046 58.3366 88.9481C59.3197 88.8916 59.9186 88.3718 60.1446 87.3887Z" fill="#1D1819"/>
<path d="M98.7906 102.192C98.6889 102.192 98.5759 102.192 98.4742 102.192C97.9318 102.192 97.9318 102.192 97.7736 101.683C97.7058 101.65 97.6719 101.706 97.638 101.751C97.1295 102.294 96.2255 102.452 95.5701 102.102C95.1859 101.898 94.9712 101.559 94.926 101.152C94.813 100.124 94.9034 99.0845 94.8808 98.0562C94.8808 97.9319 94.9373 97.8867 95.0503 97.898C95.0616 97.898 95.0729 97.898 95.0842 97.898C96.0447 97.8189 96.0447 97.8189 96.0447 98.7681C96.0447 99.3444 96.0334 99.9207 96.0447 100.497C96.056 101.051 96.2707 101.322 96.6888 101.356C97.1634 101.39 97.5024 101.13 97.5928 100.61C97.7284 99.8303 97.6493 99.0393 97.6493 98.2483C97.6493 97.9545 97.7284 97.8528 98.0222 97.8867C98.2821 97.9206 98.542 97.898 98.7906 97.9093C98.7906 99.3218 98.7906 100.757 98.7906 102.192Z" fill="#1D1819"/>
<path d="M68.0094 99.7625C68.4727 99.1862 68.9812 98.6777 69.4445 98.1353C69.614 97.9432 69.7835 97.8415 70.0434 97.8641C70.3372 97.8867 70.6197 97.8641 71.0039 97.8641C70.6197 98.2935 70.292 98.6551 69.9643 99.028C69.7496 99.2653 69.3993 99.5026 69.388 99.7512C69.3767 99.9998 69.7157 100.26 69.8965 100.52C70.292 101.062 70.6875 101.593 71.1282 102.181C70.6762 102.181 70.2694 102.181 69.8626 102.181C69.727 102.181 69.6931 102.068 69.6366 101.989C69.3428 101.582 69.0603 101.164 68.7552 100.757C68.6761 100.655 68.6309 100.418 68.484 100.508C68.3032 100.61 68.0433 100.7 68.0433 101.005C68.0433 101.322 68.032 101.638 68.0433 101.955C68.0546 102.135 68.0094 102.192 67.8173 102.192C66.8681 102.215 66.8681 102.226 66.8681 101.299C66.8681 99.706 66.8794 98.1014 66.8568 96.5081C66.8568 96.2482 66.9133 96.1691 67.1845 96.1691C68.0433 96.1804 68.0433 96.1691 68.0433 97.0166C68.032 97.9319 68.0772 98.8359 68.0094 99.7625Z" fill="#1D1819"/>
<path d="M77.4901 98.5082C77.9986 97.8528 78.5636 97.7285 79.2077 97.8076C79.8518 97.8867 80.3038 98.2822 80.3716 98.9263C80.4846 99.9546 80.3942 100.994 80.4168 102.022C80.4168 102.147 80.3716 102.192 80.2473 102.181C80.2247 102.181 80.2021 102.181 80.1795 102.181C79.2416 102.226 79.2416 102.226 79.2416 101.277C79.2416 100.712 79.2529 100.147 79.2416 99.5817C79.2303 99.0167 79.0269 98.7455 78.6201 98.7116C78.1003 98.6777 77.7839 98.915 77.6935 99.4574C77.5579 100.248 77.637 101.051 77.637 101.842C77.637 102.102 77.5805 102.203 77.3093 102.169C77.0381 102.135 76.6652 102.294 76.4957 102.102C76.3601 101.943 76.4618 101.582 76.4505 101.311C76.4505 100.271 76.4618 99.2201 76.4392 98.1805C76.4392 97.898 76.5296 97.8528 76.7895 97.8415C77.2189 97.8415 77.524 97.8867 77.4901 98.5082Z" fill="#1D1819"/>
<path d="M92.4061 98.6212C92.7564 98.0901 93.1745 97.7737 93.7847 97.785C94.0107 97.7963 94.1802 97.8189 94.0898 98.1127C94.0898 98.124 94.0898 98.1353 94.0898 98.1466C94.0785 98.3726 94.1237 98.6325 94.022 98.802C93.909 99.0054 93.6152 98.8472 93.4118 98.8924C92.8242 99.0167 92.5191 99.3557 92.5078 99.9659C92.4965 100.61 92.4965 101.254 92.5078 101.898C92.5078 102.102 92.4739 102.181 92.2479 102.181C91.3326 102.192 91.3326 102.192 91.3326 101.288C91.3326 100.26 91.3439 99.2201 91.3213 98.1918C91.3213 97.898 91.4117 97.8415 91.6716 97.8528C92.2027 97.8867 92.2027 97.8641 92.4061 98.6212Z" fill="#1D1819"/>
<path fill-rule="evenodd" clip-rule="evenodd" d="M81.9667 102.195C82.3214 102.21 82.67 102.224 82.722 101.683C82.7547 101.711 82.7822 101.73 82.8056 101.747C82.8308 101.764 82.8514 101.779 82.8689 101.796C83.7616 102.621 85.0272 102.361 85.434 101.22C85.7278 100.407 85.7278 99.5591 85.4001 98.7455C85.1628 98.1579 84.7334 97.8189 84.0893 97.785C83.5695 97.7624 83.1401 97.9432 82.8011 98.4178V97.0618C82.8011 96.5893 82.8011 96.3548 82.6841 96.244C82.5659 96.1322 82.3286 96.1464 81.8519 96.1691C81.6711 96.1804 81.6372 96.2369 81.6372 96.3951C81.6485 98.2483 81.6485 100.101 81.6372 101.955C81.6372 102.147 81.6937 102.192 81.8745 102.192C81.9052 102.193 81.936 102.194 81.9667 102.195ZM84.2927 100.825C84.417 100.565 84.4283 100.282 84.4283 99.9998C84.4283 99.7173 84.417 99.4461 84.2814 99.1749C84.1345 98.8472 83.8859 98.7003 83.5243 98.7229C83.174 98.7568 82.948 98.9376 82.8689 99.2653C82.7333 99.7625 82.7446 100.26 82.8802 100.757C82.9819 101.107 83.2192 101.277 83.5808 101.299C83.9424 101.322 84.1571 101.13 84.2927 100.825Z" fill="#1D1819"/>
<path fill-rule="evenodd" clip-rule="evenodd" d="M57.4001 98.7198C57.3994 98.9316 57.3987 99.1436 57.3987 99.3557C57.3987 99.482 57.3983 99.6087 57.3978 99.7358C57.396 100.245 57.3942 100.759 57.4213 101.265C57.4213 101.35 57.41 101.446 57.3985 101.542C57.3703 101.779 57.3413 102.023 57.4778 102.135C57.5961 102.232 57.8064 102.216 58.0231 102.201C58.1375 102.193 58.2538 102.184 58.3592 102.192C58.5626 102.203 58.6078 102.135 58.6078 101.932C58.6022 101.683 58.6022 101.438 58.6022 101.192C58.6022 100.946 58.6022 100.7 58.5965 100.452C58.5965 100.237 58.6417 100.158 58.8677 100.169C59.1163 100.181 59.3762 100.169 59.6361 100.135C60.6305 100.022 61.2407 99.367 61.2746 98.3952C61.3085 97.3669 60.8226 96.7567 59.7604 96.5872C59.3418 96.5254 58.919 96.5345 58.4971 96.5435C58.2243 96.5494 57.9519 96.5553 57.6812 96.542C57.4552 96.5307 57.3874 96.5872 57.3874 96.8245C57.4044 97.4515 57.4023 98.0848 57.4001 98.7198ZM58.5819 98.3011C58.5834 98.3306 58.5852 98.3678 58.5852 98.4178C58.611 98.4993 58.596 98.6036 58.5805 98.7116C58.5551 98.8879 58.5284 99.074 58.6756 99.1862C58.8677 99.3218 59.218 99.2201 59.4892 99.141C59.9186 99.0167 60.1446 98.6099 60.0542 98.1466C59.9525 97.6268 59.5231 97.3895 58.7547 97.5364C58.5186 97.5806 58.5475 97.755 58.5771 97.9336C58.5928 98.0285 58.6087 98.1246 58.5852 98.2031C58.5785 98.2301 58.5798 98.2571 58.5819 98.3011Z" fill="#1D1819"/>
<path fill-rule="evenodd" clip-rule="evenodd" d="M87.1855 102.192C87.9087 102.361 88.5641 102.248 89.0726 101.582C89.3505 102.226 89.355 102.226 89.9035 102.183L89.9314 102.181C90.0896 102.181 90.1235 102.124 90.1235 101.977C90.1235 101.734 90.1242 101.491 90.1249 101.249C90.1271 100.524 90.1292 99.8043 90.1122 99.0845C90.0896 98.4969 89.7506 98.0562 89.1856 97.8867C88.3946 97.6494 87.6262 97.7398 86.8804 98.0675C86.8662 98.0736 86.8509 98.0789 86.8355 98.0843C86.7658 98.1087 86.6965 98.133 86.7335 98.2257C86.7578 98.2797 86.7809 98.3357 86.804 98.3919C86.8776 98.5708 86.9521 98.7521 87.0725 98.8811C87.1577 98.9662 87.2747 98.9029 87.3908 98.84C87.4441 98.8111 87.4973 98.7823 87.5471 98.7681C87.8522 98.6777 88.1686 98.6099 88.485 98.6551C88.8127 98.7003 89.0161 98.9828 88.9709 99.3218C88.9375 99.5644 88.7801 99.5345 88.6365 99.5072C88.5861 99.4976 88.5374 99.4883 88.4963 99.4913C88.4701 99.4929 88.4438 99.4946 88.4176 99.4962C87.9128 99.5279 87.4101 99.5595 86.9482 99.7851C86.4736 100.034 86.2589 100.463 86.3154 101.085C86.3719 101.661 86.6657 102.068 87.1855 102.192ZM88.9709 100.633C89.0274 100.203 89.0161 100.181 88.5076 100.203C88.3042 100.203 88.0556 100.214 87.8183 100.35C87.5471 100.508 87.468 100.757 87.5245 101.039C87.5923 101.333 87.8296 101.401 88.0895 101.401C88.5754 101.401 88.9144 101.107 88.9709 100.633Z" fill="#1D1819"/>
<path fill-rule="evenodd" clip-rule="evenodd" d="M65.6677 101.32C65.669 101.236 65.6703 101.15 65.6703 101.062C65.5347 101.118 65.4217 101.164 65.32 101.186C64.8793 101.333 64.416 101.435 63.9414 101.344C63.5459 101.277 63.2747 100.983 63.1956 100.599C63.1504 100.384 63.1956 100.305 63.4329 100.316C63.8322 100.324 64.2315 100.321 64.6307 100.319C64.8304 100.317 65.03 100.316 65.2296 100.316C65.5986 100.316 65.785 100.316 65.8724 100.223C65.9616 100.128 65.9475 99.936 65.9189 99.5478C65.8398 98.6212 65.3652 98.0223 64.5629 97.8302C63.2408 97.5251 62.2012 98.2144 61.9978 99.5478C61.9526 99.8642 61.9526 100.181 61.9978 100.497C62.0995 101.209 62.4159 101.774 63.1052 102.056C63.8962 102.384 64.6872 102.316 65.4782 102.045C65.6025 102.011 65.6816 101.943 65.6703 101.796C65.6629 101.64 65.6652 101.483 65.6677 101.32ZM63.8301 99.5226C63.8929 99.5239 63.9561 99.5252 64.0205 99.5252C64.0816 99.5252 64.1428 99.5239 64.203 99.5226C64.321 99.5201 64.4356 99.5177 64.5403 99.5252C64.8228 99.5591 64.8341 99.4122 64.7776 99.2088C64.6872 98.8359 64.3934 98.6099 64.0092 98.6099C63.6137 98.6099 63.3538 98.8133 63.2295 99.1975C63.1504 99.4235 63.1617 99.5591 63.4555 99.5252C63.5832 99.5177 63.7058 99.5201 63.8301 99.5226Z" fill="#1D1819"/>
<path fill-rule="evenodd" clip-rule="evenodd" d="M72.3034 102.192C73.0379 102.384 73.7046 102.248 74.2131 101.593C74.4956 102.237 74.4956 102.237 75.0945 102.203C75.2188 102.192 75.2753 102.169 75.2753 102.022C75.2716 101.688 75.2703 101.354 75.2691 101.021C75.2665 100.355 75.264 99.6913 75.2414 99.028C75.2301 98.4404 74.8685 98.0562 74.3035 97.898C73.5238 97.672 72.7667 97.7737 72.0322 98.0788C71.8627 98.1466 71.874 98.2144 71.9418 98.3613C72.0714 98.6374 72.1336 98.7758 72.2376 98.8242C72.3422 98.8728 72.4891 98.8304 72.7893 98.7455C73.0718 98.6664 73.3656 98.6212 73.6594 98.6664C73.9645 98.7116 74.134 98.9828 74.1114 99.3218C74.0863 99.5902 73.9241 99.5535 73.7821 99.5214C73.7328 99.5103 73.686 99.4997 73.6481 99.5026C73.6012 99.5056 73.5541 99.5084 73.507 99.5112C73.0215 99.5403 72.5307 99.5698 72.0774 99.7964C71.6254 100.022 71.4107 100.463 71.4559 101.028C71.5011 101.65 71.7836 102.056 72.3034 102.192ZM74.1114 100.61C74.134 100.305 74.1114 100.079 73.7611 100.203C73.4673 100.203 73.23 100.214 72.9927 100.327C72.7102 100.474 72.6085 100.723 72.665 101.028C72.7215 101.344 72.9814 101.401 73.2526 101.401C73.7385 101.401 74.0662 101.085 74.1114 100.61Z" fill="#1D1819"/>
</svg>
