<svg width="512" height="512" viewBox="0 0 512 512" fill="none" xmlns="http://www.w3.org/2000/svg">
<g clip-path="url(#clip0_1_61)">
<rect width="512" height="512" fill="#FFE5E5"/>
<path d="M90 329.531C92.6637 329.493 95.2893 329.531 97.953 329.455C98.7141 329.455 98.7522 329.797 98.7522 330.406C98.7522 334.478 98.7522 338.549 98.7522 342.621C98.7522 346.502 98.7522 350.384 98.7522 354.379C99.2468 354.151 99.399 353.732 99.5893 353.428C104.803 345.741 110.016 338.055 115.191 330.33C115.61 329.721 116.028 329.417 116.789 329.455C119.301 329.531 121.85 329.493 124.4 329.493C124.438 330.102 124.019 330.406 123.791 330.749C119.529 337.027 115.305 343.344 111.005 349.585C110.434 350.422 110.358 350.993 110.967 351.868C115.686 359.06 120.366 366.29 125.085 373.52C125.313 373.862 125.503 374.167 125.808 374.7C123.601 374.7 121.584 374.7 119.567 374.7C118.235 374.7 116.637 375.08 115.61 374.509C114.62 373.977 114.164 372.416 113.479 371.313C110.701 366.861 107.923 362.409 105.107 357.956C105.069 357.88 104.993 357.842 104.841 357.69C103.28 359.783 101.796 361.876 100.16 363.893C99.0946 365.186 98.5999 366.518 98.7141 368.193C98.8663 370.057 98.7141 371.922 98.7522 373.786C98.7902 374.509 98.5619 374.738 97.8389 374.738C95.2132 374.7 92.6256 374.738 90 374.738C90 359.631 90 344.6 90 329.531Z" fill="#1D1819"/>
<path d="M421.972 412.677C421.63 412.677 421.249 412.677 420.907 412.677C419.08 412.677 419.08 412.677 418.547 410.964C418.319 410.85 418.205 411.04 418.091 411.193C416.378 413.019 413.334 413.552 411.127 412.372C409.833 411.687 409.11 410.546 408.958 409.176C408.578 405.713 408.882 402.212 408.806 398.749C408.806 398.331 408.996 398.179 409.377 398.217C409.415 398.217 409.453 398.217 409.491 398.217C412.725 397.95 412.725 397.95 412.725 401.147C412.725 403.087 412.687 405.028 412.725 406.969C412.763 408.833 413.486 409.747 414.894 409.861C416.492 409.975 417.634 409.1 417.938 407.349C418.395 404.724 418.129 402.06 418.129 399.396C418.129 398.407 418.395 398.064 419.385 398.179C420.26 398.293 421.135 398.217 421.972 398.255C421.972 403.011 421.972 407.844 421.972 412.677Z" fill="#1D1819"/>
<path d="M108.037 180.554C109.978 183.598 111.767 186.566 113.745 189.42C149.439 241.058 197.157 275.952 257.813 292.772C269.99 296.158 282.357 298.404 294.915 299.888C311.316 301.866 327.754 302.285 344.193 301.448C365.046 300.382 385.633 297.3 405.953 292.543C406.067 292.505 406.181 292.543 406.372 292.658C405.04 293.228 403.746 293.837 402.414 294.408C401.082 294.979 399.712 295.55 398.38 296.082C378.783 303.921 358.539 309.515 337.686 312.94C321.666 315.565 305.57 316.783 289.359 316.174C235.058 314.272 189.356 293.723 152.978 253.083C135.778 233.866 122.497 212.138 111.614 188.849C110.397 186.224 109.255 183.598 108.075 180.973C108.037 180.934 108.037 180.82 108.037 180.554Z" fill="#1D1819"/>
<path d="M295.486 71C292.137 73.7779 288.865 76.6699 286.011 79.9424C281.445 85.2318 278.248 91.168 277.221 98.1317C276.307 104.296 277.03 110.347 278.667 116.321C280.684 123.665 283.88 130.515 287.495 137.212C289.854 141.626 291.795 146.192 292.594 151.139C294.078 160.31 290.882 167.426 283.195 172.563C277.83 176.14 271.817 177.928 265.538 178.994C264.625 179.146 263.712 179.26 262.646 179.374C262.875 179.146 262.989 179.032 263.103 178.956C271.094 173.324 273.91 165.485 271.284 156.048C270.067 151.672 268.126 147.638 265.462 143.947C260.706 137.288 256.672 130.248 254.579 122.257C251.078 108.71 254.731 97.2184 264.739 87.6291C271.665 80.9698 279.961 76.5557 288.827 73.0929C290.996 72.2557 293.203 71.5327 295.486 71Z" fill="#1D1819"/>
<path d="M326.574 352.667C325.699 355.407 324.938 357.843 324.177 360.278C322.769 364.768 321.323 369.22 319.953 373.711C319.725 374.434 319.458 374.7 318.659 374.7C316.985 374.624 315.349 374.662 313.674 374.7C313.065 374.7 312.799 374.586 312.609 373.939C309.412 362.371 306.178 350.841 302.905 339.273C302.677 338.474 302.943 338.436 303.59 338.436C305.759 338.474 307.928 338.512 310.135 338.397C311.277 338.321 311.581 338.778 311.81 339.767C313.37 346.807 314.968 353.847 316.566 360.925C316.604 361.153 316.68 361.343 316.833 361.876C317.974 357.843 319.04 354.151 320.105 350.46C320.904 347.682 321.703 344.905 322.464 342.165C322.693 341.366 322.997 340.605 323.53 339.92C325.242 337.751 328.553 337.979 329.885 340.414C331.102 342.697 331.521 345.285 332.244 347.72C333.538 352.058 334.756 356.435 336.011 360.811C336.087 361.115 336.087 361.458 336.43 361.686C338.104 354.266 339.817 346.845 341.453 339.425C341.643 338.626 341.948 338.436 342.709 338.436C344.916 338.474 347.123 338.474 349.368 338.436C350.129 338.436 350.395 338.474 350.129 339.387C346.894 350.841 343.736 362.333 340.54 373.825C340.387 374.434 340.159 374.738 339.436 374.7C337.724 374.624 336.049 374.624 334.337 374.7C333.614 374.738 333.386 374.434 333.195 373.825C331.026 366.899 328.857 359.973 326.574 352.667Z" fill="#1D1819"/>
<path d="M251.573 179.679C252.676 177.967 253.552 176.178 253.856 174.123C254.389 170.889 253.552 167.997 251.801 165.333C250.241 162.898 248.262 160.881 245.903 159.245C242.554 156.885 239.396 154.336 236.808 151.139C233.346 146.915 231.139 142.197 231.291 136.641C231.367 133.901 232.014 131.238 233.117 128.726C236.276 121.42 241.717 116.055 248.072 111.412C247.577 112.287 247.083 113.125 246.588 114C240.956 123.779 241.755 133.064 248.643 141.931C251.23 145.279 254.237 148.285 257.357 151.139C259.602 153.194 261.619 155.515 262.989 158.255C265.234 162.707 265.006 167.045 262.19 171.155C259.488 175.037 255.759 177.624 251.573 179.679Z" fill="#1D1819"/>
<path d="M245.598 356.739C248.49 352.401 251.42 348.101 254.312 343.763C255.035 342.697 255.758 341.593 256.481 340.528C256.748 340.147 257.014 339.919 257.509 339.919C260.325 339.957 263.102 339.919 265.918 339.919C266.071 340.414 265.69 340.604 265.5 340.87C262.037 345.627 258.574 350.384 255.073 355.14C254.503 355.901 254.464 356.358 255.073 357.157C259.259 362.561 263.369 368.04 267.479 373.482C267.745 373.824 267.973 374.167 268.354 374.662C265.043 374.662 261.923 374.662 258.764 374.662C258.27 374.662 258.156 374.205 257.927 373.9C255.187 370.247 252.486 366.594 249.784 362.979C249.518 362.637 249.251 362.294 248.947 361.876C247.767 363.55 246.664 365.148 245.522 366.747C245.256 367.127 245.332 367.508 245.332 367.888C245.332 369.829 245.294 371.77 245.332 373.71C245.37 374.471 245.18 374.738 244.38 374.7C242.288 374.623 240.195 374.623 238.102 374.7C237.265 374.738 237.074 374.471 237.074 373.634C237.112 364.197 237.074 354.722 237.074 345.285C237.074 339.539 237.074 333.831 237.036 328.085C237.036 327.247 237.188 326.905 238.14 326.943C240.042 327.019 241.945 327.019 243.848 326.943C244.989 326.867 245.37 327.133 245.332 328.389C245.256 337.484 245.294 346.578 245.294 355.673C245.294 356.016 245.294 356.358 245.294 356.701C245.446 356.701 245.522 356.739 245.598 356.739Z" fill="#1D1819"/>
<path d="M103.243 201.597C108.037 214.383 114.392 226.332 121.965 237.671C148.792 277.817 185.399 304.835 231.367 319.333C231.709 319.447 232.013 319.561 232.356 319.751C230.453 319.675 228.589 319.257 226.724 318.838C197.766 312.255 172.004 299.355 149.934 279.339C129.766 261.074 115.686 238.775 106.591 213.203C105.26 209.436 104.004 205.669 102.976 201.826C102.938 201.559 103.053 201.521 103.243 201.597Z" fill="#1D1819"/>
<path d="M165.116 356.624C165.116 350.955 165.154 345.323 165.078 339.653C165.078 338.625 165.382 338.359 166.334 338.435C167.589 338.511 168.883 338.511 170.139 338.435C170.938 338.397 171.471 338.587 171.737 339.424C172.004 340.262 172.498 340.985 172.765 341.822C173.031 342.621 173.373 342.735 174.134 342.355C176.608 341.137 179.196 340.109 181.631 338.816C183.534 337.788 185.398 337.94 187.187 338.739C191.22 340.49 193.275 343.724 193.77 348.024C193.998 350.155 193.922 352.286 193.922 354.417C193.922 360.772 193.922 367.165 193.96 373.52C193.96 374.471 193.694 374.7 192.78 374.662C190.84 374.585 188.899 374.585 186.958 374.662C185.969 374.7 185.626 374.509 185.664 373.406C185.741 366.328 185.703 359.25 185.703 352.134C185.703 351.259 185.664 350.384 185.512 349.547C185.018 346.769 182.506 345.399 179.88 346.464C178.054 347.225 176.265 348.024 174.401 348.709C173.602 349.014 173.373 349.432 173.373 350.27C173.411 357.994 173.373 365.719 173.411 373.406C173.411 374.395 173.145 374.662 172.194 374.623C170.253 374.547 168.312 374.547 166.372 374.623C165.42 374.662 165.116 374.433 165.116 373.406C165.154 367.85 165.116 362.256 165.116 356.624Z" fill="#1D1819"/>
<path d="M407.095 356.092C407.095 361.914 407.057 367.736 407.133 373.558C407.133 374.509 406.867 374.737 405.954 374.699C403.785 374.623 401.616 374.623 399.409 374.699C398.495 374.737 398.229 374.471 398.229 373.558C398.267 361.914 398.229 350.308 398.267 338.663C398.267 337.674 398.077 337.332 397.011 337.37C393.739 337.446 390.428 337.37 387.156 337.408C386.357 337.408 386.166 337.179 386.166 336.418C386.204 334.44 386.204 332.461 386.166 330.482C386.166 329.797 386.28 329.531 387.08 329.531C397.544 329.569 407.97 329.569 418.435 329.531C419.044 329.531 419.234 329.683 419.234 330.33C419.196 332.385 419.196 334.44 419.234 336.494C419.234 337.217 419.044 337.446 418.321 337.408C414.972 337.37 411.585 337.446 408.237 337.37C407.247 337.332 407.095 337.674 407.095 338.549C407.095 344.371 407.095 350.231 407.095 356.092Z" fill="#1D1819"/>
<path d="M370.449 351.982C370.449 344.866 370.487 337.75 370.411 330.596C370.411 329.645 370.677 329.417 371.59 329.455C373.836 329.531 376.119 329.493 378.364 329.455C379.087 329.455 379.277 329.645 379.277 330.368C379.239 344.828 379.239 359.25 379.277 373.71C379.277 374.509 379.049 374.699 378.288 374.661C376.043 374.623 373.759 374.585 371.514 374.661C370.639 374.699 370.411 374.471 370.411 373.558C370.487 366.404 370.449 359.174 370.449 351.982Z" fill="#1D1819"/>
<path d="M318.317 404.495C319.877 402.554 321.59 400.842 323.15 399.015C323.72 398.368 324.291 398.026 325.166 398.102C326.156 398.178 327.107 398.102 328.401 398.102C327.107 399.548 326.004 400.766 324.9 402.021C324.177 402.82 322.997 403.62 322.959 404.457C322.921 405.294 324.063 406.169 324.672 407.044C326.004 408.871 327.336 410.659 328.82 412.638C327.297 412.638 325.928 412.638 324.558 412.638C324.101 412.638 323.987 412.258 323.797 411.991C322.807 410.621 321.856 409.213 320.828 407.843C320.562 407.501 320.41 406.702 319.915 407.006C319.306 407.349 318.431 407.653 318.431 408.681C318.431 409.746 318.393 410.812 318.431 411.877C318.469 412.486 318.317 412.676 317.67 412.676C314.474 412.752 314.474 412.79 314.474 409.67C314.474 404.305 314.512 398.901 314.436 393.536C314.436 392.66 314.626 392.394 315.539 392.394C318.431 392.432 318.431 392.394 318.431 395.248C318.393 398.33 318.545 401.374 318.317 404.495Z" fill="#1D1819"/>
<path d="M350.243 400.271C351.955 398.064 353.858 397.645 356.027 397.912C358.196 398.178 359.718 399.51 359.946 401.679C360.327 405.142 360.022 408.643 360.098 412.105C360.098 412.524 359.946 412.676 359.527 412.638C359.451 412.638 359.375 412.638 359.299 412.638C356.141 412.79 356.141 412.79 356.141 409.594C356.141 407.691 356.179 405.789 356.141 403.886C356.103 401.983 355.418 401.07 354.048 400.956C352.297 400.842 351.232 401.641 350.927 403.467C350.471 406.131 350.737 408.833 350.737 411.497C350.737 412.372 350.547 412.714 349.634 412.6C348.72 412.486 347.465 413.019 346.894 412.372C346.437 411.839 346.78 410.621 346.742 409.708C346.742 406.207 346.78 402.668 346.704 399.167C346.704 398.216 347.008 398.064 347.883 398.026C349.329 398.026 350.357 398.178 350.243 400.271Z" fill="#1D1819"/>
<path d="M400.474 400.652C401.654 398.863 403.062 397.798 405.117 397.836C405.878 397.874 406.448 397.95 406.144 398.939C406.144 398.977 406.144 399.016 406.144 399.054C406.106 399.815 406.258 400.69 405.916 401.261C405.535 401.946 404.546 401.413 403.861 401.565C401.882 401.984 400.855 403.125 400.817 405.18C400.779 407.349 400.779 409.518 400.817 411.687C400.817 412.372 400.703 412.639 399.941 412.639C396.859 412.677 396.859 412.677 396.859 409.632C396.859 406.169 396.897 402.669 396.821 399.206C396.821 398.216 397.126 398.026 398.001 398.064C399.789 398.178 399.789 398.102 400.474 400.652Z" fill="#1D1819"/>
<path d="M103.243 201.597C103.167 201.673 103.091 201.749 103.015 201.825C102.52 200.95 102.444 199.923 102.215 198.971C102.672 199.77 103.015 200.646 103.243 201.597Z" fill="#1D1819"/>
<path fill-rule="evenodd" clip-rule="evenodd" d="M306.787 192.579H243.723C222.721 192.579 201.681 192.579 180.679 192.655C179.918 192.655 179.157 192.655 178.434 192.769C175.923 193.149 174.743 194.519 174.743 197.031C174.743 208.18 174.743 219.292 174.781 230.403C174.781 235.845 175.656 241.172 177.064 246.423C177.217 247.07 177.559 247.527 178.092 247.908C202.293 266.059 228.93 279.377 258.003 287.825C258.612 287.977 259.144 288.053 259.753 287.939C264.434 287.064 269.038 285.922 273.528 284.4C274.006 284.234 274.484 284.07 274.963 283.905C278.755 282.602 282.55 281.299 285.896 279.035C294.229 273.327 300.622 265.792 305.569 257.04C305.987 256.279 306.444 256.013 307.319 256.013C310.001 256.07 312.661 256.063 315.331 256.056C316.223 256.053 317.117 256.051 318.012 256.051C318.684 256.04 319.353 256.045 320.02 256.05C321.617 256.063 323.201 256.075 324.786 255.861C338.865 253.882 348.036 240.601 344.839 226.75C342.594 217.085 334.223 209.664 324.329 208.637C321.999 208.378 319.652 208.419 317.311 208.459C316.211 208.478 315.112 208.497 314.017 208.485C313.179 208.485 312.989 208.256 312.989 207.419C313.015 205.087 313.006 202.771 312.998 200.45C312.993 199.287 312.989 198.123 312.989 196.955C312.989 195.052 312.19 193.834 310.402 193.111C309.222 192.655 308.004 192.579 306.787 192.579ZM312.951 218.379V225.837C313.256 231.735 312.456 238.432 310.173 244.977C309.907 245.777 310.173 245.891 310.896 245.891C312.462 245.874 314.021 245.879 315.579 245.884C317.655 245.89 319.73 245.896 321.817 245.853C329.047 245.7 335.098 240.259 335.745 233.447C336.468 225.875 331.901 219.406 324.557 217.884C322.121 217.376 319.634 217.444 317.153 217.512C315.914 217.546 314.676 217.579 313.446 217.541C312.902 217.509 312.923 217.854 312.943 218.191C312.947 218.254 312.951 218.318 312.951 218.379Z" fill="#E52129"/>
<path fill-rule="evenodd" clip-rule="evenodd" d="M218.63 367.913C219.116 367.654 219.606 367.393 220.103 367.127C220.058 367.912 220.019 368.679 219.981 369.433C219.892 371.202 219.807 372.893 219.646 374.547C219.418 376.716 218.239 377.858 216.108 378.277C214.395 378.581 212.721 378.467 211.047 378.01C209.905 377.706 209.068 377.059 208.954 375.765C208.878 375.086 208.504 375.118 208.053 375.155L208.04 375.156C207.546 375.185 207.051 375.216 206.556 375.247C205.072 375.339 203.588 375.432 202.104 375.461C201.153 375.499 201.115 375.879 201.191 376.64C201.609 380.332 203.664 382.805 207.089 384.099C211.313 385.697 215.689 385.849 220.027 384.67C224.784 383.376 227.638 379.837 227.942 374.89C228.056 372.835 228.056 370.78 228.056 368.725C228.075 363.836 228.075 358.936 228.075 354.032C228.075 349.128 228.075 344.219 228.094 339.311C228.094 338.359 227.904 338.093 226.915 338.207C225.77 338.36 224.643 338.41 223.509 338.461C222.947 338.486 222.383 338.512 221.815 338.549C219.679 338.706 217.542 338.691 215.405 338.677C213.394 338.663 211.383 338.649 209.372 338.778C204.311 339.082 201.039 341.746 199.935 346.731C198.793 352.058 198.717 357.424 199.783 362.751C200.924 368.535 204.654 371.617 210.285 371.846C210.97 371.884 211.579 371.732 212.188 371.389C214.282 370.233 216.401 369.102 218.63 367.913ZM219.866 355.141C219.871 354.481 219.875 353.821 219.875 353.162C219.875 352.649 219.872 352.136 219.87 351.622C219.863 350.078 219.856 348.529 219.913 346.959C219.913 346.274 219.723 346.084 219.038 346.084C217.95 346.127 216.863 346.121 215.776 346.115C214.96 346.11 214.145 346.106 213.33 346.122C210.476 346.16 208.763 347.454 208.04 350.156C207.279 352.972 207.127 355.864 207.622 358.756C208.269 362.485 211.77 364.159 215.118 362.409C215.562 362.18 216.006 361.948 216.45 361.715C217.338 361.25 218.226 360.785 219.114 360.354C219.646 360.087 219.875 359.745 219.875 359.098C219.849 357.779 219.858 356.46 219.866 355.141Z" fill="#1D1819"/>
<path fill-rule="evenodd" clip-rule="evenodd" d="M158.42 365.262C159.029 362.485 159.143 359.631 159.257 356.662C159.219 354.265 159.105 351.716 158.61 349.242C157.468 343.192 154.158 339.653 148.488 338.435C146.205 337.94 143.845 337.978 141.524 338.131C135.284 338.587 131.098 342.012 129.652 348.062C128.244 353.923 128.358 359.821 129.728 365.681C130.908 370.59 133.876 373.9 138.899 375.042C141.905 375.727 144.911 375.765 147.955 375.27C153.777 374.357 157.126 370.894 158.42 365.262ZM150.543 362.865C151.037 360.81 151.037 358.717 150.999 356.624C151.037 354.874 151.037 353.123 150.809 351.411C150.543 349.508 150.01 347.758 148.374 346.578C144.53 343.839 138.784 345.627 137.643 350.193C136.539 354.57 136.577 359.06 137.795 363.436C138.708 366.746 141.106 368.269 144.454 368.116C147.727 367.926 149.782 366.214 150.543 362.865Z" fill="#1D1819"/>
<path fill-rule="evenodd" clip-rule="evenodd" d="M299.67 365.339C300.317 362.485 300.431 359.593 300.508 356.549C300.469 354.227 300.393 351.754 299.899 349.319C298.757 343.268 295.523 339.691 289.815 338.474C287.455 337.941 285.02 337.941 282.623 338.169C276.344 338.74 272.425 342.051 270.94 348.177C269.532 354.037 269.609 359.935 271.017 365.796C272.234 370.819 275.355 374.091 280.568 375.157C283.308 375.689 286.047 375.765 288.825 375.347C294.838 374.472 298.3 371.237 299.67 365.339ZM291.831 362.827C292.326 360.773 292.326 358.68 292.288 356.587C292.326 354.912 292.326 353.2 292.098 351.526C291.831 349.585 291.299 347.797 289.624 346.579C285.781 343.801 279.997 345.628 278.893 350.194C277.79 354.57 277.828 359.06 279.046 363.436C279.997 366.709 282.394 368.269 285.743 368.079C289.054 367.888 291.07 366.138 291.831 362.827Z" fill="#1D1819"/>
<path fill-rule="evenodd" clip-rule="evenodd" d="M365.319 412.688C366.513 412.737 367.687 412.785 367.862 410.964C367.972 411.056 368.065 411.121 368.144 411.177C368.228 411.236 368.298 411.285 368.357 411.344C371.363 414.122 375.625 413.247 376.995 409.404C377.984 406.664 377.984 403.81 376.881 401.07C376.082 399.091 374.636 397.95 372.467 397.836C370.716 397.76 369.27 398.368 368.129 399.967V395.4C368.129 393.809 368.129 393.019 367.734 392.646C367.337 392.27 366.537 392.318 364.932 392.394C364.323 392.432 364.209 392.622 364.209 393.155C364.247 399.396 364.247 405.636 364.209 411.877C364.209 412.524 364.399 412.676 365.008 412.676C365.111 412.679 365.215 412.684 365.319 412.688ZM373.152 408.072C373.57 407.197 373.608 406.245 373.608 405.294C373.608 404.343 373.57 403.429 373.113 402.516C372.619 401.413 371.782 400.918 370.564 400.994C369.384 401.108 368.623 401.717 368.357 402.821C367.9 404.495 367.938 406.169 368.395 407.844C368.737 409.023 369.537 409.594 370.754 409.67C371.972 409.746 372.695 409.099 373.152 408.072Z" fill="#1D1819"/>
<path fill-rule="evenodd" clip-rule="evenodd" d="M282.591 400.984C282.588 401.698 282.586 402.411 282.586 403.125C282.586 403.551 282.585 403.978 282.583 404.406C282.577 406.121 282.571 407.851 282.662 409.556C282.662 409.843 282.624 410.164 282.585 410.489C282.49 411.287 282.393 412.108 282.852 412.486C283.251 412.81 283.959 412.759 284.689 412.706C285.074 412.679 285.465 412.65 285.821 412.677C286.506 412.715 286.658 412.486 286.658 411.802C286.639 410.964 286.639 410.136 286.639 409.309C286.639 408.481 286.639 407.654 286.62 406.817C286.62 406.094 286.772 405.827 287.533 405.865C288.37 405.903 289.245 405.865 290.121 405.751C293.469 405.371 295.524 403.164 295.638 399.891C295.752 396.428 294.116 394.373 290.539 393.802C289.129 393.594 287.706 393.625 286.285 393.656C285.366 393.675 284.449 393.695 283.537 393.65C282.776 393.612 282.548 393.802 282.548 394.602C282.605 396.713 282.598 398.846 282.591 400.984ZM286.571 399.574C286.575 399.674 286.582 399.799 286.582 399.967C286.668 400.242 286.618 400.593 286.566 400.956C286.48 401.55 286.39 402.177 286.886 402.555C287.533 403.011 288.713 402.669 289.626 402.402C291.072 401.984 291.833 400.614 291.529 399.054C291.186 397.303 289.74 396.504 287.152 396.999C286.357 397.148 286.455 397.735 286.554 398.337C286.607 398.656 286.661 398.98 286.582 399.244C286.559 399.335 286.563 399.426 286.571 399.574Z" fill="#1D1819"/>
<path fill-rule="evenodd" clip-rule="evenodd" d="M382.892 412.676C385.327 413.247 387.535 412.867 389.247 410.621C390.183 412.792 390.198 412.791 392.045 412.646L392.139 412.638C392.672 412.638 392.786 412.448 392.786 411.953C392.786 411.133 392.788 410.316 392.791 409.5C392.798 407.06 392.805 404.636 392.748 402.212C392.672 400.233 391.53 398.749 389.627 398.178C386.964 397.379 384.376 397.683 381.865 398.787C381.817 398.807 381.765 398.826 381.713 398.844C381.478 398.926 381.245 399.008 381.37 399.32C381.452 399.502 381.529 399.69 381.607 399.879C381.855 400.482 382.106 401.092 382.511 401.527C382.798 401.814 383.192 401.6 383.583 401.388C383.763 401.291 383.942 401.194 384.11 401.146C385.137 400.842 386.203 400.613 387.268 400.766C388.372 400.918 389.057 401.869 388.904 403.011C388.792 403.828 388.262 403.727 387.778 403.635C387.608 403.603 387.445 403.572 387.306 403.582C387.218 403.587 387.129 403.593 387.041 403.598C385.341 403.705 383.648 403.811 382.093 404.571C380.495 405.408 379.772 406.854 379.962 408.947C380.152 410.888 381.142 412.258 382.892 412.676ZM388.904 407.425C389.095 405.979 389.057 405.903 387.344 405.979C386.659 405.979 385.822 406.017 385.023 406.474C384.11 407.006 383.843 407.844 384.034 408.795C384.262 409.784 385.061 410.013 385.936 410.013C387.573 410.013 388.714 409.023 388.904 407.425Z" fill="#1D1819"/>
<path fill-rule="evenodd" clip-rule="evenodd" d="M310.432 409.74C310.436 409.457 310.44 409.168 310.44 408.871C309.984 409.061 309.603 409.213 309.261 409.289C307.777 409.784 306.216 410.126 304.618 409.822C303.286 409.594 302.373 408.604 302.107 407.311C301.955 406.588 302.107 406.321 302.906 406.359C304.25 406.385 305.595 406.376 306.939 406.368C307.612 406.363 308.284 406.359 308.956 406.359C310.199 406.359 310.826 406.359 311.121 406.046C311.421 405.726 311.374 405.079 311.277 403.772C311.011 400.651 309.413 398.635 306.711 397.988C302.259 396.96 298.758 399.281 298.073 403.772C297.921 404.837 297.921 405.903 298.073 406.968C298.416 409.365 299.481 411.268 301.802 412.219C304.466 413.323 307.13 413.095 309.793 412.181C310.212 412.067 310.478 411.839 310.44 411.344C310.415 410.817 310.423 410.289 310.432 409.74ZM304.243 403.687C304.455 403.691 304.667 403.696 304.885 403.696C305.09 403.696 305.296 403.691 305.499 403.687C305.896 403.679 306.282 403.67 306.635 403.696C307.586 403.81 307.624 403.315 307.434 402.63C307.13 401.374 306.14 400.613 304.847 400.613C303.515 400.613 302.639 401.298 302.221 402.592C301.954 403.353 301.993 403.81 302.982 403.696C303.412 403.67 303.825 403.679 304.243 403.687Z" fill="#1D1819"/>
<path fill-rule="evenodd" clip-rule="evenodd" d="M332.777 412.676C335.25 413.323 337.496 412.867 339.208 410.66C340.159 412.829 340.159 412.829 342.176 412.714C342.595 412.676 342.785 412.6 342.785 412.106C342.772 410.978 342.768 409.855 342.764 408.735C342.755 406.489 342.747 404.256 342.671 402.022C342.633 400.043 341.415 398.749 339.512 398.216C336.887 397.455 334.337 397.798 331.864 398.825C331.293 399.053 331.331 399.282 331.559 399.776C331.996 400.706 332.205 401.172 332.555 401.335C332.908 401.499 333.402 401.356 334.413 401.07C335.365 400.804 336.354 400.652 337.343 400.804C338.371 400.956 338.942 401.869 338.865 403.011C338.781 403.915 338.235 403.791 337.757 403.683C337.591 403.646 337.433 403.61 337.305 403.62C337.147 403.63 336.989 403.639 336.83 403.649C335.195 403.747 333.542 403.846 332.016 404.609C330.494 405.37 329.771 406.854 329.923 408.757C330.075 410.85 331.026 412.22 332.777 412.676ZM338.865 407.349C338.942 406.322 338.865 405.56 337.686 405.979C336.696 405.979 335.897 406.017 335.098 406.398C334.147 406.892 333.804 407.729 333.995 408.757C334.185 409.822 335.06 410.013 335.973 410.013C337.61 410.013 338.713 408.947 338.865 407.349Z" fill="#1D1819"/>
</g>
<defs>
<clipPath id="clip0_1_61">
<rect width="512" height="512" fill="white"/>
</clipPath>
</defs>
</svg>
