<svg width="247" height="247" viewBox="0 0 247 247" fill="none" xmlns="http://www.w3.org/2000/svg">
<rect width="247" height="247" rx="123.5" fill="#FFE6E6"/>
<path d="M31.6359 106.437C32.8482 108.338 33.9654 110.192 35.2015 111.975C57.4987 144.232 87.3074 166.03 125.198 176.537C132.805 178.652 140.531 180.055 148.375 180.982C158.62 182.218 168.889 182.479 179.158 181.957C192.185 181.291 205.045 179.366 217.739 176.394C217.81 176.37 217.881 176.394 218 176.465C217.168 176.822 216.36 177.202 215.528 177.559C214.696 177.915 213.84 178.272 213.008 178.605C200.766 183.502 188.12 186.996 175.093 189.135C165.086 190.776 155.031 191.536 144.904 191.156C110.983 189.967 82.4344 177.131 59.7094 151.744C48.9649 139.739 40.6688 126.166 33.8703 111.619C33.1097 109.978 32.3966 108.338 31.6597 106.698C31.6359 106.674 31.6359 106.603 31.6359 106.437Z" fill="#1D1819"/>
<path d="M148.732 38C146.641 39.7353 144.596 41.5419 142.813 43.5861C139.961 46.8903 137.964 50.5985 137.322 54.9486C136.752 58.7995 137.204 62.579 138.226 66.3111C139.486 70.8988 141.482 75.1776 143.741 79.3613C145.214 82.1187 146.427 84.9712 146.926 88.0614C147.853 93.7902 145.856 98.2353 141.054 101.444C137.703 103.679 133.947 104.796 130.025 105.462C129.454 105.557 128.884 105.628 128.218 105.699C128.361 105.557 128.432 105.485 128.503 105.438C133.495 101.92 135.254 97.023 133.614 91.1278C132.853 88.3942 131.641 85.8745 129.977 83.5687C127.006 79.4088 124.486 75.0112 123.179 70.0193C120.992 61.5569 123.274 54.3781 129.526 48.3879C133.852 44.228 139.034 41.4705 144.573 39.3074C145.927 38.7844 147.306 38.3328 148.732 38Z" fill="#1D1819"/>
<path d="M121.301 105.889C121.99 104.82 122.537 103.702 122.727 102.419C123.06 100.398 122.537 98.5917 121.443 96.9277C120.469 95.4064 119.232 94.1465 117.759 93.1244C115.667 91.6506 113.694 90.0579 112.077 88.0612C109.914 85.4226 108.536 82.475 108.631 79.0045C108.678 77.293 109.082 75.629 109.772 74.0601C111.745 69.4961 115.144 66.1444 119.114 63.2444C118.805 63.7911 118.496 64.3141 118.187 64.8608C114.668 70.9699 115.168 76.77 119.47 82.3086C121.087 84.4005 122.964 86.2784 124.914 88.0612C126.316 89.3448 127.576 90.7948 128.432 92.5063C129.834 95.2875 129.692 97.9974 127.933 100.565C126.245 102.989 123.915 104.606 121.301 105.889Z" fill="#1D1819"/>
<path d="M28.6424 119.581C31.6375 127.568 35.6073 135.032 40.3377 142.115C57.0961 167.194 79.9636 184.071 108.679 193.128C108.893 193.199 109.083 193.27 109.297 193.389C108.108 193.342 106.943 193.08 105.779 192.819C87.6891 188.706 71.5963 180.648 57.8092 168.144C45.2107 156.734 36.4155 142.805 30.7342 126.831C29.9023 124.477 29.1178 122.124 28.476 119.723C28.4522 119.557 28.5236 119.533 28.6424 119.581Z" fill="#1D1819"/>
<path d="M28.6418 119.58C28.5943 119.628 28.5467 119.676 28.4992 119.723C28.1902 119.176 28.1426 118.535 28 117.94C28.2853 118.439 28.4992 118.986 28.6418 119.58Z" fill="#1D1819"/>
<path fill-rule="evenodd" clip-rule="evenodd" d="M155.791 113.948H116.397C103.278 113.948 90.1343 113.948 77.0148 113.995C76.5394 113.995 76.064 113.995 75.6123 114.066C74.0434 114.304 73.3065 115.16 73.3065 116.729C73.3065 123.694 73.3065 130.635 73.3303 137.576C73.3303 140.975 73.877 144.303 74.7566 147.583C74.8517 147.987 75.0656 148.273 75.3984 148.51C90.5166 159.849 107.156 168.169 125.317 173.446C125.698 173.541 126.03 173.589 126.411 173.517C129.334 172.971 132.211 172.257 135.016 171.307C135.314 171.203 135.613 171.1 135.912 170.997C138.281 170.183 140.652 169.369 142.741 167.955C147.947 164.389 151.941 159.683 155.031 154.215C155.292 153.74 155.577 153.574 156.124 153.574C157.799 153.609 159.461 153.605 161.129 153.6C161.686 153.599 162.244 153.597 162.804 153.597C163.224 153.59 163.642 153.594 164.058 153.597C165.056 153.605 166.045 153.613 167.035 153.478C175.83 152.242 181.559 143.946 179.562 135.294C178.16 129.256 172.93 124.621 166.75 123.979C165.294 123.817 163.828 123.842 162.366 123.868C161.678 123.879 160.992 123.891 160.308 123.884C159.785 123.884 159.666 123.741 159.666 123.218C159.682 121.761 159.677 120.315 159.671 118.865C159.669 118.138 159.666 117.411 159.666 116.681C159.666 115.493 159.167 114.732 158.05 114.28C157.313 113.995 156.552 113.948 155.791 113.948ZM159.642 130.064V134.723C159.832 138.408 159.333 142.591 157.907 146.68C157.741 147.179 157.907 147.25 158.359 147.25C159.337 147.24 160.311 147.243 161.284 147.246C162.581 147.25 163.877 147.254 165.181 147.227C169.697 147.132 173.477 143.732 173.881 139.477C174.333 134.747 171.48 130.706 166.892 129.755C165.371 129.438 163.817 129.48 162.267 129.523C161.493 129.544 160.719 129.565 159.951 129.541C159.612 129.521 159.625 129.736 159.637 129.947C159.64 129.987 159.642 130.026 159.642 130.064Z" fill="#E52129"/>
</svg>
