<svg width="512" height="512" viewBox="0 0 512 512" fill="none" xmlns="http://www.w3.org/2000/svg">
<g clip-path="url(#clip0_637_156)">
<rect width="512" height="512" fill="#FFE5E5"/>
<path d="M53.0725 234.943C55.7641 239.165 58.2446 243.282 60.989 247.24C110.493 318.858 176.675 367.254 260.801 390.581C277.69 395.278 294.842 398.392 312.259 400.45C335.005 403.195 357.805 403.775 380.604 402.614C409.526 401.136 438.078 396.861 466.261 390.264C466.419 390.212 466.577 390.264 466.841 390.423C464.994 391.214 463.2 392.059 461.353 392.85C459.505 393.642 457.605 394.434 455.758 395.173C428.578 406.045 400.501 413.803 371.579 418.553C349.361 422.194 327.036 423.883 304.553 423.039C229.241 420.4 165.856 391.9 115.402 335.535C91.5467 308.883 73.1276 278.748 58.0335 246.449C56.3447 242.807 54.7614 239.165 53.1253 235.524C53.0725 235.471 53.0725 235.313 53.0725 234.943Z" fill="#1D1819"/>
<path d="M313.052 83C308.408 86.8527 303.869 90.8637 299.911 95.4025C293.578 102.738 289.144 110.972 287.72 120.63C286.453 129.179 287.456 137.571 289.725 145.857C292.522 156.043 296.955 165.542 301.969 174.831C305.241 180.953 307.933 187.286 309.041 194.147C311.1 206.866 306.666 216.736 296.005 223.86C288.564 228.821 280.225 231.302 271.517 232.78C270.25 232.991 268.984 233.149 267.506 233.307C267.823 232.991 267.981 232.832 268.139 232.727C279.222 224.916 283.128 214.044 279.486 200.955C277.798 194.886 275.106 189.292 271.412 184.172C264.814 174.937 259.22 165.173 256.317 154.09C251.462 135.301 256.529 119.363 270.409 106.063C280.014 96.8274 291.519 90.7054 303.816 85.9027C306.825 84.7416 309.886 83.7389 313.052 83Z" fill="#1D1819"/>
<path d="M252.148 233.73C253.678 231.355 254.892 228.874 255.314 226.024C256.053 221.538 254.892 217.527 252.464 213.833C250.3 210.455 247.556 207.658 244.284 205.389C239.64 202.117 235.259 198.581 231.67 194.147C226.868 188.289 223.807 181.745 224.018 174.04C224.123 170.24 225.02 166.545 226.551 163.062C230.931 152.929 238.478 145.488 247.292 139.049C246.606 140.263 245.92 141.424 245.234 142.638C237.423 156.201 238.531 169.079 248.084 181.376C251.673 186.02 255.842 190.189 260.17 194.147C263.283 196.997 266.081 200.217 267.981 204.017C271.094 210.192 270.778 216.208 266.872 221.908C263.125 227.291 257.953 230.88 252.148 233.73Z" fill="#1D1819"/>
<path d="M46.4263 264.129C53.0761 281.862 61.8898 298.434 72.3923 314.161C109.6 369.84 160.37 407.312 224.124 427.419C224.599 427.578 225.022 427.736 225.497 428C222.858 427.894 220.272 427.314 217.686 426.733C177.523 417.603 141.793 399.712 111.183 371.951C83.2114 346.618 63.6842 315.691 51.0706 280.226C49.2234 275.001 47.4818 269.776 46.0568 264.445C46.0041 264.076 46.1624 264.023 46.4263 264.129Z" fill="#1D1819"/>
<path d="M46.425 264.129C46.3194 264.234 46.2139 264.34 46.1083 264.445C45.4222 263.231 45.3167 261.806 45 260.487C45.6333 261.595 46.1083 262.809 46.425 264.129Z" fill="#1D1819"/>
<path fill-rule="evenodd" clip-rule="evenodd" d="M328.725 251.621H241.261C212.133 251.621 182.952 251.621 153.824 251.727C152.768 251.727 151.713 251.727 150.71 251.885C147.227 252.413 145.59 254.313 145.59 257.796C145.59 273.259 145.59 288.67 145.643 304.081C145.643 311.628 146.857 319.016 148.81 326.3C149.021 327.197 149.496 327.83 150.235 328.358C183.801 353.532 220.744 372.004 261.065 383.72C261.91 383.932 262.649 384.037 263.493 383.879C269.985 382.665 276.371 381.082 282.598 378.971C283.26 378.74 283.924 378.512 284.588 378.284C289.847 376.477 295.111 374.669 299.751 371.529C311.309 363.613 320.175 353.163 327.036 341.024C327.616 339.969 328.25 339.599 329.464 339.599C333.183 339.678 336.872 339.669 340.576 339.659C341.813 339.655 343.052 339.652 344.294 339.652C345.226 339.637 346.154 339.644 347.078 339.651C349.294 339.669 351.491 339.686 353.688 339.388C373.215 336.644 385.934 318.225 381.501 299.014C378.387 285.609 366.777 275.318 353.055 273.893C349.824 273.534 346.568 273.59 343.321 273.646C341.795 273.672 340.271 273.698 338.752 273.682C337.591 273.682 337.327 273.365 337.327 272.204C337.363 268.969 337.351 265.757 337.339 262.538C337.333 260.925 337.327 259.311 337.327 257.69C337.327 255.051 336.219 253.363 333.739 252.36C332.103 251.727 330.414 251.621 328.725 251.621ZM337.275 287.403V297.748C337.697 305.928 336.589 315.217 333.422 324.294C333.052 325.402 333.422 325.561 334.425 325.561C336.596 325.538 338.758 325.545 340.919 325.551C343.799 325.56 346.677 325.568 349.572 325.508C359.599 325.297 367.99 317.75 368.888 308.303C369.89 297.8 363.557 288.828 353.371 286.717C349.993 286.013 346.544 286.107 343.103 286.201C341.383 286.248 339.666 286.295 337.961 286.242C337.206 286.198 337.235 286.676 337.264 287.143C337.269 287.231 337.275 287.319 337.275 287.403Z" fill="#E52129"/>
</g>
<defs>
<clipPath id="clip0_637_156">
<rect width="512" height="512" fill="white"/>
</clipPath>
</defs>
</svg>
