<svg width="247" height="247" viewBox="0 0 247 247" fill="none" xmlns="http://www.w3.org/2000/svg">
<rect width="247" height="247" rx="26" fill="#FFE5E5"/>
<path d="M25.6033 113.342C26.9018 115.379 28.0984 117.365 29.4224 119.275C53.3044 153.825 85.232 177.172 125.816 188.425C133.964 190.691 142.238 192.194 150.64 193.186C161.614 194.51 172.613 194.79 183.612 194.23C197.564 193.517 211.338 191.455 224.934 188.273C225.011 188.247 225.087 188.273 225.214 188.349C224.323 188.731 223.458 189.138 222.567 189.52C221.675 189.902 220.759 190.284 219.868 190.64C206.756 195.885 193.21 199.628 179.258 201.919C168.539 203.676 157.769 204.491 146.923 204.084C110.591 202.811 80.0126 189.062 55.6723 161.87C44.1641 149.012 35.2783 134.475 27.9966 118.893C27.1819 117.136 26.418 115.379 25.6288 113.622C25.6033 113.597 25.6033 113.521 25.6033 113.342Z" fill="#1D1819"/>
<path d="M151.023 40.041C148.783 41.8996 146.593 43.8346 144.684 46.0242C141.628 49.5632 139.49 53.5351 138.802 58.1944C138.191 62.319 138.675 66.3672 139.77 70.3645C141.119 75.2784 143.258 79.8613 145.677 84.3423C147.255 87.2957 148.554 90.351 149.088 93.6609C150.081 99.7968 147.943 104.558 142.799 107.995C139.21 110.388 135.187 111.585 130.986 112.298C130.375 112.4 129.764 112.476 129.051 112.553C129.204 112.4 129.28 112.323 129.356 112.272C134.703 108.504 136.587 103.259 134.83 96.9453C134.016 94.0173 132.717 91.3185 130.935 88.8488C127.752 84.3932 125.053 79.683 123.653 74.3363C121.311 65.2724 123.755 57.5833 130.451 51.1673C135.085 46.7117 140.635 43.7583 146.568 41.4413C148.019 40.8812 149.496 40.3975 151.023 40.041Z" fill="#1D1819"/>
<path d="M121.641 112.756C122.38 111.61 122.965 110.413 123.169 109.038C123.526 106.874 122.965 104.939 121.794 103.157C120.75 101.527 119.426 100.178 117.848 99.0832C115.607 97.5047 113.494 95.7988 111.763 93.6601C109.446 90.834 107.969 87.6769 108.071 83.9597C108.122 82.1265 108.555 80.3443 109.293 78.6639C111.406 73.7755 115.047 70.1855 119.299 67.0793C118.968 67.6649 118.637 68.2251 118.306 68.8107C114.538 75.354 115.073 81.5664 119.681 87.4987C121.412 89.7392 123.424 91.7506 125.511 93.6601C127.014 95.035 128.363 96.5881 129.28 98.4213C130.782 101.4 130.629 104.303 128.745 107.052C126.937 109.649 124.442 111.381 121.641 112.756Z" fill="#1D1819"/>
<path d="M22.3971 127.421C25.6051 135.976 29.857 143.97 34.9236 151.558C52.8733 178.418 77.3662 196.495 108.123 206.196C108.352 206.272 108.555 206.349 108.785 206.476C107.511 206.425 106.264 206.145 105.016 205.865C85.6409 201.46 68.4042 192.829 53.6371 179.437C40.143 167.216 30.7226 152.296 24.6376 135.186C23.7465 132.666 22.9063 130.145 22.2188 127.574C22.1934 127.395 22.2698 127.37 22.3971 127.421Z" fill="#1D1819"/>
<path d="M22.3964 127.421C22.3455 127.472 22.2946 127.523 22.2437 127.574C21.9127 126.988 21.8617 126.301 21.709 125.664C22.0145 126.199 22.2437 126.784 22.3964 127.421Z" fill="#1D1819"/>
<path fill-rule="evenodd" clip-rule="evenodd" d="M158.584 121.387H116.39C102.337 121.387 88.2599 121.387 74.2079 121.438C73.6987 121.438 73.1894 121.438 72.7057 121.514C71.0253 121.769 70.236 122.685 70.236 124.366C70.236 131.826 70.236 139.26 70.2615 146.694C70.2615 150.335 70.8471 153.9 71.7891 157.413C71.891 157.846 72.1201 158.152 72.4765 158.406C88.6694 170.551 106.492 179.462 125.944 185.114C126.351 185.216 126.707 185.267 127.115 185.191C130.246 184.605 133.327 183.841 136.332 182.823C136.651 182.712 136.971 182.602 137.291 182.492C139.829 181.62 142.368 180.748 144.606 179.233C150.182 175.414 154.459 170.373 157.769 164.517C158.049 164.008 158.355 163.829 158.94 163.829C160.735 163.868 162.514 163.863 164.301 163.858C164.898 163.856 165.496 163.855 166.095 163.855C166.545 163.847 166.992 163.851 167.438 163.854C168.507 163.863 169.567 163.871 170.627 163.728C180.047 162.404 186.183 153.518 184.045 144.25C182.542 137.783 176.941 132.818 170.321 132.131C168.763 131.958 167.192 131.985 165.626 132.012C164.89 132.025 164.154 132.037 163.422 132.029C162.861 132.029 162.734 131.876 162.734 131.316C162.751 129.756 162.745 128.206 162.74 126.653C162.737 125.875 162.734 125.096 162.734 124.315C162.734 123.042 162.199 122.227 161.003 121.743C160.214 121.438 159.399 121.387 158.584 121.387ZM162.709 138.649V143.639C162.912 147.586 162.378 152.067 160.85 156.446C160.672 156.981 160.85 157.057 161.334 157.057C162.381 157.046 163.424 157.049 164.467 157.052C165.856 157.056 167.244 157.061 168.641 157.031C173.478 156.93 177.527 153.289 177.959 148.731C178.443 143.665 175.388 139.336 170.474 138.318C168.844 137.978 167.18 138.024 165.52 138.069C164.691 138.092 163.862 138.114 163.04 138.089C162.676 138.067 162.69 138.298 162.703 138.523C162.706 138.566 162.709 138.608 162.709 138.649Z" fill="#E52129"/>
</svg>
