<svg width="512" height="512" viewBox="0 0 512 512" fill="none" xmlns="http://www.w3.org/2000/svg">
<g clip-path="url(#clip0_621_2)">
<rect width="512" height="512" fill="url(#paint0_linear_621_2)"/>
<path d="M403 329.25C403 335.714 401.182 341.71 398.264 346.985L305.123 242.77L397.256 162.16C400.839 167.85 403 174.53 403 181.75V329.25ZM255.5 261.694L383.698 149.521C378.441 146.64 372.517 144.875 366.125 144.875H144.875C138.474 144.875 132.55 146.64 127.311 149.521L255.5 261.694ZM291.241 254.906L261.568 280.888C259.831 282.4 257.67 283.156 255.5 283.156C253.33 283.156 251.169 282.4 249.432 280.887L219.75 254.905L125.429 360.453C131.083 364.001 137.709 366.125 144.875 366.125H366.125C373.291 366.125 379.917 364 385.571 360.453L291.241 254.906ZM113.744 162.16C110.161 167.85 108 174.53 108 181.75V329.25C108 335.714 109.81 341.71 112.736 346.985L205.869 242.752L113.744 162.16Z" fill="white"/>
</g>
<defs>
<linearGradient id="paint0_linear_621_2" x1="533.5" y1="-43.5" x2="-7.99998" y2="538.5" gradientUnits="userSpaceOnUse">
<stop stop-color="#484848"/>
<stop offset="0.596052" stop-color="#45312A" stop-opacity="0.873112"/>
<stop offset="0.9999" stop-color="#432115" stop-opacity="0.71"/>
<stop offset="1" stop-color="#713C2B" stop-opacity="0"/>
</linearGradient>
<clipPath id="clip0_621_2">
<rect width="512" height="512" fill="white"/>
</clipPath>
</defs>
</svg>
